<?xml version="1.0" encoding="UTF-8"?>
<svg width="78px" height="72px" viewBox="0 0 78 72" version="1.1" xmlns="http://www.w3.org/2000/svg" xmlns:xlink="http://www.w3.org/1999/xlink">
    <!-- Generator: sketchtool 49.1 (51147) - http://www.bohemiancoding.com/sketch -->
    <title>27D8A5EC-8488-4E9A-8A86-D597AB3D1076</title>
    <desc>Created with sketchtool.</desc>
    <defs>
        <linearGradient x1="0%" y1="78.2429245%" x2="100%" y2="34.0304393%" id="linearGradient-1">
            <stop stop-color="#EAEAEA" offset="0%"></stop>
            <stop stop-color="#FFFFFF" offset="100%"></stop>
        </linearGradient>
        <linearGradient x1="100%" y1="22.6074219%" x2="0%" y2="65.8886719%" id="linearGradient-2">
            <stop stop-color="#507CF2" offset="0%"></stop>
            <stop stop-color="#4230EC" offset="100%"></stop>
        </linearGradient>
        <linearGradient x1="100%" y1="22.6074219%" x2="0%" y2="65.8886719%" id="linearGradient-3">
            <stop stop-color="#50B0F2" offset="0%"></stop>
            <stop stop-color="#3062EC" offset="100%"></stop>
        </linearGradient>
    </defs>
    <g id="Home" stroke="none" stroke-width="1" fill="none" fill-rule="evenodd">
        <g transform="translate(-191.000000, -456.000000)" id="QUANT">
            <g transform="translate(150.000000, 401.000000)">
                <g id="Quantor-Plash">
                    <g id="algorithm" transform="translate(41.000000, 55.000000)">
                        <path d="M47.9923493,1.01714175 C47.6810734,0.709794544 47.3102161,0.460846177 46.8983786,0.288949841 C46.0549399,-0.0633085108 46.3486321,0.0219222269 38.0408195,0.0219222269 C0.319173648,0.0219222269 3.08113007,-0.113528642 2.1176569,0.288949841 C1.4555779,0.565447537 0.892607303,1.0433997 0.513902765,1.65780714 C-0.0149175772,2.51700185 0.0356538653,3.2829306 0.0155996726,3.41981633 C0.0155996726,54.3588133 -0.150791999,50.3988842 0.603274711,51.5018617 C1.22132168,52.4052502 2.26864463,53 3.4569282,53 C44.3116783,53 4.39322649,53 45.558526,53 C46.7851741,53 47.8861202,52.3632087 48.5016967,51.3639716 C49.0305171,50.5047769 48.9799456,49.7388481 48.9999998,49.6019624 C48.9999998,49.2867235 48.9999998,42.3980998 48.9999998,42.7134822 C48.9999998,29.2343989 48.9999998,17.081127 48.9999998,3.41981633 C49.0002905,2.75547573 48.6159184,1.63298405 47.9923493,1.01714175 Z" id="Shape" fill="url(#linearGradient-1)" fill-rule="nonzero"></path>
                        <path d="M55,32 L55,21.7804555" id="Path-2" stroke="#121B59" stroke-width="2"></path>
                        <path d="M67,50 L67,37.7804555" id="Path-2" stroke="#121B59" stroke-width="2"></path>
                        <path d="M42,50 L42,37.7804555" id="Path-2" stroke="#121B59" stroke-width="2"></path>
                        <polyline id="Path-2" stroke="#121B59" stroke-width="2" points="67 52 67 67 42 67 42 54.7804555"></polyline>
                        <path d="M48.9701497,9 C48.9701497,3.20817972 49.2710204,2.24184528 47.9623565,0.97533275 C47.3398404,0.372867587 46.4797949,0.000140598638 45.5299676,0 L3.44003683,0 C2.21113056,0.000140598638 1.11224807,0.626226333 0.498158127,1.60310567 C-0.0305083717,2.44515091 0.0200483586,3.19552584 0,3.32965694 L0,9 L48.9701497,9 Z" id="Shape" fill="url(#linearGradient-2)" fill-rule="nonzero"></path>
                        <g id="Group" transform="translate(46.000000, 14.000000)" fill="url(#linearGradient-2)" fill-rule="nonzero">
                            <path d="M30.0957011,35.606412 L17.1094889,35.606412 C16.220146,35.606412 15.492596,36.3207844 15.492596,37.1940192 L15.492596,42.3936036 C15.492596,43.2668384 16.220146,43.9812108 17.1094889,43.9812108 L30.0957011,43.9812108 C30.985044,43.9812108 31.7125939,43.2668384 31.7125939,42.3936036 L31.7125939,37.1941646 C31.7125939,36.3209297 30.985044,35.606412 30.0957011,35.606412 Z" id="Shape"></path>
                            <path d="M14.6276775,0.0114822823 L1.64146527,0.0114822823 C0.752122378,0.0114822823 0.0245723902,0.726 0.0245723902,1.59908949 L0.0245723902,6.79881922 C0.0245723902,7.67205405 0.752122378,8.38642643 1.64146527,8.38642643 L14.6276775,8.38642643 C15.5170204,8.38642643 16.2447184,7.67205405 16.2447184,6.79881922 L16.2447184,1.59908949 C16.2445703,0.726 15.5170204,0.0114822823 14.6276775,0.0114822823 Z" id="Shape"></path>
                        </g>
                        <path d="M60.4050376,64 L47.5949624,64 C46.717682,64 46,64.6825289 46,65.5165304 L46,70.4834696 C46,71.3176099 46.717682,72 47.5949624,72 L60.4050376,72 C61.282318,72 62,71.3176099 62,70.4834696 L62,65.5165304 C62,64.6823901 61.282318,64 60.4050376,64 Z" id="Shape" fill="url(#linearGradient-3)" fill-rule="nonzero"></path>
                        <path d="M45.4050376,49 L32.5949624,49 C31.717682,49 31,49.6824019 31,50.5165568 L31,55.4834432 C31,56.3175981 31.717682,57 32.5949624,57 L45.4050376,57 C46.282318,57 47,56.3175981 47,55.4834432 L47,50.5166956 C47,49.6825408 46.282318,49 45.4050376,49 Z" id="Shape" fill="url(#linearGradient-2)" fill-rule="nonzero"></path>
                        <path d="M54.0137971,32.1008378 L41.6968035,37.4592028 C40.7677322,37.8632556 40.7677322,39.1364637 41.6968035,39.5407972 L54.0137971,44.8991622 C54.322809,45.0336126 54.6769002,45.0336126 54.9860574,44.8991622 L67.3031965,39.5407972 C68.2322678,39.1367444 68.2322678,37.8635363 67.3031965,37.4592028 L54.9860574,32.1008378 C54.6770456,31.9663874 54.3230998,31.9663874 54.0137971,32.1008378 Z" id="Shape" fill="url(#linearGradient-3)" fill-rule="nonzero"></path>
                        <path d="M5.83205393,4.4453344 C5.79587477,4.39060206 5.7532875,4.33867307 5.70789667,4.29328528 C5.66117082,4.24656254 5.6107069,4.20531304 5.55583739,4.16926979 C5.5011014,4.13322654 5.44236032,4.10132159 5.38255123,4.07729275 C5.32260864,4.05179549 5.25986249,4.03323989 5.19591483,4.02002403 C5.06655096,3.99332532 4.93451705,3.99332532 4.8052867,4.02002403 C4.74133903,4.03337338 4.67859288,4.05206247 4.61731527,4.07729275 C4.55737267,4.10132159 4.49996662,4.13322654 4.44536413,4.16926979 C4.39076163,4.20531304 4.34003071,4.24656254 4.29330485,4.29328528 C4.10666845,4.47990922 4,4.73728474 4,5 C4,5.26405019 4.10666845,5.52129222 4.29330485,5.70804966 C4.47980776,5.89333867 4.73720045,6 5.00006675,6 C5.06534944,6 5.13063213,5.99332532 5.19604833,5.98131091 C5.25999599,5.96796155 5.32274214,5.94927246 5.38268473,5.92404218 C5.44249383,5.89867841 5.5013684,5.8681084 5.5559709,5.83206514 C5.6107069,5.79468696 5.66130432,5.75343746 5.70803017,5.70804966 C5.753421,5.66132693 5.79600828,5.61073288 5.83218744,5.55600053 C5.8682331,5.50126819 5.89880515,5.44266453 5.92403711,5.38272594 C5.94806755,5.32278734 5.96809292,5.26004539 5.97997463,5.19610199 C5.99345838,5.13082366 6,5.06541183 6,5.00013349 C6,4.93485516 5.99332488,4.86944333 5.97997463,4.80549993 C5.96795942,4.74155653 5.94793405,4.67881458 5.92403711,4.61754105 C5.89867165,4.55733547 5.86783259,4.49993325 5.83205393,4.4453344 Z" id="Shape" fill="#121B59" fill-rule="nonzero"></path>
                        <path d="M9.83070761,4.44536413 C9.79465955,4.39062813 9.75340454,4.33869568 9.70667557,4.29330485 C9.65981308,4.246579 9.60934579,4.20532675 9.55447263,4.16928109 C9.49986649,4.13323543 9.44245661,4.10132835 9.38264352,4.07729791 C9.3212283,4.05179895 9.25847797,4.03324211 9.19465955,4.02002537 C9.06662216,3.99332488 8.93324433,3.99332488 8.80387183,4.02002537 C8.7400534,4.03337561 8.67730307,4.05206595 8.61735648,4.07729791 C8.55740988,4.10132835 8.49853138,4.13323543 8.44405874,4.16928109 C8.38931909,4.20532675 8.33871829,4.246579 8.29185581,4.29330485 C8.24646195,4.33869568 8.20387183,4.39062813 8.16782377,4.44536413 C8.13164219,4.50010013 8.1012016,4.55737267 8.07583445,4.61731527 C8.0506008,4.67859288 8.0317757,4.74133903 8.01989319,4.8052867 C8.00654206,4.86923436 8,4.93465056 8,4.99993325 C8,5.26400107 8.10667557,5.52126026 8.29185581,5.70803017 C8.33871829,5.753421 8.38918558,5.79467325 8.44405874,5.83205393 C8.49866489,5.86809959 8.55740988,5.89867165 8.61735648,5.92403711 C8.67730307,5.94940258 8.7400534,5.96809292 8.80387183,5.98130966 C8.86782377,5.99332488 8.93457944,6 9,6 C9.06515354,6 9.1305741,5.99332488 9.19465955,5.98130966 C9.25847797,5.96795942 9.3212283,5.94926907 9.38264352,5.92403711 C9.44245661,5.89867165 9.5,5.86809959 9.55447263,5.83205393 C9.60921228,5.79467325 9.65981308,5.753421 9.70667557,5.70803017 C9.89319092,5.52139377 10,5.26400107 10,4.99993325 C10,4.93465056 9.99319092,4.86923436 9.9799733,4.8052867 C9.96662216,4.74133903 9.94793057,4.67859288 9.92269693,4.61731527 C9.89866489,4.55737267 9.86688919,4.49996662 9.83070761,4.44536413 Z" id="Shape" fill="#121B59" fill-rule="nonzero"></path>
                        <path d="M12.8321762,4.44461513 C12.7947931,4.38984805 12.7535381,4.33788612 12.7081442,4.29246953 C12.6612817,4.24571715 12.6108144,4.20444148 12.5559413,4.16837535 C12.5013351,4.13230923 12.4425901,4.10038404 12.3826435,4.07633996 C12.3226969,4.05082652 12.2599466,4.03225914 12.1961282,4.0190349 C12.0666222,3.99365503 11.9332443,3.99365503 11.8053405,4.0190349 C11.741522,4.03239272 11.6786382,4.05109367 11.6173565,4.07633996 C11.5575434,4.10038404 11.4986649,4.13230923 11.4453939,4.16837535 C11.3907877,4.20444148 11.3387183,4.24571715 11.2933244,4.29246953 C11.2465955,4.33788612 11.2053405,4.38984805 11.1680908,4.44461513 C11.1332443,4.4993822 11.1014686,4.55668726 11.0773031,4.61666388 C11.0520694,4.67797629 11.0319092,4.74075806 11.0200267,4.80474203 C11.0065421,4.868726 11,4.93417933 11,4.99949908 C11,5.06481883 11.0066756,5.13027217 11.0200267,5.19559192 C11.0320427,5.25957589 11.0520694,5.32235766 11.0773031,5.38233428 C11.1014686,5.4423109 11.1332443,5.50108532 11.1680908,5.55438304 C11.2053405,5.61048589 11.246729,5.66111204 11.2933244,5.70786442 C11.3387183,5.75328102 11.3906542,5.79455669 11.4453939,5.83195859 C11.4987984,5.86802471 11.5575434,5.89861413 11.6173565,5.92399399 C11.6786382,5.94937385 11.741522,5.9680748 11.8053405,5.98129905 C11.8692924,5.99332109 11.9348465,6 12,6 C12.065287,6 12.1307076,5.99332109 12.1961282,5.98129905 C12.2599466,5.96794123 12.3226969,5.94924027 12.3826435,5.92399399 C12.4425901,5.89861413 12.5014686,5.86802471 12.5559413,5.83195859 C12.6106809,5.79455669 12.6612817,5.75328102 12.7081442,5.70786442 C12.7535381,5.66111204 12.7946595,5.61048589 12.8321762,5.55438304 C12.8683578,5.50095174 12.8987984,5.4423109 12.9241656,5.38233428 C12.9481976,5.32235766 12.9682243,5.25957589 12.9801068,5.19559192 C12.9934579,5.13027217 13,5.06481883 13,4.99949908 C13,4.93417933 12.9933244,4.868726 12.9801068,4.80474203 C12.9680908,4.74075806 12.9480641,4.67797629 12.9241656,4.61666388 C12.8989319,4.55668726 12.8683578,4.49924862 12.8321762,4.44461513 Z" id="Shape" fill="#121B59" fill-rule="nonzero"></path>
                        <path d="M17.069028,4 C16.478501,4 16,4.44773728 16,5 C16,5.55226272 16.478501,6 17.069028,6 L34.930972,6 C35.521499,6 36,5.55226272 36,5 C36,4.44773728 35.521499,4 34.930972,4 L17.069028,4 Z" id="Shape" fill="#121B59" fill-rule="nonzero"></path>
                        <path d="M38,5 C38,5.55226272 38.520733,6 39.1633794,6 L41.8366206,6 C42.479267,6 43,5.55226272 43,5 C43,4.44773728 42.479267,4 41.8366206,4 L39.1633794,4 C38.5208883,4 38,4.44773728 38,5 Z" id="Shape" fill="#121B59" fill-rule="nonzero"></path>
                        <path d="M72.9257542,52 L69.0743893,52 C68.4809007,52 68,52.4476038 68,53 C68,53.5523962 68.4809007,54 69.0743893,54 L72.9256107,54 C73.5189559,54 74,53.5523962 74,53 C74,52.4476038 73.5189559,52 72.9257542,52 Z" id="Shape" fill="#121B59" fill-rule="nonzero"></path>
                        <path d="M65.9227021,52.6168189 C65.8986717,52.5568432 65.8680996,52.4979361 65.8320539,52.4447728 C65.7946733,52.3886708 65.753421,52.3379118 65.7066951,52.2924959 C65.6613043,52.2457443 65.6095054,52.2044693 65.5546359,52.1670679 C65.5012349,52.1308688 65.4426273,52.1004134 65.3826847,52.0762361 C65.3227421,52.0509902 65.258661,52.0308202 65.1960483,52.018932 C64.8695014,51.9536132 64.5254656,52.0603406 64.2933049,52.2923624 C64.246579,52.3377783 64.2053267,52.3885372 64.1679461,52.4446392 C64.1319004,52.4978025 64.1013283,52.5567096 64.0772979,52.6166853 C64.052066,52.6765274 64.0319071,52.7407775 64.0200254,52.8046269 C64.0065416,52.8686099 64,52.9341958 64,52.999381 C64,53.2623924 64.1066684,53.5209959 64.2933049,53.7066668 C64.4786062,53.8932726 64.7359989,54 65.0000668,54 C65.0653494,54 65.1307656,53.9933212 65.1960483,53.9800972 C65.2587945,53.9680753 65.3227421,53.9480389 65.3826847,53.922793 C65.4426273,53.8986157 65.5013684,53.8680268 65.5546359,53.8319612 C65.6093719,53.7945599 65.6613043,53.7532848 65.7066951,53.7066668 C65.8933316,53.5211295 66,53.2637282 66,52.999381 C66,52.9341958 65.9933249,52.8686099 65.9801081,52.8046269 C65.9679594,52.7407775 65.9482011,52.676661 65.9227021,52.6168189 Z" id="Shape" fill="#121B59" fill-rule="nonzero"></path>
                        <path d="M57.9256107,66 L54.0743893,66 C53.4809007,66 53,66.4476038 53,67 C53,67.5523962 53.4809007,68 54.0743893,68 L57.9256107,68 C58.5190993,68 59,67.5523962 59,67 C59,66.4477373 58.5189559,66 57.9256107,66 Z" id="Shape" fill="#121B59" fill-rule="nonzero"></path>
                        <path d="M50.5546061,66.1682598 C50.4998665,66.1322256 50.4425901,66.1016632 50.3826435,66.0763058 C50.3213618,66.0509484 50.2586115,66.032264 50.1946595,66.018918 C50.0666222,65.993694 49.9332443,65.993694 49.8040053,66.018918 C49.7400534,66.0323974 49.6773031,66.0509484 49.6173565,66.0763058 C49.5575434,66.1016632 49.4986649,66.1322256 49.4440587,66.1682598 C49.3893191,66.2044275 49.3387183,66.2468679 49.2919893,66.2923778 C49.1065421,66.4788215 49,66.7362661 49,67.0002502 C49,67.2628998 49.1066756,67.5200774 49.2919893,67.7067881 C49.3387183,67.7536326 49.3891856,67.7947383 49.4440587,67.830906 C49.4987984,67.8669403 49.5575434,67.8975026 49.6173565,67.9227266 C49.6773031,67.948084 49.7400534,67.9667684 49.8040053,67.979981 C49.8692924,67.9934605 49.934713,68 50,68 C50.065287,68 50.1307076,67.993327 50.1946595,67.979981 C50.2586115,67.966635 50.3213618,67.948084 50.3826435,67.9227266 C50.4425901,67.8975026 50.5,67.8668068 50.5546061,67.830906 C50.6093458,67.7947383 50.6612817,67.7536326 50.7066756,67.7067881 C50.8933244,67.5203443 51,67.2628998 51,67.0002502 C51,66.7362661 50.8933244,66.4790885 50.7066756,66.2923778 C50.6612817,66.2468679 50.6092123,66.2044275 50.5546061,66.1682598 Z" id="Shape" fill="#121B59" fill-rule="nonzero"></path>
                        <path d="M41.9256107,52 L38.0743893,52 C37.4809007,52 37,52.4476038 37,53 C37,53.5523962 37.4809007,54 38.0743893,54 L41.9256107,54 C42.5189559,54 43,53.5523962 43,53 C43,52.4476038 42.5189559,52 41.9256107,52 Z" id="Shape" fill="#121B59" fill-rule="nonzero"></path>
                        <path d="M35.922492,52.6175823 C35.8972785,52.5576397 35.8665955,52.4987651 35.8307097,52.4456311 C35.7945571,52.3908951 35.7521345,52.3388292 35.7067769,52.2934384 C35.659952,52.2467125 35.6095251,52.2054602 35.5546958,52.1680796 C35.5,52.1319004 35.4427695,52.1014619 35.3815368,52.0772979 C35.3216382,52.052066 35.2589381,52.0319071 35.1950374,52.0200254 C35.0657684,51.9933249 34.9338314,51.9933249 34.8046958,52.0200254 C34.7409285,52.0320406 34.678095,52.052066 34.6168623,52.0772979 C34.5569637,52.1014619 34.4995998,52.1320339 34.4450374,52.1680796 C34.3903415,52.2053267 34.3397812,52.2467125 34.2930896,52.2934384 C34.2477321,52.3388292 34.2051761,52.3907616 34.1691569,52.4456311 C34.1330043,52.4987651 34.102588,52.5576397 34.0772412,52.6175823 C34.0520277,52.6773914 34.0332177,52.741606 34.0200107,52.8054202 C34.0066702,52.8693679 34,52.9349176 34,53.0000668 C34,53.0653494 34.0066702,53.1307656 34.0200107,53.1947133 C34.0333511,53.258661 34.0520277,53.3228756 34.0772412,53.3826847 C34.102588,53.4426273 34.1331377,53.5015019 34.1691569,53.5546359 C34.2051761,53.6107069 34.2477321,53.6613043 34.2930896,53.7068286 C34.4795891,53.8933316 34.736793,54 34.999333,54 C35.263207,54 35.5202775,53.8933316 35.7070438,53.7068286 C35.7524013,53.6613043 35.7948239,53.6107069 35.8309765,53.5546359 C35.8669957,53.5015019 35.8975454,53.4426273 35.9227588,53.3826847 C35.9482391,53.3228756 35.9667823,53.258661 35.9801227,53.1947133 C35.9934632,53.1307656 36,53.0653494 36,53.0000668 C36,52.9349176 35.9933298,52.8693679 35.9801227,52.8054202 C35.9665155,52.7414725 35.9478388,52.6773914 35.922492,52.6175823 Z" id="Shape" fill="#121B59" fill-rule="nonzero"></path>
                        <path d="M7.93285841,16 L6.06728406,16 C5.47772039,16 5,16.4477373 5,17 C5,17.5522627 5.47772039,18 6.06728406,18 L7.93271594,18 C8.52227961,18 9,17.5522627 9,17 C9,16.4477373 8.52227961,16 7.93285841,16 Z" id="Shape" fill="#121B59" fill-rule="nonzero"></path>
                        <path d="M7.93285841,21 L6.06728406,21 C5.47772039,21 5,21.4477373 5,22 C5,22.5522627 5.47772039,23 6.06728406,23 L7.93271594,23 C8.52227961,23 9,22.5522627 9,22 C9,21.4477373 8.52227961,21 7.93285841,21 Z" id="Shape" fill="#121B59" fill-rule="nonzero"></path>
                        <path d="M7.93285841,26 L6.06728406,26 C5.47772039,26 5,26.4477373 5,27 C5,27.5522627 5.47772039,28 6.06728406,28 L7.93271594,28 C8.52227961,28 9,27.5522627 9,27 C9,26.4477373 8.52227961,26 7.93285841,26 Z" id="Shape" fill="#121B59" fill-rule="nonzero"></path>
                        <path d="M36.082847,16 L34.917153,16 C34.4105212,16 34,16.4477373 34,17 C34,17.5522627 34.4105212,18 34.917153,18 L36.082847,18 C36.5894788,18 37,17.5522627 37,17 C37,16.4476038 36.5893564,16 36.082847,16 Z" id="Shape" fill="#121B59" fill-rule="nonzero"></path>
                        <path d="M30.9396755,16 L22.0603245,16 C21.4746053,16 21,16.4477373 21,17 C21,17.5522627 21.4746053,18 22.0603245,18 L30.9396755,18 C31.5252532,18 32,17.5522627 32,17 C32,16.4477373 31.5252532,16 30.9396755,16 Z" id="Shape" fill="#121B59" fill-rule="nonzero"></path>
                        <path d="M13.0397153,18 L17.9602847,18 C18.5346195,18 19,17.5522627 19,17 C19,16.4477373 18.5346195,16 17.9602847,16 L13.0397153,16 C12.4653805,16 12,16.4477373 12,17 C12,17.5522627 12.4653805,18 13.0397153,18 Z" id="Shape" fill="#121B59" fill-rule="nonzero"></path>
                        <path d="M16,27 C16,27.5522627 16.4762591,28 17.0640193,28 L35.9359807,28 C36.5237409,28 37,27.5522627 37,27 C37,26.4477373 36.5237409,26 35.9359807,26 L17.0640193,26 C16.4764011,26 16,26.4477373 16,27 Z" id="Shape" fill="#121B59" fill-rule="nonzero"></path>
                        <path d="M31.8469708,23 C32.4837458,23 33,22.5522627 33,22 C33,21.4477373 32.4837458,21 31.8469708,21 L29.1530292,21 C28.5161002,21 28,21.4477373 28,22 C28,22.5522627 28.5161002,23 29.1530292,23 L31.8469708,23 Z" id="Shape" fill="#121B59" fill-rule="nonzero"></path>
                        <path d="M13.1036348,23 L24.8963652,23 C25.5060089,23 26,22.5522627 26,22 C26,21.4477373 25.5060089,21 24.8963652,21 L13.1036348,21 C12.4939911,21 12,21.4477373 12,22 C12,22.5523962 12.4939911,23 13.1036348,23 Z" id="Shape" fill="#121B59" fill-rule="nonzero"></path>
                        <path d="M35.9561037,21 L35.0438963,21 C34.467252,21 34,21.4477373 34,22 C34,22.5522627 34.467252,23 35.0438963,23 L35.9561037,23 C36.532748,23 37,22.5522627 37,22 C37,21.4477373 36.5326087,21 35.9561037,21 Z" id="Shape" fill="#121B59" fill-rule="nonzero"></path>
                        <path d="M12.167835,27.5557255 C12.2052206,27.6104917 12.2464784,27.6611171 12.293077,27.7078688 C12.3386074,27.7532847 12.3892116,27.7958955 12.4452901,27.8319611 C12.4985647,27.8680267 12.5573136,27.8986156 12.6172642,27.9239951 C12.6772148,27.9493746 12.7413045,27.9680753 12.803792,27.9812993 C12.8690834,27.9933212 12.9345083,28 12.9999332,28 C13.0650911,28 13.1305161,27.9933212 13.195941,27.9812993 C13.258562,27.9679417 13.3226517,27.949241 13.3826023,27.9239951 C13.4424194,27.8986156 13.5013018,27.8680267 13.5545764,27.8319611 C13.6090527,27.7958955 13.6612591,27.7532847 13.706656,27.7078688 C13.8931838,27.5211292 14,27.2635943 14,26.9993805 C14,26.9340617 13.9931905,26.8686094 13.979972,26.8046263 C13.9679551,26.7406433 13.9479271,26.6778625 13.924027,26.616551 C13.8986581,26.5565753 13.868082,26.4978018 13.8320315,26.4445048 C13.7947794,26.3897386 13.7533881,26.3377774 13.7067895,26.2923615 C13.6613926,26.2456098 13.6094532,26.2043348 13.5547099,26.1682692 C13.5013018,26.1322036 13.4425529,26.1002789 13.3827358,26.0762352 C13.3227852,26.0508557 13.258562,26.032155 13.1960745,26.018931 C12.8706856,25.9536122 12.5252687,26.0603396 12.293077,26.2924951 C12.2463449,26.337911 12.2052206,26.3898722 12.167835,26.4446384 C12.131651,26.4980689 12.1012084,26.5567089 12.0758395,26.6166846 C12.0518059,26.6779961 12.0317778,26.7407769 12.0198945,26.8047599 C12.0065425,26.8687429 12,26.9341953 12,26.9995141 C12,27.0648328 12.006676,27.1302852 12.0198945,27.195604 C12.0319113,27.259587 12.0519394,27.3223678 12.0758395,27.3823435 C12.1010748,27.4423193 12.1317845,27.5009592 12.167835,27.5557255 Z" id="Shape" fill="#121B59" fill-rule="nonzero"></path>
                        <path d="M7.93285839,42 L6.06728405,42 C5.47772039,42 5,42.4476038 5,43 C5,43.5523962 5.47772039,44 6.06728405,44 L7.93271592,44 C8.52227958,44 8.99999997,43.5523962 8.99999997,43 C9.00014244,42.4474703 8.52227958,42 7.93285839,42 Z" id="Shape" fill="#121B59" fill-rule="nonzero"></path>
                        <path d="M7.93285839,37 L6.06728405,37 C5.47772039,37 5,37.4476038 5,38 C5,38.5523962 5.47772039,39 6.06728405,39 L7.93271592,39 C8.52227958,39 8.99999997,38.5523962 8.99999997,38 C9.00014244,37.4476038 8.52227958,37 7.93285839,37 Z" id="Shape" fill="#121B59" fill-rule="nonzero"></path>
                        <path d="M7.93285841,32 L6.06728406,32 C5.47772039,32 5,32.4477373 5,33 C5,33.5522627 5.47772039,34 6.06728406,34 L7.93271594,34 C8.52227961,34 9,33.5522627 9,33 C9,32.4477373 8.52227961,32 7.93285841,32 Z" id="Shape" fill="#121B59" fill-rule="nonzero"></path>
                        <path d="M29.082847,42 L27.917153,42 C27.4105212,42 27,42.4476038 27,43 C27,43.5523962 27.4105212,44 27.917153,44 L29.082847,44 C29.5894788,44 30,43.5523962 30,43 C30,42.4476038 29.5894788,42 29.082847,42 Z" id="Shape" fill="#121B59" fill-rule="nonzero"></path>
                        <path d="M18.1255776,42 C17.5038128,42 17,42.4476038 17,43 C17,43.5523962 17.503963,44 18.1255776,44 L23.8744224,44 C24.496037,44 25,43.5523962 25,43 C25,42.4476038 24.496037,42 23.8744224,42 L18.1255776,42 Z" id="Shape" fill="#121B59" fill-rule="nonzero"></path>
                        <path d="M13.0231161,44 L14.9768839,44 C15.5420494,44 16,43.5523962 16,43 C16,42.4476038 15.5420494,42 14.9768839,42 L13.0231161,42 C12.4579506,42 12,42.4476038 12,43 C12,43.5522627 12.4579506,44 13.0231161,44 Z" id="Shape" fill="#121B59" fill-rule="nonzero"></path>
                        <path d="M29.9011295,37 L17.0988705,37 C16.4918586,37 16,37.4476038 16,38 C16,38.5523962 16.4918586,39 17.0988705,39 L29.9011295,39 C30.5081414,39 31,38.5523962 31,38 C30.9998533,37.4476038 30.5081414,37 29.9011295,37 Z" id="Shape" fill="#121B59" fill-rule="nonzero"></path>
                        <path d="M34,33 C34,32.4477373 33.4987293,32 32.8801017,32 L22.1198983,32 C21.5012707,32 21,32.4477373 21,33 C21,33.5522627 21.5012707,34 22.1198983,34 L32.8801017,34 C33.4987293,33.9998665 34,33.5521292 34,33 Z" id="Shape" fill="#121B59" fill-rule="nonzero"></path>
                        <path d="M19,33 C19,32.4477373 18.5346195,32 17.9602847,32 L13.0397153,32 C12.4653805,32 12,32.4477373 12,33 C12,33.5522627 12.4653805,34 13.0397153,34 L17.9602847,34 C18.5344807,33.9998665 19,33.5521292 19,33 Z" id="Shape" fill="#121B59" fill-rule="nonzero"></path>
                        <path d="M36.3830054,32.0759211 C36.3218322,32.0519039 36.2591931,32.0318896 36.1954877,32.0200144 C36.0662111,31.9933285 35.9344023,31.9933285 35.8053922,32.0200144 C35.7415536,32.032023 35.6789144,32.0520373 35.6192072,32.0759211 C35.5580341,32.1012727 35.5005926,32.1318279 35.4460832,32.1678538 C35.3915738,32.2052139 35.3409294,32.2464435 35.2942832,32.2931437 C35.207388,32.3801395 35.1346199,32.4842142 35.0786445,32.6169761 C34.767581,33.3563067 35.4286242,34.1388682 36.195621,33.9790202 C36.9470245,33.8379857 37.2878083,32.8711585 36.70673,32.2931437 C36.6599505,32.2464435 36.6095726,32.2052139 36.5547967,32.1678538 C36.500154,32.1318279 36.4429791,32.1012727 36.3830054,32.0759211 Z" id="Shape" fill="#121B59" fill-rule="nonzero"></path>
                        <path d="M13.8318868,37.444719 C13.7946321,37.3899556 13.7532381,37.3379971 13.7066364,37.29245 C13.6612365,37.2457007 13.6092936,37.2045614 13.5545467,37.1683641 C13.501135,37.1323004 13.4423822,37.1003773 13.3825611,37.0764684 C13.3226065,37.0510903 13.258379,37.0323906 13.1958873,37.0190336 C13.0664975,36.9936555 12.9331019,36.9936555 12.8038456,37.0190336 C12.7412205,37.0325241 12.67726,37.0510903 12.6173054,37.0764684 C12.5573508,37.1005109 12.4984644,37.132434 12.4453198,37.1683641 C12.3893711,37.2045614 12.33863,37.2457007 12.2930965,37.29245 C12.2463613,37.3379971 12.2052343,37.389822 12.1678462,37.444719 C12.1316598,37.4978796 12.1012151,37.5567837 12.0758446,37.6167563 C12.0518093,37.6780646 12.0317799,37.7408422 12.0198958,37.8048219 C12.0065429,37.868668 12,37.9342505 12,37.9995659 C12,38.0647477 12.0066765,38.1301967 12.0198958,38.1956456 C12.0319135,38.2596253 12.0519428,38.3224029 12.0758446,38.3823755 C12.1012151,38.4422146 12.1317933,38.5011186 12.1678462,38.5542792 C12.2052343,38.6103783 12.2464949,38.6611347 12.2930965,38.7065482 C12.33863,38.7532975 12.3892375,38.7945704 12.4453198,38.8318362 C12.4985979,38.8680335 12.5573508,38.8984873 12.6173054,38.9238655 C12.67726,38.947908 12.741354,38.9679434 12.8038456,38.9799646 C12.8691414,38.9933215 12.9345707,39 13,39 C13.0651622,39 13.1305915,38.993188 13.1960208,38.9799646 C13.258646,38.9679434 13.32274,38.947908 13.3826946,38.9238655 C13.4425157,38.8984873 13.5014021,38.8679 13.5546802,38.8318362 C13.6092936,38.7945704 13.66137,38.7531639 13.7067699,38.7065482 C13.7535051,38.6611347 13.7947657,38.6105119 13.8320203,38.5542792 C13.8682067,38.5011186 13.8986514,38.4422146 13.9240219,38.3823755 C13.9480572,38.3224029 13.9680865,38.2594918 13.9799706,38.1956456 C13.9933235,38.1303303 14,38.0648813 14,37.9995659 C14,37.9342505 13.99319,37.8688015 13.9799706,37.8048219 C13.967953,37.7408422 13.9479236,37.6780646 13.9240219,37.6167563 C13.8985178,37.5566501 13.8678061,37.4978796 13.8318868,37.444719 Z" id="Shape" fill="#121B59" fill-rule="nonzero"></path>
                        <path d="M59,18 C59,17.4477373 58.5190993,17 57.9256107,17 L54.0743893,17 C53.4809007,17 53,17.4477373 53,18 C53,18.5522627 53.4809007,19 54.0743893,19 L57.9256107,19 C58.5189559,19 59,18.5522627 59,18 Z" id="Shape" fill="#121B59" fill-rule="nonzero"></path>
                        <path d="M50.9226969,17.6169301 C50.8986649,17.5569766 50.8667557,17.4982248 50.8308411,17.4449477 C50.7946595,17.3902017 50.7535381,17.3382598 50.7066756,17.2928607 C50.6612817,17.2461264 50.6093458,17.2048666 50.5546061,17.1688144 C50.4998665,17.1327622 50.4425901,17.1008493 50.3826435,17.0768145 C50.3213618,17.0514444 50.2586115,17.0327506 50.1946595,17.0195315 C50.0666222,16.9928261 49.9332443,16.9941614 49.8040053,17.0195315 C49.7400534,17.0328842 49.6773031,17.0515779 49.6173565,17.0768145 C49.5575434,17.1008493 49.4986649,17.1327622 49.4440587,17.1688144 C49.3893191,17.2048666 49.3387183,17.2461264 49.2919893,17.2928607 C49.1065421,17.4781958 49,17.7369706 49,17.9997512 C49,18.2638671 49.1066756,18.5211731 49.2919893,18.7066418 C49.3387183,18.7533761 49.3891856,18.7946359 49.4440587,18.8320234 C49.4987984,18.8680756 49.5575434,18.8986532 49.6173565,18.9240233 C49.6773031,18.9480581 49.7400534,18.9680871 49.8040053,18.979971 C49.8692924,18.9933237 49.934713,19 50,19 C50.065287,19 50.1307076,18.9933237 50.1946595,18.979971 C50.2586115,18.9679536 50.3213618,18.9479246 50.3826435,18.9240233 C50.4425901,18.8986532 50.5,18.8680756 50.5546061,18.8320234 C50.6093458,18.7946359 50.6612817,18.7533761 50.7066756,18.7066418 C50.8933244,18.5213067 51,18.2638671 51,17.9997512 C51,17.9344567 50.9933244,17.8690286 50.9801068,17.8050693 C50.9667557,17.7408429 50.9480641,17.6782189 50.9226969,17.6169301 Z" id="Shape" fill="#121B59" fill-rule="nonzero"></path>
                    </g>
                </g>
            </g>
        </g>
    </g>
</svg>