<?xml version="1.0" encoding="UTF-8"?>
<svg width="1440px" height="608px" viewBox="0 0 1440 608" version="1.1" xmlns="http://www.w3.org/2000/svg" xmlns:xlink="http://www.w3.org/1999/xlink">
    <!-- Generator: sketchtool 49.1 (51147) - http://www.bohemiancoding.com/sketch -->
    <title>E7F0FAF4-F4D9-4396-8D0A-52DCCFE84085</title>
    <desc>Created with sketchtool.</desc>
    <defs>
        <linearGradient x1="18.8679245%" y1="100%" x2="18.8679248%" y2="0%" id="linearGradient-1">
            <stop stop-color="#B626FF" offset="0%"></stop>
            <stop stop-color="#373B4A" offset="100%"></stop>
        </linearGradient>
        <linearGradient x1="50%" y1="0%" x2="50%" y2="100%" id="linearGradient-2">
            <stop stop-color="#1D2436" offset="0%"></stop>
            <stop stop-color="#1D2436" stop-opacity="0" offset="100%"></stop>
        </linearGradient>
        <path d="M419.279452,355.281107 L371.203764,355.281107 L419.722086,354.792941 L462.783225,305.732249 L420.206984,354.792941 L469.181712,354.792941 L505.150557,305.732249 L469.666611,354.792941 L518.641339,354.792941 L547.517889,305.732249 L519.126237,354.792941 L568.100966,354.792941 L589.885221,305.732249 L568.585864,354.792941 L617.560592,354.792941 L632.252553,305.732249 L618.045491,354.792941 L667.020219,354.792941 L674.619885,305.732249 L667.505117,354.792941 L716.479846,354.792941 L716.987217,305.732249 L716.964744,354.792941 L765.939472,354.792941 L759.354549,305.732249 L766.42437,354.792941 L815.399099,354.792941 L801.721881,305.732249 L815.883997,354.792941 L864.858725,354.792941 L844.089213,305.732249 L865.343624,354.792941 L914.318352,354.792941 L886.456545,305.732249 L914.80325,354.792941 L963.777979,354.792941 L928.823877,305.732249 L964.262877,354.792941 L1013.23761,354.792941 L971.191209,305.732249 L1013.7225,354.792941 L1068.63653,354.792941 L1014.15539,355.281107 L1059.28006,404.585883 L1122.71259,404.585883 L1059.74073,405.074049 L1107.67149,454.378824 L1180.15297,454.378824 L1108.15995,454.86699 L1158.8968,504.171765 L1240.95766,504.171765 L1159.41303,504.659931 L1212.95597,553.964707 L1305.12668,553.964707 L1213.49999,554.452873 L1269.84902,603.757648 L1372.66001,603.757648 L1270.42082,604.245814 L1329.57594,653.550589 L1443.55765,653.550589 L1330.17552,654.038756 L1392.13673,703.343531 L1517.81961,703.343531 L1392.7641,703.831697 L1457.53139,753.136472 L1595.44589,753.136472 L1458.18654,753.624638 L1525.75993,802.929414 L1676.43649,802.929414 L1526.44286,803.41758 L1596.82233,852.722355 L1760.7914,852.722355 L1597.53305,853.210521 L1667.03855,900.08 L1596.08401,853.210521 L1449.73066,853.210521 L1507.52594,900.08 L1448.28161,853.210521 L1301.92826,853.210521 L1348.01334,900.08 L1300.47922,853.210521 L1154.12587,853.210521 L1188.50074,900.08 L1152.67682,853.210521 L1006.32347,853.210521 L1028.98813,900.08 L1004.87443,853.210521 L858.521076,853.210521 L869.475528,900.08 L857.072032,853.210521 L710.71868,853.210521 L709.962924,900.08 L709.269637,853.210521 L562.916285,853.210521 L550.45032,900.08 L561.467242,853.210521 L415.11389,853.210521 L390.937716,900.08 L413.664847,853.210521 L267.311495,853.210521 L231.425112,900.08 L265.862452,853.210521 L119.509099,853.210521 L71.9125083,900.08 L118.060056,853.210521 L-28.2932958,853.210521 L-87.6000957,900.08 L-29.7423388,853.210521 L-176.095691,853.210521 L-247.1127,900.08 L-177.544734,853.210521 L-321,853.210521 L-176.817404,852.722355 L-104.794759,803.41758 L-236.625391,803.41758 L-104.095898,802.929414 L-34.9486853,753.624638 L-155.61839,753.624638 L-34.2782942,753.136472 L31.9934869,703.831697 L-77.9789951,703.831697 L32.6354084,703.343531 L96.0317577,654.038756 L-3.7072079,654.038756 L96.6452095,653.550589 L157.166127,604.245814 L67.1969721,604.245814 L157.751109,603.757648 L215.396595,554.452873 L134.733545,554.452873 L215.953107,553.964707 L270.723161,504.659931 L198.90251,504.659931 L271.251204,504.171765 L323.145826,454.86699 L259.703869,454.86699 L323.6454,454.378824 L372.66459,405.074049 L317.13762,405.074049 L373.135693,404.585883 L419.279452,355.281107 Z M419.765065,355.281107 L373.695811,404.585883 L430.267714,404.585883 L468.811979,355.281107 L419.765065,355.281107 Z M469.297592,355.281107 L430.827832,404.585883 L487.399735,404.585883 L518.344506,355.281107 L469.297592,355.281107 Z M487.959853,404.585883 L544.531756,404.585883 L567.877033,355.281107 L518.830119,355.281107 L487.959853,404.585883 Z M545.091874,404.585883 L601.663777,404.585883 L617.40956,355.281107 L568.362646,355.281107 L545.091874,404.585883 Z M602.223895,404.585883 L658.795798,404.585883 L666.942088,355.281107 L617.895173,355.281107 L602.223895,404.585883 Z M659.355916,404.585883 L715.927819,404.585883 L716.474615,355.281107 L667.427701,355.281107 L659.355916,404.585883 Z M716.487937,404.585883 L773.05984,404.585883 L766.007142,355.281107 L716.960228,355.281107 L716.487937,404.585883 Z M766.492755,355.281107 L773.619958,404.585883 L830.191861,404.585883 L815.539669,355.281107 L766.492755,355.281107 Z M830.751979,404.585883 L887.323882,404.585883 L865.072196,355.281107 L816.025282,355.281107 L830.751979,404.585883 Z M865.557809,355.281107 L887.884,404.585883 L944.455903,404.585883 L914.604724,355.281107 L865.557809,355.281107 Z M915.090337,355.281107 L945.016021,404.585883 L1001.58792,404.585883 L964.137251,355.281107 L915.090337,355.281107 Z M964.622864,355.281107 L1002.14804,404.585883 L1058.71994,404.585883 L1013.66978,355.281107 L964.622864,355.281107 Z M1059.17985,405.074049 L1002.53113,405.074049 L1042.38932,454.378824 L1107.03147,454.378824 L1059.17985,405.074049 Z M1001.97025,405.074049 L945.321522,405.074049 L977.107148,454.378824 L1041.7493,454.378824 L1001.97025,405.074049 Z M944.760644,405.074049 L888.111917,405.074049 L911.824976,454.378824 L976.467127,454.378824 L944.760644,405.074049 Z M887.551038,405.074049 L830.902311,405.074049 L846.542803,454.378824 L911.184954,454.378824 L887.551038,405.074049 Z M830.341433,405.074049 L773.692706,405.074049 L781.26063,454.378824 L845.902782,454.378824 L830.341433,405.074049 Z M773.131828,405.074049 L716.483101,405.074049 L715.978457,454.378824 L780.620609,454.378824 L773.131828,405.074049 Z M715.922222,405.074049 L659.273495,405.074049 L650.696285,454.378824 L715.338436,454.378824 L715.922222,405.074049 Z M658.712617,405.074049 L602.06389,405.074049 L585.414112,454.378824 L650.056263,454.378824 L658.712617,405.074049 Z M544.854284,405.074049 L520.131939,454.378824 L584.774091,454.378824 L601.503011,405.074049 L544.854284,405.074049 Z M487.644679,405.074049 L454.849766,454.378824 L519.491918,454.378824 L544.293406,405.074049 L487.644679,405.074049 Z M487.083801,405.074049 L430.435074,405.074049 L389.567594,454.378824 L454.209745,454.378824 L487.083801,405.074049 Z M373.225468,405.074049 L324.285421,454.378824 L388.927572,454.378824 L429.874195,405.074049 L373.225468,405.074049 Z M323.786654,454.86699 L271.975813,504.171765 L345.161286,504.171765 L388.510267,454.86699 L323.786654,454.86699 Z M389.151095,454.86699 L345.885895,504.171765 L419.071368,504.171765 L453.874708,454.86699 L389.151095,454.86699 Z M419.795977,504.171765 L492.98145,504.171765 L519.23915,454.86699 L454.515536,454.86699 L419.795977,504.171765 Z M493.706059,504.171765 L566.891532,504.171765 L584.603591,454.86699 L519.879977,454.86699 L493.706059,504.171765 Z M567.616141,504.171765 L640.801614,504.171765 L649.968032,454.86699 L585.244418,454.86699 L567.616141,504.171765 Z M650.60886,454.86699 L641.526223,504.171765 L714.711696,504.171765 L715.332473,454.86699 L650.60886,454.86699 Z M715.436305,504.171765 L788.621778,504.171765 L780.696914,454.86699 L715.973301,454.86699 L715.436305,504.171765 Z M781.337742,454.86699 L789.346387,504.171765 L862.53186,504.171765 L846.061355,454.86699 L781.337742,454.86699 Z M863.256469,504.171765 L936.441942,504.171765 L911.425796,454.86699 L846.702183,454.86699 L863.256469,504.171765 Z M912.066624,454.86699 L937.166551,504.171765 L1010.35202,504.171765 L976.790237,454.86699 L912.066624,454.86699 Z M977.431065,454.86699 L1011.07663,504.171765 L1084.26211,504.171765 L1042.15468,454.86699 L977.431065,454.86699 Z M1084.98671,504.171765 L1158.17219,504.171765 L1107.51912,454.86699 L1042.79551,454.86699 L1084.98671,504.171765 Z M1158.68757,504.659931 L1085.416,504.659931 L1129.94022,553.964707 L1212.14209,553.964707 L1158.68757,504.659931 Z M1084.69054,504.659931 L1011.41896,504.659931 L1046.92447,553.964707 L1129.12634,553.964707 L1084.69054,504.659931 Z M1010.6935,504.659931 L937.421931,504.659931 L963.908726,553.964707 L1046.11059,553.964707 L1010.6935,504.659931 Z M936.69647,504.659931 L863.424896,504.659931 L880.892977,553.964707 L963.094846,553.964707 L936.69647,504.659931 Z M789.427862,504.659931 L797.877228,553.964707 L880.079097,553.964707 L862.699435,504.659931 L789.427862,504.659931 Z M788.702401,504.659931 L715.430828,504.659931 L714.86148,553.964707 L797.063348,553.964707 L788.702401,504.659931 Z M714.705367,504.659931 L641.433794,504.659931 L631.845731,553.964707 L714.0476,553.964707 L714.705367,504.659931 Z M640.708333,504.659931 L567.436759,504.659931 L548.829982,553.964707 L631.031851,553.964707 L640.708333,504.659931 Z M493.439725,504.659931 L465.814233,553.964707 L548.016102,553.964707 L566.711298,504.659931 L493.439725,504.659931 Z M419.442691,504.659931 L382.798485,553.964707 L465.000354,553.964707 L492.714264,504.659931 L419.442691,504.659931 Z M418.71723,504.659931 L345.445657,504.659931 L299.782736,553.964707 L381.984605,553.964707 L418.71723,504.659931 Z M271.448622,504.659931 L216.766987,553.964707 L298.968856,553.964707 L344.720196,504.659931 L271.448622,504.659931 Z M216.211373,554.452873 L158.658944,603.757648 L250.350282,603.757648 L298.50398,554.452873 L216.211373,554.452873 Z M299.318758,554.452873 L251.258117,603.757648 L342.949455,603.757648 L381.611365,554.452873 L299.318758,554.452873 Z M343.85729,603.757648 L435.548628,603.757648 L464.718749,554.452873 L382.426143,554.452873 L343.85729,603.757648 Z M436.456463,603.757648 L528.147801,603.757648 L547.826134,554.452873 L465.533528,554.452873 L436.456463,603.757648 Z M529.055636,603.757648 L620.746974,603.757648 L630.933519,554.452873 L548.640913,554.452873 L529.055636,603.757648 Z M631.748297,554.452873 L621.654809,603.757648 L713.346147,603.757648 L714.040904,554.452873 L631.748297,554.452873 Z M714.253982,603.757648 L805.945319,603.757648 L797.148289,554.452873 L714.855682,554.452873 L714.253982,603.757648 Z M806.853154,603.757648 L898.544492,603.757648 L880.255674,554.452873 L797.963067,554.452873 L806.853154,603.757648 Z M899.452327,603.757648 L991.143665,603.757648 L963.363059,554.452873 L881.070452,554.452873 L899.452327,603.757648 Z M964.177837,554.452873 L992.0515,603.757648 L1083.74284,603.757648 L1046.47044,554.452873 L964.177837,554.452873 Z M1047.28522,554.452873 L1084.65067,603.757648 L1176.34201,603.757648 L1129.57783,554.452873 L1047.28522,554.452873 Z M1130.39261,554.452873 L1177.24985,603.757648 L1268.94118,603.757648 L1212.68521,554.452873 L1130.39261,554.452873 Z M1177.72533,604.245814 L1226.91558,653.550589 L1328.56946,653.550589 L1269.51204,604.245814 L1177.72533,604.245814 Z M1176.81655,604.245814 L1085.02984,604.245814 L1124.25523,653.550589 L1225.90911,653.550589 L1176.81655,604.245814 Z M992.334343,604.245814 L1021.59487,653.550589 L1123.24875,653.550589 L1084.12106,604.245814 L992.334343,604.245814 Z M991.425563,604.245814 L899.63885,604.245814 L918.93452,653.550589 L1020.5884,653.550589 L991.425563,604.245814 Z M898.730071,604.245814 L806.943357,604.245814 L816.274165,653.550589 L917.928046,653.550589 L898.730071,604.245814 Z M806.034578,604.245814 L714.247864,604.245814 L713.613811,653.550589 L815.267691,653.550589 L806.034578,604.245814 Z M713.339085,604.245814 L621.552371,604.245814 L610.953456,653.550589 L712.607337,653.550589 L713.339085,604.245814 Z M620.643592,604.245814 L528.856878,604.245814 L508.293102,653.550589 L609.946982,653.550589 L620.643592,604.245814 Z M436.161385,604.245814 L405.632747,653.550589 L507.286628,653.550589 L527.948099,604.245814 L436.161385,604.245814 Z M343.465892,604.245814 L302.972393,653.550589 L404.626273,653.550589 L435.252606,604.245814 L343.465892,604.245814 Z M250.770399,604.245814 L200.312038,653.550589 L301.965919,653.550589 L342.557113,604.245814 L250.770399,604.245814 Z M158.074906,604.245814 L97.6516836,653.550589 L199.305564,653.550589 L249.86162,604.245814 L158.074906,604.245814 Z M97.039222,654.038756 L33.7452054,703.343531 L145.834702,703.343531 L198.793116,654.038756 L97.039222,654.038756 Z M199.80058,654.038756 L146.944499,703.343531 L259.033996,703.343531 L301.554475,654.038756 L199.80058,654.038756 Z M260.143793,703.343531 L372.233289,703.343531 L404.315833,654.038756 L302.561939,654.038756 L260.143793,703.343531 Z M373.343086,703.343531 L485.432583,703.343531 L507.077192,654.038756 L405.323297,654.038756 L373.343086,703.343531 Z M508.084656,654.038756 L486.54238,703.343531 L598.631877,703.343531 L609.83855,654.038756 L508.084656,654.038756 Z M610.846014,654.038756 L599.741674,703.343531 L711.83117,703.343531 L712.599909,654.038756 L610.846014,654.038756 Z M713.607373,654.038756 L712.940967,703.343531 L825.030464,703.343531 L815.361267,654.038756 L713.607373,654.038756 Z M816.368731,654.038756 L826.140261,703.343531 L938.229757,703.343531 L918.122626,654.038756 L816.368731,654.038756 Z M939.339554,703.343531 L1051.42905,703.343531 L1020.88398,654.038756 L919.13009,654.038756 L939.339554,703.343531 Z M1021.89145,654.038756 L1052.53885,703.343531 L1164.62834,703.343531 L1123.64534,654.038756 L1021.89145,654.038756 Z M1165.73814,703.343531 L1277.82764,703.343531 L1226.4067,654.038756 L1124.65281,654.038756 L1165.73814,703.343531 Z M1227.41417,654.038756 L1278.93744,703.343531 L1391.02693,703.343531 L1329.16806,654.038756 L1227.41417,654.038756 Z M1279.45912,703.831697 L1333.3154,753.136472 L1456.31359,753.136472 L1391.65326,703.831697 L1279.45912,703.831697 Z M1278.34828,703.831697 L1166.15413,703.831697 L1209.09941,753.136472 L1332.0976,753.136472 L1278.34828,703.831697 Z M1165.0433,703.831697 L1052.84915,703.831697 L1084.88342,753.136472 L1207.88161,753.136472 L1165.0433,703.831697 Z M1051.73832,703.831697 L939.544172,703.831697 L960.667431,753.136472 L1083.66562,753.136472 L1051.73832,703.831697 Z M826.23919,703.831697 L836.451441,753.136472 L959.449627,753.136472 L938.433339,703.831697 L826.23919,703.831697 Z M825.128357,703.831697 L712.934209,703.831697 L712.235451,753.136472 L835.233637,753.136472 L825.128357,703.831697 Z M711.823376,703.831697 L599.629227,703.831697 L588.019461,753.136472 L711.017647,753.136472 L711.823376,703.831697 Z M486.324246,703.831697 L463.80347,753.136472 L586.801657,753.136472 L598.518394,703.831697 L486.324246,703.831697 Z M373.019264,703.831697 L339.58748,753.136472 L462.585667,753.136472 L485.213413,703.831697 L373.019264,703.831697 Z M259.714283,703.831697 L215.37149,753.136472 L338.369676,753.136472 L371.908431,703.831697 L259.714283,703.831697 Z M146.409302,703.831697 L91.1554998,753.136472 L214.153686,753.136472 L258.60345,703.831697 L146.409302,703.831697 Z M33.1043201,703.831697 L-33.0604904,753.136472 L89.937696,753.136472 L145.298468,703.831697 L33.1043201,703.831697 Z M-33.7297994,753.624638 L-102.765404,802.929414 L31.6145459,802.929414 L89.3776766,753.624638 L-33.7297994,753.624638 Z M90.5965625,753.624638 L32.9450405,802.929414 L167.32499,802.929414 L213.704039,753.624638 L90.5965625,753.624638 Z M168.655485,802.929414 L303.035434,802.929414 L338.0304,753.624638 L214.922924,753.624638 L168.655485,802.929414 Z M304.365929,802.929414 L438.745879,802.929414 L462.356762,753.624638 L339.249286,753.624638 L304.365929,802.929414 Z M440.076373,802.929414 L574.456323,802.929414 L586.683124,753.624638 L463.575648,753.624638 L440.076373,802.929414 Z M575.786817,802.929414 L710.166767,802.929414 L711.009486,753.624638 L587.90201,753.624638 L575.786817,802.929414 Z M711.497262,802.929414 L845.877211,802.929414 L835.335848,753.624638 L712.228372,753.624638 L711.497262,802.929414 Z M847.207706,802.929414 L981.587655,802.929414 L959.66221,753.624638 L836.554734,753.624638 L847.207706,802.929414 Z M982.91815,802.929414 L1117.2981,802.929414 L1083.98857,753.624638 L960.881096,753.624638 L982.91815,802.929414 Z M1118.62859,802.929414 L1253.00854,802.929414 L1208.31493,753.624638 L1085.20746,753.624638 L1118.62859,802.929414 Z M1209.53382,753.624638 L1254.33904,802.929414 L1388.71899,802.929414 L1332.6413,753.624638 L1209.53382,753.624638 Z M1333.86018,753.624638 L1390.04948,802.929414 L1524.42943,802.929414 L1456.96766,753.624638 L1333.86018,753.624638 Z M1525.11124,803.41758 L1390.61736,803.41758 L1449.13968,852.722355 L1595.37446,852.722355 L1525.11124,803.41758 Z M1389.28574,803.41758 L1254.79186,803.41758 L1301.45702,852.722355 L1447.69181,852.722355 L1389.28574,803.41758 Z M1118.96636,803.41758 L1153.77437,852.722355 L1300.00915,852.722355 L1253.46024,803.41758 L1118.96636,803.41758 Z M1117.63474,803.41758 L983.140862,803.41758 L1006.09171,852.722355 L1152.3265,852.722355 L1117.63474,803.41758 Z M847.315362,803.41758 L858.409055,852.722355 L1004.64384,852.722355 L981.80924,803.41758 L847.315362,803.41758 Z M845.98374,803.41758 L711.489863,803.41758 L710.7264,852.722355 L856.961186,852.722355 L845.98374,803.41758 Z M575.664363,803.41758 L563.043744,852.722355 L709.27853,852.722355 L710.15824,803.41758 L575.664363,803.41758 Z M439.838863,803.41758 L415.361088,852.722355 L561.595875,852.722355 L574.33274,803.41758 L439.838863,803.41758 Z M304.013363,803.41758 L267.678432,852.722355 L413.913219,852.722355 L438.50724,803.41758 L304.013363,803.41758 Z M168.187863,803.41758 L119.995777,852.722355 L266.230563,852.722355 L302.681741,803.41758 L168.187863,803.41758 Z M32.3623634,803.41758 L-27.6868789,852.722355 L118.547908,852.722355 L166.856241,803.41758 L32.3623634,803.41758 Z M-103.463136,803.41758 L-175.369535,852.722355 L-29.1347481,852.722355 L31.0307409,803.41758 L-103.463136,803.41758 Z M421.9023,305.488166 L422.382675,305 L1017.92478,305 L1018.40562,305.488166 L421.9023,305.488166 Z" id="path-3"></path>
        <filter x="-0.7%" y="-2.6%" width="101.5%" height="105.2%" filterUnits="objectBoundingBox" id="filter-4">
            <feGaussianBlur stdDeviation="5" in="SourceGraphic"></feGaussianBlur>
        </filter>
    </defs>
    <g id="Symbols" stroke="none" stroke-width="1" fill="none" fill-rule="evenodd" opacity="0.300000012">
        <g id="Background" transform="translate(0.000000, -292.000000)">
            <g id="Bottom" filter="url(#filter-4)">
                <use stroke="url(#linearGradient-1)" xlink:href="#path-3"></use>
                <use stroke="url(#linearGradient-2)" xlink:href="#path-3"></use>
            </g>
        </g>
    </g>
</svg>