<?xml version="1.0" encoding="UTF-8"?>
<svg width="66px" height="81px" viewBox="0 0 66 81" version="1.1" xmlns="http://www.w3.org/2000/svg" xmlns:xlink="http://www.w3.org/1999/xlink">
    <!-- Generator: sketchtool 49.2 (51160) - http://www.bohemiancoding.com/sketch -->
    <title>D2F8B9CF-304E-420C-B3ED-2302875AE97D</title>
    <desc>Created with sketchtool.</desc>
    <defs>
        <linearGradient x1="100%" y1="22.6074219%" x2="0%" y2="65.8886719%" id="linearGradient-1">
            <stop stop-color="#A373FF" offset="0%"></stop>
            <stop stop-color="#5E51DB" offset="100%"></stop>
        </linearGradient>
        <path d="M47.7336929,26.2885307 C47.1928192,30.4352292 44.8490332,32.598724 41.6037909,33.3198889 C45.9307806,35.4833838 48.0942754,38.9089172 45.9307806,44.858528 C43.4067033,52.2504687 37.2768013,52.7913424 29.1636957,51.3490125 L27.1804921,59.2818268 L22.49292,57.839497 L24.4761236,50.0869738 C23.2140849,49.7263914 21.9520463,49.3658089 20.6900076,49.1855177 L18.706804,56.9380408 L14.0192319,55.6760021 L16.0024355,47.7431878 C14.9206881,47.3826053 13.8389407,47.2023141 12.576902,46.8417316 L6.447,45.2191105 L8.79078606,39.8103734 L12.2163195,40.7118296 C13.4783582,41.0724121 14.1995231,40.1709559 14.3798144,39.6300822 L17.4447654,27.1899869 C17.6250566,27.1899869 17.8053478,27.1899869 17.9856391,27.3702782 C17.8053478,27.3702782 17.6250566,27.1899869 17.4447654,27.1899869 L19.6082602,18.3557164 C19.6082602,17.273969 19.2476777,16.0119303 17.4447654,15.6513478 L14.0192319,14.7498917 L15.2812705,9.70173707 L21.771755,11.3243582 C22.6732112,11.5046494 23.7549586,11.8652319 24.836706,12.0455231 L26.8199096,4.293 L31.5074817,5.55503865 L29.5242782,13.1272705 C30.7863168,13.487853 32.0483554,13.6681442 33.3103941,14.0287267 L35.1133065,6.45649483 L39.8008786,7.71853348 L37.817675,15.4710566 C44.1278682,17.4542602 48.6351491,20.5192112 47.7336929,26.2885307 Z M24.836706,32.9593065 L22.3126287,43.4161981 C25.557871,44.1373631 35.4738889,47.3826053 36.9162188,41.4329945 C38.3585487,35.3030925 28.0819483,33.8607626 24.836706,32.9593065 Z M28.4425307,18.7162988 L26.0987447,28.2717343 C28.8031132,28.9928993 37.09651,31.6972678 38.3585487,26.2885307 C39.6205873,20.6995024 31.1468993,19.4374638 28.4425307,18.7162988 Z" id="path-2"></path>
        <filter x="-50.7%" y="-38.2%" width="201.4%" height="176.4%" filterUnits="objectBoundingBox" id="filter-3">
            <feOffset dx="0" dy="0" in="SourceAlpha" result="shadowOffsetOuter1"></feOffset>
            <feGaussianBlur stdDeviation="7" in="shadowOffsetOuter1" result="shadowBlurOuter1"></feGaussianBlur>
            <feColorMatrix values="0 0 0 0 0.757140113   0 0 0 0 0.670789931   0 0 0 0 1  0 0 0 0.169893569 0" type="matrix" in="shadowBlurOuter1"></feColorMatrix>
        </filter>
    </defs>
    <g id="Algorithm" stroke="none" stroke-width="1" fill="none" fill-rule="evenodd">
        <g id="02-Algorithm---Alert---Investment" transform="translate(-589.000000, -706.000000)" fill-rule="nonzero">
            <g id="Group-3" transform="translate(543.000000, 489.000000)">
                <g id="Group-6" transform="translate(49.000000, 226.000000)">
                    <path d="M47.7336929,36.2885307 C47.1928192,40.4352292 44.8490332,42.598724 41.6037909,43.3198889 C45.9307806,45.4833838 48.0942754,48.9089172 45.9307806,54.858528 C43.4067033,62.2504687 37.2768013,62.7913424 29.1636957,61.3490125 L27.1804921,69.2818268 L22.49292,67.839497 L24.4761236,60.0869738 C23.2140849,59.7263914 21.9520463,59.3658089 20.6900076,59.1855177 L18.706804,66.9380408 L14.0192319,65.6760021 L16.0024355,57.7431878 C14.9206881,57.3826053 13.8389407,57.2023141 12.576902,56.8417316 L6.447,55.2191105 L8.79078606,49.8103734 L12.2163195,50.7118296 C13.4783582,51.0724121 14.1995231,50.1709559 14.3798144,49.6300822 L17.4447654,37.1899869 C17.6250566,37.1899869 17.8053478,37.1899869 17.9856391,37.3702782 C17.8053478,37.3702782 17.6250566,37.1899869 17.4447654,37.1899869 L19.6082602,28.3557164 C19.6082602,27.273969 19.2476777,26.0119303 17.4447654,25.6513478 L14.0192319,24.7498917 L15.2812705,19.7017371 L21.771755,21.3243582 C22.6732112,21.5046494 23.7549586,21.8652319 24.836706,22.0455231 L26.8199096,14.293 L31.5074817,15.5550386 L29.5242782,23.1272705 C30.7863168,23.487853 32.0483554,23.6681442 33.3103941,24.0287267 L35.1133065,16.4564948 L39.8008786,17.7185335 L37.817675,25.4710566 C44.1278682,27.4542602 48.6351491,30.5192112 47.7336929,36.2885307 Z M24.836706,42.9593065 L22.3126287,53.4161981 C25.557871,54.1373631 35.4738889,57.3826053 36.9162188,51.4329945 C38.3585487,45.3030925 28.0819483,43.8607626 24.836706,42.9593065 Z M28.4425307,28.7162988 L26.0987447,38.2717343 C28.8031132,38.9928993 37.09651,41.6972678 38.3585487,36.2885307 C39.6205873,30.6995024 31.1468993,29.4374638 28.4425307,28.7162988 Z" id="Combined-Shape" fill="url(#linearGradient-1)" opacity="0.100000001" transform="translate(27.147777, 41.787413) rotate(-14.000000) translate(-27.147777, -41.787413) "></path>
                    <path d="M47.7336929,31.2885307 C47.1928192,35.4352292 44.8490332,37.598724 41.6037909,38.3198889 C45.9307806,40.4833838 48.0942754,43.9089172 45.9307806,49.858528 C43.4067033,57.2504687 37.2768013,57.7913424 29.1636957,56.3490125 L27.1804921,64.2818268 L22.49292,62.839497 L24.4761236,55.0869738 C23.2140849,54.7263914 21.9520463,54.3658089 20.6900076,54.1855177 L18.706804,61.9380408 L14.0192319,60.6760021 L16.0024355,52.7431878 C14.9206881,52.3826053 13.8389407,52.2023141 12.576902,51.8417316 L6.447,50.2191105 L8.79078606,44.8103734 L12.2163195,45.7118296 C13.4783582,46.0724121 14.1995231,45.1709559 14.3798144,44.6300822 L17.4447654,32.1899869 C17.6250566,32.1899869 17.8053478,32.1899869 17.9856391,32.3702782 C17.8053478,32.3702782 17.6250566,32.1899869 17.4447654,32.1899869 L19.6082602,23.3557164 C19.6082602,22.273969 19.2476777,21.0119303 17.4447654,20.6513478 L14.0192319,19.7498917 L15.2812705,14.7017371 L21.771755,16.3243582 C22.6732112,16.5046494 23.7549586,16.8652319 24.836706,17.0455231 L26.8199096,9.293 L31.5074817,10.5550386 L29.5242782,18.1272705 C30.7863168,18.487853 32.0483554,18.6681442 33.3103941,19.0287267 L35.1133065,11.4564948 L39.8008786,12.7185335 L37.817675,20.4710566 C44.1278682,22.4542602 48.6351491,25.5192112 47.7336929,31.2885307 Z M24.836706,37.9593065 L22.3126287,48.4161981 C25.557871,49.1373631 35.4738889,52.3826053 36.9162188,46.4329945 C38.3585487,40.3030925 28.0819483,38.8607626 24.836706,37.9593065 Z M28.4425307,23.7162988 L26.0987447,33.2717343 C28.8031132,33.9928993 37.09651,36.6972678 38.3585487,31.2885307 C39.6205873,25.6995024 31.1468993,24.4374638 28.4425307,23.7162988 Z" id="Combined-Shape-Copy-2" fill="url(#linearGradient-1)" opacity="0.200000003" transform="translate(27.147777, 36.787413) rotate(-14.000000) translate(-27.147777, -36.787413) "></path>
                    <g id="Combined-Shape-Copy" transform="translate(27.147777, 31.787413) rotate(-14.000000) translate(-27.147777, -31.787413) ">
                        <use fill="black" fill-opacity="1" filter="url(#filter-3)" xlink:href="#path-2"></use>
                        <use fill="url(#linearGradient-1)" fill-rule="evenodd" xlink:href="#path-2"></use>
                    </g>
                </g>
            </g>
        </g>
    </g>
</svg>