<?xml version="1.0" encoding="UTF-8"?>
<svg width="232px" height="230px" viewBox="0 0 232 230" version="1.1" xmlns="http://www.w3.org/2000/svg" xmlns:xlink="http://www.w3.org/1999/xlink">
    <!-- Generator: sketchtool 49.2 (51160) - http://www.bohemiancoding.com/sketch -->
    <title>0BFE58B8-4D76-4943-BE0E-BBCC4F660124</title>
    <desc>Created with sketchtool.</desc>
    <defs>
        <linearGradient x1="100%" y1="22.6074219%" x2="0%" y2="65.8886719%" id="linearGradient-1">
            <stop stop-color="#19B391" offset="0%"></stop>
            <stop stop-color="#8E89BE" offset="100%"></stop>
        </linearGradient>
        <polyline id="path-2" points="15.7 52.3333333 16.4554203 50.7063903 22.3099275 50.7063903 25.4260362 51.5198618 30.2418406 51.5198618 34.7743623 47.4525043 39.118029 42.5716753 43.7449783 40.6735751 48.3719275 40.6735751 52.8100217 29.2849741 57.436971 31.4542314 61.8750652 19.5233161 66.407587 21.1502591 70.9401087 12.2020725 75.567058 19.5233161 80.0995797 15.4559585 84.4432464 2.71157168 88.8813406 2.71157168 93.5082899 0 97.9463841 8.94818653 102.573333 0"></polyline>
        <filter x="-13.2%" y="-22.0%" width="126.5%" height="143.9%" filterUnits="objectBoundingBox" id="filter-3">
            <feMorphology radius="1" operator="dilate" in="SourceAlpha" result="shadowSpreadOuter1"></feMorphology>
            <feOffset dx="0" dy="0" in="shadowSpreadOuter1" result="shadowOffsetOuter1"></feOffset>
            <feMorphology radius="1" operator="erode" in="SourceAlpha" result="shadowInner"></feMorphology>
            <feOffset dx="0" dy="0" in="shadowInner" result="shadowInner"></feOffset>
            <feComposite in="shadowOffsetOuter1" in2="shadowInner" operator="out" result="shadowOffsetOuter1"></feComposite>
            <feGaussianBlur stdDeviation="3.5" in="shadowOffsetOuter1" result="shadowBlurOuter1"></feGaussianBlur>
            <feColorMatrix values="0 0 0 0 0.00784313725   0 0 0 0 0.560784314   0 0 0 0 1  0 0 0 1 0" type="matrix" in="shadowBlurOuter1"></feColorMatrix>
        </filter>
        <linearGradient x1="100%" y1="22.6074219%" x2="0%" y2="65.8886719%" id="linearGradient-4">
            <stop stop-color="#8750F2" offset="0%"></stop>
            <stop stop-color="#4230EC" offset="100%"></stop>
        </linearGradient>
        <radialGradient cx="23.8544034%" cy="31.3268229%" fx="23.8544034%" fy="31.3268229%" r="157.257605%" gradientTransform="translate(0.238544,0.313268),scale(0.611570,1.000000),rotate(150.892867),translate(-0.238544,-0.313268)" id="radialGradient-5">
            <stop stop-color="#5626C4" offset="0%"></stop>
            <stop stop-color="#2B0558" offset="100%"></stop>
        </radialGradient>
        <polyline id="path-6" points="15.7 52.3333333 16.4554203 50.7063903 22.3099275 50.7063903 25.4260362 51.5198618 30.2418406 51.5198618 34.7743623 47.4525043 39.118029 42.5716753 43.7449783 40.6735751 48.3719275 40.6735751 52.8100217 29.2849741 57.436971 31.4542314 61.8750652 19.5233161 66.407587 21.1502591 70.9401087 12.2020725 75.567058 19.5233161 80.0995797 15.4559585 84.4432464 2.71157168 88.8813406 2.71157168 93.5082899 0 97.9463841 8.94818653 102.573333 0"></polyline>
        <filter x="-13.2%" y="-22.0%" width="126.5%" height="143.9%" filterUnits="objectBoundingBox" id="filter-7">
            <feMorphology radius="1" operator="dilate" in="SourceAlpha" result="shadowSpreadOuter1"></feMorphology>
            <feOffset dx="0" dy="0" in="shadowSpreadOuter1" result="shadowOffsetOuter1"></feOffset>
            <feMorphology radius="1" operator="erode" in="SourceAlpha" result="shadowInner"></feMorphology>
            <feOffset dx="0" dy="0" in="shadowInner" result="shadowInner"></feOffset>
            <feComposite in="shadowOffsetOuter1" in2="shadowInner" operator="out" result="shadowOffsetOuter1"></feComposite>
            <feGaussianBlur stdDeviation="3.5" in="shadowOffsetOuter1" result="shadowBlurOuter1"></feGaussianBlur>
            <feColorMatrix values="0 0 0 0 0.00784313725   0 0 0 0 0.560784314   0 0 0 0 1  0 0 0 1 0" type="matrix" in="shadowBlurOuter1"></feColorMatrix>
        </filter>
        <filter x="-52.6%" y="-58.4%" width="205.1%" height="210.9%" filterUnits="objectBoundingBox" id="filter-8">
            <feOffset dx="0" dy="0" in="SourceAlpha" result="shadowOffsetOuter1"></feOffset>
            <feGaussianBlur stdDeviation="24" in="shadowOffsetOuter1" result="shadowBlurOuter1"></feGaussianBlur>
            <feColorMatrix values="0 0 0 0 0.541176471   0 0 0 0 0.415686275   0 0 0 0 0.894117647  0 0 0 0.400000006 0" type="matrix" in="shadowBlurOuter1" result="shadowMatrixOuter1"></feColorMatrix>
            <feMerge>
                <feMergeNode in="shadowMatrixOuter1"></feMergeNode>
                <feMergeNode in="SourceGraphic"></feMergeNode>
            </feMerge>
        </filter>
        <polyline id="path-9" points="15.7 52.3333333 16.4554203 50.7063903 22.3099275 50.7063903 25.4260362 51.5198618 30.2418406 51.5198618 34.7743623 47.4525043 39.118029 42.5716753 43.7449783 40.6735751 48.3719275 40.6735751 52.8100217 29.2849741 57.436971 31.4542314 61.8750652 19.5233161 66.407587 21.1502591 70.9401087 12.2020725 75.567058 19.5233161 80.0995797 15.4559585 84.4432464 2.71157168 88.8813406 2.71157168 93.5082899 0 97.9463841 8.94818653 102.573333 0"></polyline>
        <filter x="-13.2%" y="-22.0%" width="126.5%" height="143.9%" filterUnits="objectBoundingBox" id="filter-10">
            <feMorphology radius="1" operator="dilate" in="SourceAlpha" result="shadowSpreadOuter1"></feMorphology>
            <feOffset dx="0" dy="0" in="shadowSpreadOuter1" result="shadowOffsetOuter1"></feOffset>
            <feMorphology radius="1" operator="erode" in="SourceAlpha" result="shadowInner"></feMorphology>
            <feOffset dx="0" dy="0" in="shadowInner" result="shadowInner"></feOffset>
            <feComposite in="shadowOffsetOuter1" in2="shadowInner" operator="out" result="shadowOffsetOuter1"></feComposite>
            <feGaussianBlur stdDeviation="3.5" in="shadowOffsetOuter1" result="shadowBlurOuter1"></feGaussianBlur>
            <feColorMatrix values="0 0 0 0 0.00784313725   0 0 0 0 0.560784314   0 0 0 0 1  0 0 0 1 0" type="matrix" in="shadowBlurOuter1"></feColorMatrix>
        </filter>
    </defs>
    <g id="For-Quants" stroke="none" stroke-width="1" fill="none" fill-rule="evenodd">
        <g transform="translate(-298.000000, -514.000000)" id="Group-5">
            <g transform="translate(346.000000, 210.000000)">
                <g id="Group-3" transform="translate(0.000000, 329.000000)">
                    <g id="open-book" opacity="0.100000001" transform="translate(20.933333, 0.000000)">
                        <g id="Path-7">
                            <use fill="black" fill-opacity="1" filter="url(#filter-3)" xlink:href="#path-2"></use>
                            <use stroke="url(#linearGradient-1)" stroke-width="2" xlink:href="#path-2"></use>
                        </g>
                        <path d="M131.374758,136.066667 L4.6919082,136.066667 C2.10052917,136.066667 0,133.978137 0,131.401562 L0,59.0917718 C0,56.5151963 2.10052917,54.4266667 4.6919082,54.4266667 L131.374758,54.4266667 C133.966138,54.4266667 136.066667,56.5151963 136.066667,59.0917718 L136.066667,131.401562 C136.066667,133.978137 133.966138,136.066667 131.374758,136.066667 Z" id="Shape" fill="url(#linearGradient-4)" fill-rule="nonzero"></path>
                        <path d="M129.534062,58.6133333 L7.57874037,58.6133333 C6.28355921,58.6133333 5.23333333,59.6643475 5.23333333,60.9605007 L5.23333333,129.025164 C5.23333333,130.321318 6.28355921,131.372332 7.57874037,131.372332 L59.1753042,131.372332 C60.4704853,131.372332 61.5207112,132.423346 61.5207112,133.719499 C61.5207112,135.015653 62.5709371,136.066667 63.8661183,136.066667 L73.2472151,136.066667 C74.5423962,136.066667 75.5926221,135.015653 75.5926221,133.719499 C75.5926221,132.423346 76.642848,131.372332 77.9380292,131.372332 L129.534593,131.372332 C130.829774,131.372332 131.88,130.321318 131.88,129.025164 L131.88,60.9605007 C131.879469,59.6640816 130.829243,58.6133333 129.534062,58.6133333 Z" id="Shape" fill="url(#radialGradient-5)" fill-rule="nonzero"></path>
                        <path d="M124.302027,126.646667 L11.7646396,126.646667 C10.4698822,126.646667 9.42,125.615532 9.42,124.343896 L9.42,115.133333 L126.646667,115.133333 L126.646667,124.343896 C126.646667,125.615532 125.596784,126.646667 124.302027,126.646667 Z" id="Shape" fill="#AFB9D2" fill-rule="nonzero"></path>
                        <path d="M89.1342077,45.0066667 C77.2813745,45.0066667 71.5429969,47.4436726 69.2695306,48.7975354 C68.5030325,49.2540275 67.5636341,49.2540275 66.7971361,48.7975354 C64.5239354,47.4436726 58.7852922,45.0066667 46.932459,45.0066667 C32.9100059,45.0066667 16.6916394,48.1409808 11.2823301,49.2751981 C10.1955282,49.5030472 9.42,50.4549324 9.42,51.5613633 L9.42,116.974689 C9.42,118.452665 10.768941,119.562536 12.2217285,119.265618 C18.3887713,118.005435 33.6464921,115.191327 46.932459,115.191327 C58.7852922,115.191327 64.5236698,117.628333 66.7971361,118.982196 C67.5532761,119.432601 68.5133906,119.432601 69.2695306,118.982196 C71.5427313,117.628068 77.2811089,115.191327 89.1342077,115.191327 C102.42044,115.191327 117.678161,118.005435 123.844938,119.265618 C125.297991,119.562536 126.646667,118.452665 126.646667,116.974689 L126.646667,51.5616279 C126.646667,50.455197 125.870873,49.5033118 124.784337,49.2754628 C119.375027,48.1412454 103.156661,45.0066667 89.1342077,45.0066667 Z" id="Shape" fill="#E4EAF8" fill-rule="nonzero"></path>
                        <g id="Group" transform="translate(18.840000, 55.473333)" fill="#707487" fill-rule="nonzero">
                            <path d="M39.8566503,13.6911607 C39.7082768,13.6911607 39.558052,13.6774138 39.4075627,13.6480693 C38.0190412,13.3768316 36.518909,13.1603173 34.9523923,13.0043424 C33.6688695,12.875597 32.7339316,11.7327503 32.8616756,10.4495262 C32.9915354,9.16735948 34.1203373,8.22754454 35.4176131,8.35972667 C37.1274782,8.53077034 38.7714876,8.76869818 40.3012416,9.06742979 C41.5667798,9.31487474 42.3919583,10.5396744 42.1457271,11.8046574 C41.9291178,12.918424 40.9510697,13.6911607 39.8566503,13.6911607 Z" id="Shape"></path>
                            <path d="M2.49642943,5.79116351 C1.37450405,5.79116351 0.382967455,4.97982959 0.195979892,3.83698289 C-0.0137529749,2.56539079 0.845807957,1.36411959 2.11795814,1.15474309 C4.29780466,0.79600079 6.68711957,0.433293024 9.19730197,0.102044605 C10.4808248,-0.0766656357 11.6482408,0.832483058 11.8172437,2.10989117 C11.9862466,3.38729928 11.0875426,4.55975478 9.80851591,4.72868354 C7.35308093,5.05332285 5.01348832,5.40889278 2.87966136,5.76102598 C2.74953706,5.78058893 2.62205756,5.79116351 2.49642943,5.79116351 Z" id="Shape"></path>
                            <path d="M2.49642943,24.4605676 C1.37238821,24.4605676 0.382967455,23.6492337 0.195979892,22.506387 C-0.0137529749,21.2347949 0.847923799,20.0335237 2.12033846,19.8241472 C5.35572581,19.291982 8.53186957,18.8372754 11.5596399,18.4727171 C12.8251781,18.3291673 14.0015864,19.2306495 14.1563073,20.5099081 C14.3089125,21.7896955 13.3969844,22.9518408 12.1158419,23.1054364 C9.15630753,23.4623282 6.04866416,23.9075176 2.87728104,24.429637 C2.74953706,24.4502574 2.62205756,24.4605676 2.49642943,24.4605676 Z" id="Shape"></path>
                            <path d="M2.49642943,43.1302361 C1.37450405,43.1302361 0.382967455,42.320224 0.195979892,41.177113 C-0.0137529749,39.9055209 0.845807957,38.7042497 2.11795814,38.4935513 C3.60460183,38.2484857 5.18460706,38.00342 6.83284821,37.7665496 C8.1370005,37.5796441 9.29304384,38.4694942 9.47791556,39.7434656 C9.66040695,41.0198162 8.77572039,42.2025819 7.49907405,42.3860507 C5.88257054,42.6184269 4.33430294,42.8589984 2.87992584,43.0993055 C2.74953706,43.1196615 2.62205756,43.1302361 2.49642943,43.1302361 Z" id="Shape"></path>
                            <path d="M39.8566503,32.3608292 C39.7082768,32.3608292 39.558052,32.3470823 39.4075627,32.3177378 C36.1494301,31.6814131 32.3737095,31.359153 28.180639,31.359153 C26.8902397,31.359153 25.8458071,30.3141211 25.8458071,29.0253453 C25.8458071,27.7365696 26.8899752,26.6915376 28.180639,26.6915376 C32.6723077,26.6915376 36.7511227,27.0436708 40.3009771,27.7365696 C41.5665153,27.9840145 42.3916938,29.2101359 42.1454627,30.4748546 C41.9291178,31.5880925 40.9510697,32.3608292 39.8566503,32.3608292 Z" id="Shape"></path>
                            <path d="M39.8566503,51.0304977 C39.7082768,51.0304977 39.558052,51.0167508 39.4075627,50.9874063 C37.3737093,50.5908599 35.1190149,50.3127487 32.7066902,50.1636473 C31.4184067,50.0840736 30.4403586,48.9763874 30.5202316,47.6899909 C30.6022205,46.4046519 31.7307579,45.4098491 32.9941803,45.505549 C35.6093613,45.6673399 38.069557,45.9705657 40.3015061,46.4070311 C41.5670443,46.6544761 42.3922228,47.8792757 42.1459916,49.1442587 C41.9291178,50.257761 40.9510697,51.0304977 39.8566503,51.0304977 Z" id="Shape"></path>
                            <path d="M58.5300164,13.6911607 C57.435597,13.6911607 56.4572844,12.9186884 56.2409395,11.8041286 C55.9947084,10.5391456 56.8198869,9.31434601 58.0854251,9.06690107 C59.615179,8.76843381 61.2591885,8.53024162 62.9690535,8.35919794 C64.2687097,8.22939509 65.3972471,9.16735948 65.524991,10.4489974 C65.652735,11.7319572 64.7177972,12.8748039 63.4342744,13.0038136 C61.8680221,13.1597886 60.3676254,13.3763029 58.9791039,13.6475406 C58.8286147,13.6774138 58.6781254,13.6911607 58.5300164,13.6911607 Z" id="Shape"></path>
                            <path d="M95.8902372,5.79116351 C95.7648736,5.79116351 95.6371296,5.7808533 95.5070053,5.76049725 C93.3729139,5.40836405 91.0335857,5.05279412 88.5781508,4.72815481 C87.2991241,4.55949041 86.4006846,3.38677055 86.569423,2.10936244 C86.7381614,0.833011787 87.9031971,-0.0750794502 89.1893647,0.101515876 C91.6998116,0.433293024 94.0891265,0.795472062 96.2687085,1.15421436 C97.5408587,1.36385522 98.4006841,2.56486206 98.1906868,3.83645416 C98.0036992,4.97956522 97.0118981,5.79116351 95.8902372,5.79116351 Z" id="Shape"></path>
                            <path d="M95.8902372,24.4605676 C95.7648736,24.4605676 95.6371296,24.4502574 95.5093856,24.4299014 C92.3380025,23.9080463 89.2300947,23.4625925 86.2708247,23.1057008 C84.9894177,22.9518408 84.0772252,21.7894311 84.2303593,20.5099081 C84.3853448,19.2301207 85.5710099,18.3254662 86.8270268,18.4727171 C89.8547971,18.8372754 93.0309409,19.2922463 96.2663282,19.8241472 C97.5384784,20.0337881 98.4006841,21.2347949 98.1906868,22.506387 C98.0036992,23.6492337 97.014014,24.4605676 95.8902372,24.4605676 Z" id="Shape"></path>
                            <path d="M95.8902372,43.1302361 C95.7648736,43.1302361 95.6371296,43.1199259 95.5070053,43.0995699 C94.0523637,42.8592627 92.5043606,42.6186913 90.8878571,42.3863151 C89.6109463,42.2028463 88.7265242,41.0198162 88.9087511,39.7437299 C89.0933584,38.4710804 90.2538978,37.5923336 91.5538185,37.766814 C93.2020596,38.0039487 94.7823293,38.24875 96.2687085,38.4938157 C97.5408587,38.7047784 98.4006841,39.9057852 98.1906868,41.1773773 C98.0036992,42.3199597 97.0118981,43.1302361 95.8902372,43.1302361 Z" id="Shape"></path>
                            <path d="M58.5300164,32.3608292 C57.435597,32.3608292 56.4572844,31.5883568 56.2409395,30.4748546 C55.9947084,29.2098716 56.8198869,27.9840145 58.0854251,27.7365696 C61.6355439,27.0436708 65.7143589,26.6915376 70.2060276,26.6915376 C71.496427,26.6915376 72.5408596,27.7365696 72.5408596,29.0253453 C72.5408596,30.3141211 71.4966914,31.359153 70.2060276,31.359153 C66.0132216,31.359153 62.2372366,31.6814131 58.9791039,32.3174735 C58.8286147,32.3470823 58.6781254,32.3608292 58.5300164,32.3608292 Z" id="Shape"></path>
                            <path d="M58.5300164,51.0304977 C57.435597,51.0304977 56.4572844,50.2580253 56.2409395,49.1434656 C55.9947084,47.8784826 56.8198869,46.653683 58.0854251,46.406238 C60.3173742,45.9697726 62.7775698,45.6668112 65.3927509,45.5047559 C66.6900267,45.4101135 67.7868265,46.4038588 67.8666995,47.6891978 C67.9463081,48.9755943 66.9685244,50.0832805 65.680241,50.1628542 C63.2679163,50.31222 61.0132218,50.5903312 58.9793684,50.9866132 C58.8286147,51.0167508 58.6781254,51.0304977 58.5300164,51.0304977 Z" id="Shape"></path>
                        </g>
                        <g id="Group" transform="translate(18.840000, 53.380000)" fill="#7F8499" fill-rule="nonzero">
                            <path d="M2.49642943,16.6616428 C1.37238821,16.6616428 0.382967455,15.8441962 0.195979892,14.692739 C-0.0137529749,13.4115665 0.845807957,12.2012447 2.11795814,11.9902907 C10.9666751,10.5218699 18.9307055,9.69510076 25.7910596,9.53342265 C25.8095733,9.53235723 25.8275579,9.53235723 25.8458071,9.53235723 C27.1113452,9.53235723 28.1507528,10.5495709 28.180639,11.8286126 C28.2105253,13.1270983 27.188838,14.2039757 25.9005545,14.2340739 C19.3501712,14.3890931 11.390637,15.2179931 2.87939688,16.6312782 C2.74953706,16.6509886 2.62205756,16.6616428 2.49642943,16.6616428 Z" id="Shape"></path>
                            <path d="M39.8566503,5.81109708 C39.7082768,5.81109708 39.558052,5.79724657 39.4075627,5.76768105 C33.9695835,4.69639708 27.1843418,4.54617228 19.0243315,5.1936838 C17.7587933,5.28557663 16.6143871,4.32935847 16.5138846,3.03406908 C16.4133821,1.73877969 17.3734456,0.607032903 18.6596132,0.505018542 C27.262099,-0.176852903 34.4393005,-0.00132427718 40.3012416,1.15253006 C41.5667798,1.40183931 42.3919583,2.63719859 42.1457271,3.91144585 C41.9291178,5.0325384 40.9510697,5.81109708 39.8566503,5.81109708 Z" id="Shape"></path>
                            <path d="M39.8566503,24.6214265 C39.7082768,24.6214265 39.558052,24.607576 39.4075627,24.5780105 C34.4850556,23.6079418 28.44988,23.3921934 21.3224007,23.8410033 C19.9886266,23.9211765 18.9262093,22.9351265 18.8463363,21.6414352 C18.7667277,20.3453468 19.7445113,19.2282496 21.0304145,19.14781 C28.5773595,18.6768926 34.9841299,18.9171457 40.3009771,19.9628595 C41.5665153,20.2121687 42.3916938,21.447528 42.1454627,22.7217753 C41.9291178,23.8428678 40.9510697,24.6214265 39.8566503,24.6214265 Z" id="Shape"></path>
                            <path d="M39.8566503,43.4314896 C39.7082768,43.4314896 39.558052,43.4176391 39.4075627,43.3880736 C33.4681289,42.2203687 25.9235643,42.1447236 16.7259978,43.0138433 C15.4125887,43.1366335 14.3023005,42.1849434 14.181433,40.8920512 C14.0629458,39.5994254 15.0044956,38.4535617 16.2882829,38.331837 C25.9579467,37.416904 33.9082241,37.5157221 40.3012416,38.7726562 C41.5667798,39.0219655 42.3919583,40.2573248 42.1457271,41.531572 C41.9291178,42.6529309 40.9510697,43.4314896 39.8566503,43.4314896 Z" id="Shape"></path>
                            <path d="M2.49642943,35.4719723 C1.37238821,35.4719723 0.382967455,34.6545256 0.195979892,33.5030685 C-0.0137529749,32.2218959 0.845807957,31.0115741 2.11795814,30.8006201 C8.00502484,29.8236262 13.5704835,29.1244416 18.661729,28.7203795 C19.943136,28.620496 21.0716734,29.5847049 21.1721759,30.8799942 C21.2726784,32.1752836 20.312615,33.3070304 19.0264473,33.4090448 C14.067442,33.8016536 8.63422344,34.4859222 2.87939688,35.441075 C2.74953706,35.461318 2.62205756,35.4719723 2.49642943,35.4719723 Z" id="Shape"></path>
                            <path d="M2.49642943,54.2820353 C1.37238821,54.2820353 0.382967455,53.4645887 0.195979892,52.3131315 C-0.0137529749,51.031959 0.845807957,49.8216372 2.12033846,49.6106832 C9.93837573,48.313263 17.1023533,47.5141949 23.4086212,47.2353201 C24.685532,47.2228014 25.7889438,48.184613 25.8436912,49.4809678 C25.9005545,50.7783881 24.9018769,51.8757749 23.6138579,51.9333078 C17.4919327,52.2041919 10.5152072,52.983816 2.87701656,54.2514044 C2.74953706,54.2716475 2.62205756,54.2820353 2.49642943,54.2820353 Z" id="Shape"></path>
                            <path d="M95.8902372,16.6616428 C95.7648736,16.6616428 95.6371296,16.6512549 95.5070053,16.6307455 C86.9957652,15.2174604 79.036231,14.3885604 72.4858477,14.2335412 C71.1975642,14.203443 70.1761414,13.1265655 70.2057632,11.8280799 C70.2356494,10.5306596 71.2684449,9.45751118 72.5953425,9.53288994 C79.4559612,9.69483441 87.4199916,10.5213372 96.2684441,11.989758 C97.5405942,12.2009783 98.4004196,13.4110338 98.1904223,14.6922063 C98.0036992,15.8439298 97.0118981,16.6616428 95.8902372,16.6616428 Z" id="Shape"></path>
                            <path d="M58.5300164,5.81109708 C57.435597,5.81109708 56.4572844,5.03280476 56.2409395,3.91091314 C55.9947084,2.63639952 56.8198869,1.40130659 58.0854251,1.15199735 C63.9473661,0.000540215054 71.1272125,-0.175254767 79.7270535,0.50448583 C81.0129566,0.606766547 81.9727556,1.73851333 81.872782,3.03353637 C81.7728085,4.3285594 80.6278733,5.28610934 79.3623352,5.19315109 C71.1975642,4.54563957 64.4144383,4.69613073 58.9791039,5.76714834 C58.8286147,5.79724657 58.6781254,5.81109708 58.5300164,5.81109708 Z" id="Shape"></path>
                            <path d="M58.5300164,24.6214265 C57.435597,24.6214265 56.4572844,23.8431342 56.2409395,22.7212426 C55.9947084,21.446729 56.8198869,20.211636 58.0854251,19.9623268 C63.4025367,18.9163466 69.8116875,18.6763599 77.3559877,19.1472773 C78.6418909,19.2274505 79.6202034,20.3445477 79.5403304,21.6409025 C79.4583415,22.936991 78.3274238,23.9174475 77.0640015,23.8404706 C69.9344064,23.3916607 63.8994952,23.6074091 58.9788395,24.5774778 C58.8286147,24.607576 58.6781254,24.6214265 58.5300164,24.6214265 Z" id="Shape"></path>
                            <path d="M58.5300164,43.4314896 C57.435597,43.4314896 56.4572844,42.6531973 56.2409395,41.5313057 C55.9947084,40.256792 56.8198869,39.0216991 58.0854251,38.7723899 C64.4784425,37.5173202 72.42872,37.4190349 82.0983837,38.3315706 C83.3819066,38.4532953 84.3237209,39.599159 84.2052337,40.8917848 C84.0843662,42.1844107 82.9716976,43.1339699 81.6606689,43.013577 C72.4654827,42.145789 64.9209181,42.2203687 58.9791039,43.3878072 C58.8286147,43.4176391 58.6781254,43.4314896 58.5300164,43.4314896 Z" id="Shape"></path>
                            <path d="M95.8902372,35.4719723 C95.7648736,35.4719723 95.6371296,35.4615844 95.5070053,35.441075 C89.7521787,34.4859222 84.3189602,33.8016536 79.3599548,33.4090448 C78.0740517,33.3067641 77.1142527,32.1750173 77.2142263,30.8799942 C77.3141998,29.5849712 78.4683918,28.6215614 79.7246732,28.7203795 C84.8159187,29.1244416 90.3816418,29.8236262 96.2684441,30.8006201 C97.5405942,31.0118405 98.4004196,32.2218959 98.1904223,33.5030685 C98.0036992,34.6542592 97.0118981,35.4719723 95.8902372,35.4719723 Z" id="Shape"></path>
                            <path d="M95.8902372,54.2820353 C95.7648736,54.2820353 95.6371296,54.2716475 95.5093856,54.251138 C87.8714594,52.9835497 80.8947339,52.2039256 74.7728087,51.9330415 C73.4845253,51.8757749 72.4858477,50.7778554 72.5429754,49.4807015 C72.5998387,48.184613 73.6762735,47.2257313 74.9780454,47.2350538 C81.2843134,47.5139285 88.4482909,48.3129966 96.2663282,49.6104169 C97.5408587,49.8216372 98.4006841,51.0316927 98.1906868,52.3128652 C98.0036992,53.4645887 97.014014,54.2820353 95.8902372,54.2820353 Z" id="Shape"></path>
                        </g>
                    </g>
                    <g id="open-book-copy" opacity="0.300000012" transform="translate(10.466667, 10.466667)">
                        <g id="Path-7">
                            <use fill="black" fill-opacity="1" filter="url(#filter-7)" xlink:href="#path-6"></use>
                            <use stroke="url(#linearGradient-1)" stroke-width="2" xlink:href="#path-6"></use>
                        </g>
                        <path d="M131.374758,136.066667 L4.6919082,136.066667 C2.10052917,136.066667 0,133.978137 0,131.401562 L0,59.0917718 C0,56.5151963 2.10052917,54.4266667 4.6919082,54.4266667 L131.374758,54.4266667 C133.966138,54.4266667 136.066667,56.5151963 136.066667,59.0917718 L136.066667,131.401562 C136.066667,133.978137 133.966138,136.066667 131.374758,136.066667 Z" id="Shape" fill="url(#linearGradient-4)" fill-rule="nonzero"></path>
                        <path d="M129.534062,58.6133333 L7.57874037,58.6133333 C6.28355921,58.6133333 5.23333333,59.6643475 5.23333333,60.9605007 L5.23333333,129.025164 C5.23333333,130.321318 6.28355921,131.372332 7.57874037,131.372332 L59.1753042,131.372332 C60.4704853,131.372332 61.5207112,132.423346 61.5207112,133.719499 C61.5207112,135.015653 62.5709371,136.066667 63.8661183,136.066667 L73.2472151,136.066667 C74.5423962,136.066667 75.5926221,135.015653 75.5926221,133.719499 C75.5926221,132.423346 76.642848,131.372332 77.9380292,131.372332 L129.534593,131.372332 C130.829774,131.372332 131.88,130.321318 131.88,129.025164 L131.88,60.9605007 C131.879469,59.6640816 130.829243,58.6133333 129.534062,58.6133333 Z" id="Shape" fill="url(#radialGradient-5)" fill-rule="nonzero"></path>
                        <path d="M124.302027,126.646667 L11.7646396,126.646667 C10.4698822,126.646667 9.42,125.615532 9.42,124.343896 L9.42,115.133333 L126.646667,115.133333 L126.646667,124.343896 C126.646667,125.615532 125.596784,126.646667 124.302027,126.646667 Z" id="Shape" fill="#AFB9D2" fill-rule="nonzero"></path>
                        <path d="M89.1342077,45.0066667 C77.2813745,45.0066667 71.5429969,47.4436726 69.2695306,48.7975354 C68.5030325,49.2540275 67.5636341,49.2540275 66.7971361,48.7975354 C64.5239354,47.4436726 58.7852922,45.0066667 46.932459,45.0066667 C32.9100059,45.0066667 16.6916394,48.1409808 11.2823301,49.2751981 C10.1955282,49.5030472 9.42,50.4549324 9.42,51.5613633 L9.42,116.974689 C9.42,118.452665 10.768941,119.562536 12.2217285,119.265618 C18.3887713,118.005435 33.6464921,115.191327 46.932459,115.191327 C58.7852922,115.191327 64.5236698,117.628333 66.7971361,118.982196 C67.5532761,119.432601 68.5133906,119.432601 69.2695306,118.982196 C71.5427313,117.628068 77.2811089,115.191327 89.1342077,115.191327 C102.42044,115.191327 117.678161,118.005435 123.844938,119.265618 C125.297991,119.562536 126.646667,118.452665 126.646667,116.974689 L126.646667,51.5616279 C126.646667,50.455197 125.870873,49.5033118 124.784337,49.2754628 C119.375027,48.1412454 103.156661,45.0066667 89.1342077,45.0066667 Z" id="Shape" fill="#E4EAF8" fill-rule="nonzero"></path>
                        <g id="Group" transform="translate(18.840000, 55.473333)" fill="#707487" fill-rule="nonzero">
                            <path d="M39.8566503,13.6911607 C39.7082768,13.6911607 39.558052,13.6774138 39.4075627,13.6480693 C38.0190412,13.3768316 36.518909,13.1603173 34.9523923,13.0043424 C33.6688695,12.875597 32.7339316,11.7327503 32.8616756,10.4495262 C32.9915354,9.16735948 34.1203373,8.22754454 35.4176131,8.35972667 C37.1274782,8.53077034 38.7714876,8.76869818 40.3012416,9.06742979 C41.5667798,9.31487474 42.3919583,10.5396744 42.1457271,11.8046574 C41.9291178,12.918424 40.9510697,13.6911607 39.8566503,13.6911607 Z" id="Shape"></path>
                            <path d="M2.49642943,5.79116351 C1.37450405,5.79116351 0.382967455,4.97982959 0.195979892,3.83698289 C-0.0137529749,2.56539079 0.845807957,1.36411959 2.11795814,1.15474309 C4.29780466,0.79600079 6.68711957,0.433293024 9.19730197,0.102044605 C10.4808248,-0.0766656357 11.6482408,0.832483058 11.8172437,2.10989117 C11.9862466,3.38729928 11.0875426,4.55975478 9.80851591,4.72868354 C7.35308093,5.05332285 5.01348832,5.40889278 2.87966136,5.76102598 C2.74953706,5.78058893 2.62205756,5.79116351 2.49642943,5.79116351 Z" id="Shape"></path>
                            <path d="M2.49642943,24.4605676 C1.37238821,24.4605676 0.382967455,23.6492337 0.195979892,22.506387 C-0.0137529749,21.2347949 0.847923799,20.0335237 2.12033846,19.8241472 C5.35572581,19.291982 8.53186957,18.8372754 11.5596399,18.4727171 C12.8251781,18.3291673 14.0015864,19.2306495 14.1563073,20.5099081 C14.3089125,21.7896955 13.3969844,22.9518408 12.1158419,23.1054364 C9.15630753,23.4623282 6.04866416,23.9075176 2.87728104,24.429637 C2.74953706,24.4502574 2.62205756,24.4605676 2.49642943,24.4605676 Z" id="Shape"></path>
                            <path d="M2.49642943,43.1302361 C1.37450405,43.1302361 0.382967455,42.320224 0.195979892,41.177113 C-0.0137529749,39.9055209 0.845807957,38.7042497 2.11795814,38.4935513 C3.60460183,38.2484857 5.18460706,38.00342 6.83284821,37.7665496 C8.1370005,37.5796441 9.29304384,38.4694942 9.47791556,39.7434656 C9.66040695,41.0198162 8.77572039,42.2025819 7.49907405,42.3860507 C5.88257054,42.6184269 4.33430294,42.8589984 2.87992584,43.0993055 C2.74953706,43.1196615 2.62205756,43.1302361 2.49642943,43.1302361 Z" id="Shape"></path>
                            <path d="M39.8566503,32.3608292 C39.7082768,32.3608292 39.558052,32.3470823 39.4075627,32.3177378 C36.1494301,31.6814131 32.3737095,31.359153 28.180639,31.359153 C26.8902397,31.359153 25.8458071,30.3141211 25.8458071,29.0253453 C25.8458071,27.7365696 26.8899752,26.6915376 28.180639,26.6915376 C32.6723077,26.6915376 36.7511227,27.0436708 40.3009771,27.7365696 C41.5665153,27.9840145 42.3916938,29.2101359 42.1454627,30.4748546 C41.9291178,31.5880925 40.9510697,32.3608292 39.8566503,32.3608292 Z" id="Shape"></path>
                            <path d="M39.8566503,51.0304977 C39.7082768,51.0304977 39.558052,51.0167508 39.4075627,50.9874063 C37.3737093,50.5908599 35.1190149,50.3127487 32.7066902,50.1636473 C31.4184067,50.0840736 30.4403586,48.9763874 30.5202316,47.6899909 C30.6022205,46.4046519 31.7307579,45.4098491 32.9941803,45.505549 C35.6093613,45.6673399 38.069557,45.9705657 40.3015061,46.4070311 C41.5670443,46.6544761 42.3922228,47.8792757 42.1459916,49.1442587 C41.9291178,50.257761 40.9510697,51.0304977 39.8566503,51.0304977 Z" id="Shape"></path>
                            <path d="M58.5300164,13.6911607 C57.435597,13.6911607 56.4572844,12.9186884 56.2409395,11.8041286 C55.9947084,10.5391456 56.8198869,9.31434601 58.0854251,9.06690107 C59.615179,8.76843381 61.2591885,8.53024162 62.9690535,8.35919794 C64.2687097,8.22939509 65.3972471,9.16735948 65.524991,10.4489974 C65.652735,11.7319572 64.7177972,12.8748039 63.4342744,13.0038136 C61.8680221,13.1597886 60.3676254,13.3763029 58.9791039,13.6475406 C58.8286147,13.6774138 58.6781254,13.6911607 58.5300164,13.6911607 Z" id="Shape"></path>
                            <path d="M95.8902372,5.79116351 C95.7648736,5.79116351 95.6371296,5.7808533 95.5070053,5.76049725 C93.3729139,5.40836405 91.0335857,5.05279412 88.5781508,4.72815481 C87.2991241,4.55949041 86.4006846,3.38677055 86.569423,2.10936244 C86.7381614,0.833011787 87.9031971,-0.0750794502 89.1893647,0.101515876 C91.6998116,0.433293024 94.0891265,0.795472062 96.2687085,1.15421436 C97.5408587,1.36385522 98.4006841,2.56486206 98.1906868,3.83645416 C98.0036992,4.97956522 97.0118981,5.79116351 95.8902372,5.79116351 Z" id="Shape"></path>
                            <path d="M95.8902372,24.4605676 C95.7648736,24.4605676 95.6371296,24.4502574 95.5093856,24.4299014 C92.3380025,23.9080463 89.2300947,23.4625925 86.2708247,23.1057008 C84.9894177,22.9518408 84.0772252,21.7894311 84.2303593,20.5099081 C84.3853448,19.2301207 85.5710099,18.3254662 86.8270268,18.4727171 C89.8547971,18.8372754 93.0309409,19.2922463 96.2663282,19.8241472 C97.5384784,20.0337881 98.4006841,21.2347949 98.1906868,22.506387 C98.0036992,23.6492337 97.014014,24.4605676 95.8902372,24.4605676 Z" id="Shape"></path>
                            <path d="M95.8902372,43.1302361 C95.7648736,43.1302361 95.6371296,43.1199259 95.5070053,43.0995699 C94.0523637,42.8592627 92.5043606,42.6186913 90.8878571,42.3863151 C89.6109463,42.2028463 88.7265242,41.0198162 88.9087511,39.7437299 C89.0933584,38.4710804 90.2538978,37.5923336 91.5538185,37.766814 C93.2020596,38.0039487 94.7823293,38.24875 96.2687085,38.4938157 C97.5408587,38.7047784 98.4006841,39.9057852 98.1906868,41.1773773 C98.0036992,42.3199597 97.0118981,43.1302361 95.8902372,43.1302361 Z" id="Shape"></path>
                            <path d="M58.5300164,32.3608292 C57.435597,32.3608292 56.4572844,31.5883568 56.2409395,30.4748546 C55.9947084,29.2098716 56.8198869,27.9840145 58.0854251,27.7365696 C61.6355439,27.0436708 65.7143589,26.6915376 70.2060276,26.6915376 C71.496427,26.6915376 72.5408596,27.7365696 72.5408596,29.0253453 C72.5408596,30.3141211 71.4966914,31.359153 70.2060276,31.359153 C66.0132216,31.359153 62.2372366,31.6814131 58.9791039,32.3174735 C58.8286147,32.3470823 58.6781254,32.3608292 58.5300164,32.3608292 Z" id="Shape"></path>
                            <path d="M58.5300164,51.0304977 C57.435597,51.0304977 56.4572844,50.2580253 56.2409395,49.1434656 C55.9947084,47.8784826 56.8198869,46.653683 58.0854251,46.406238 C60.3173742,45.9697726 62.7775698,45.6668112 65.3927509,45.5047559 C66.6900267,45.4101135 67.7868265,46.4038588 67.8666995,47.6891978 C67.9463081,48.9755943 66.9685244,50.0832805 65.680241,50.1628542 C63.2679163,50.31222 61.0132218,50.5903312 58.9793684,50.9866132 C58.8286147,51.0167508 58.6781254,51.0304977 58.5300164,51.0304977 Z" id="Shape"></path>
                        </g>
                        <g id="Group" transform="translate(18.840000, 53.380000)" fill="#7F8499" fill-rule="nonzero">
                            <path d="M2.49642943,16.6616428 C1.37238821,16.6616428 0.382967455,15.8441962 0.195979892,14.692739 C-0.0137529749,13.4115665 0.845807957,12.2012447 2.11795814,11.9902907 C10.9666751,10.5218699 18.9307055,9.69510076 25.7910596,9.53342265 C25.8095733,9.53235723 25.8275579,9.53235723 25.8458071,9.53235723 C27.1113452,9.53235723 28.1507528,10.5495709 28.180639,11.8286126 C28.2105253,13.1270983 27.188838,14.2039757 25.9005545,14.2340739 C19.3501712,14.3890931 11.390637,15.2179931 2.87939688,16.6312782 C2.74953706,16.6509886 2.62205756,16.6616428 2.49642943,16.6616428 Z" id="Shape"></path>
                            <path d="M39.8566503,5.81109708 C39.7082768,5.81109708 39.558052,5.79724657 39.4075627,5.76768105 C33.9695835,4.69639708 27.1843418,4.54617228 19.0243315,5.1936838 C17.7587933,5.28557663 16.6143871,4.32935847 16.5138846,3.03406908 C16.4133821,1.73877969 17.3734456,0.607032903 18.6596132,0.505018542 C27.262099,-0.176852903 34.4393005,-0.00132427718 40.3012416,1.15253006 C41.5667798,1.40183931 42.3919583,2.63719859 42.1457271,3.91144585 C41.9291178,5.0325384 40.9510697,5.81109708 39.8566503,5.81109708 Z" id="Shape"></path>
                            <path d="M39.8566503,24.6214265 C39.7082768,24.6214265 39.558052,24.607576 39.4075627,24.5780105 C34.4850556,23.6079418 28.44988,23.3921934 21.3224007,23.8410033 C19.9886266,23.9211765 18.9262093,22.9351265 18.8463363,21.6414352 C18.7667277,20.3453468 19.7445113,19.2282496 21.0304145,19.14781 C28.5773595,18.6768926 34.9841299,18.9171457 40.3009771,19.9628595 C41.5665153,20.2121687 42.3916938,21.447528 42.1454627,22.7217753 C41.9291178,23.8428678 40.9510697,24.6214265 39.8566503,24.6214265 Z" id="Shape"></path>
                            <path d="M39.8566503,43.4314896 C39.7082768,43.4314896 39.558052,43.4176391 39.4075627,43.3880736 C33.4681289,42.2203687 25.9235643,42.1447236 16.7259978,43.0138433 C15.4125887,43.1366335 14.3023005,42.1849434 14.181433,40.8920512 C14.0629458,39.5994254 15.0044956,38.4535617 16.2882829,38.331837 C25.9579467,37.416904 33.9082241,37.5157221 40.3012416,38.7726562 C41.5667798,39.0219655 42.3919583,40.2573248 42.1457271,41.531572 C41.9291178,42.6529309 40.9510697,43.4314896 39.8566503,43.4314896 Z" id="Shape"></path>
                            <path d="M2.49642943,35.4719723 C1.37238821,35.4719723 0.382967455,34.6545256 0.195979892,33.5030685 C-0.0137529749,32.2218959 0.845807957,31.0115741 2.11795814,30.8006201 C8.00502484,29.8236262 13.5704835,29.1244416 18.661729,28.7203795 C19.943136,28.620496 21.0716734,29.5847049 21.1721759,30.8799942 C21.2726784,32.1752836 20.312615,33.3070304 19.0264473,33.4090448 C14.067442,33.8016536 8.63422344,34.4859222 2.87939688,35.441075 C2.74953706,35.461318 2.62205756,35.4719723 2.49642943,35.4719723 Z" id="Shape"></path>
                            <path d="M2.49642943,54.2820353 C1.37238821,54.2820353 0.382967455,53.4645887 0.195979892,52.3131315 C-0.0137529749,51.031959 0.845807957,49.8216372 2.12033846,49.6106832 C9.93837573,48.313263 17.1023533,47.5141949 23.4086212,47.2353201 C24.685532,47.2228014 25.7889438,48.184613 25.8436912,49.4809678 C25.9005545,50.7783881 24.9018769,51.8757749 23.6138579,51.9333078 C17.4919327,52.2041919 10.5152072,52.983816 2.87701656,54.2514044 C2.74953706,54.2716475 2.62205756,54.2820353 2.49642943,54.2820353 Z" id="Shape"></path>
                            <path d="M95.8902372,16.6616428 C95.7648736,16.6616428 95.6371296,16.6512549 95.5070053,16.6307455 C86.9957652,15.2174604 79.036231,14.3885604 72.4858477,14.2335412 C71.1975642,14.203443 70.1761414,13.1265655 70.2057632,11.8280799 C70.2356494,10.5306596 71.2684449,9.45751118 72.5953425,9.53288994 C79.4559612,9.69483441 87.4199916,10.5213372 96.2684441,11.989758 C97.5405942,12.2009783 98.4004196,13.4110338 98.1904223,14.6922063 C98.0036992,15.8439298 97.0118981,16.6616428 95.8902372,16.6616428 Z" id="Shape"></path>
                            <path d="M58.5300164,5.81109708 C57.435597,5.81109708 56.4572844,5.03280476 56.2409395,3.91091314 C55.9947084,2.63639952 56.8198869,1.40130659 58.0854251,1.15199735 C63.9473661,0.000540215054 71.1272125,-0.175254767 79.7270535,0.50448583 C81.0129566,0.606766547 81.9727556,1.73851333 81.872782,3.03353637 C81.7728085,4.3285594 80.6278733,5.28610934 79.3623352,5.19315109 C71.1975642,4.54563957 64.4144383,4.69613073 58.9791039,5.76714834 C58.8286147,5.79724657 58.6781254,5.81109708 58.5300164,5.81109708 Z" id="Shape"></path>
                            <path d="M58.5300164,24.6214265 C57.435597,24.6214265 56.4572844,23.8431342 56.2409395,22.7212426 C55.9947084,21.446729 56.8198869,20.211636 58.0854251,19.9623268 C63.4025367,18.9163466 69.8116875,18.6763599 77.3559877,19.1472773 C78.6418909,19.2274505 79.6202034,20.3445477 79.5403304,21.6409025 C79.4583415,22.936991 78.3274238,23.9174475 77.0640015,23.8404706 C69.9344064,23.3916607 63.8994952,23.6074091 58.9788395,24.5774778 C58.8286147,24.607576 58.6781254,24.6214265 58.5300164,24.6214265 Z" id="Shape"></path>
                            <path d="M58.5300164,43.4314896 C57.435597,43.4314896 56.4572844,42.6531973 56.2409395,41.5313057 C55.9947084,40.256792 56.8198869,39.0216991 58.0854251,38.7723899 C64.4784425,37.5173202 72.42872,37.4190349 82.0983837,38.3315706 C83.3819066,38.4532953 84.3237209,39.599159 84.2052337,40.8917848 C84.0843662,42.1844107 82.9716976,43.1339699 81.6606689,43.013577 C72.4654827,42.145789 64.9209181,42.2203687 58.9791039,43.3878072 C58.8286147,43.4176391 58.6781254,43.4314896 58.5300164,43.4314896 Z" id="Shape"></path>
                            <path d="M95.8902372,35.4719723 C95.7648736,35.4719723 95.6371296,35.4615844 95.5070053,35.441075 C89.7521787,34.4859222 84.3189602,33.8016536 79.3599548,33.4090448 C78.0740517,33.3067641 77.1142527,32.1750173 77.2142263,30.8799942 C77.3141998,29.5849712 78.4683918,28.6215614 79.7246732,28.7203795 C84.8159187,29.1244416 90.3816418,29.8236262 96.2684441,30.8006201 C97.5405942,31.0118405 98.4004196,32.2218959 98.1904223,33.5030685 C98.0036992,34.6542592 97.0118981,35.4719723 95.8902372,35.4719723 Z" id="Shape"></path>
                            <path d="M95.8902372,54.2820353 C95.7648736,54.2820353 95.6371296,54.2716475 95.5093856,54.251138 C87.8714594,52.9835497 80.8947339,52.2039256 74.7728087,51.9330415 C73.4845253,51.8757749 72.4858477,50.7778554 72.5429754,49.4807015 C72.5998387,48.184613 73.6762735,47.2257313 74.9780454,47.2350538 C81.2843134,47.5139285 88.4482909,48.3129966 96.2663282,49.6104169 C97.5408587,49.8216372 98.4006841,51.0316927 98.1906868,52.3128652 C98.0036992,53.4645887 97.014014,54.2820353 95.8902372,54.2820353 Z" id="Shape"></path>
                        </g>
                    </g>
                    <g id="open-book-copy-2" filter="url(#filter-8)" transform="translate(0.000000, 20.933333)">
                        <g id="Path-7">
                            <use fill="black" fill-opacity="1" filter="url(#filter-10)" xlink:href="#path-9"></use>
                            <use stroke="url(#linearGradient-1)" stroke-width="2" xlink:href="#path-9"></use>
                        </g>
                        <path d="M131.374758,136.066667 L4.6919082,136.066667 C2.10052917,136.066667 0,133.978137 0,131.401562 L0,59.0917718 C0,56.5151963 2.10052917,54.4266667 4.6919082,54.4266667 L131.374758,54.4266667 C133.966138,54.4266667 136.066667,56.5151963 136.066667,59.0917718 L136.066667,131.401562 C136.066667,133.978137 133.966138,136.066667 131.374758,136.066667 Z" id="Shape" fill="url(#linearGradient-4)" fill-rule="nonzero"></path>
                        <path d="M129.534062,58.6133333 L7.57874037,58.6133333 C6.28355921,58.6133333 5.23333333,59.6643475 5.23333333,60.9605007 L5.23333333,129.025164 C5.23333333,130.321318 6.28355921,131.372332 7.57874037,131.372332 L59.1753042,131.372332 C60.4704853,131.372332 61.5207112,132.423346 61.5207112,133.719499 C61.5207112,135.015653 62.5709371,136.066667 63.8661183,136.066667 L73.2472151,136.066667 C74.5423962,136.066667 75.5926221,135.015653 75.5926221,133.719499 C75.5926221,132.423346 76.642848,131.372332 77.9380292,131.372332 L129.534593,131.372332 C130.829774,131.372332 131.88,130.321318 131.88,129.025164 L131.88,60.9605007 C131.879469,59.6640816 130.829243,58.6133333 129.534062,58.6133333 Z" id="Shape" fill="url(#radialGradient-5)" fill-rule="nonzero"></path>
                        <path d="M124.302027,126.646667 L11.7646396,126.646667 C10.4698822,126.646667 9.42,125.615532 9.42,124.343896 L9.42,115.133333 L126.646667,115.133333 L126.646667,124.343896 C126.646667,125.615532 125.596784,126.646667 124.302027,126.646667 Z" id="Shape" fill="#AFB9D2" fill-rule="nonzero"></path>
                        <path d="M89.1342077,45.0066667 C77.2813745,45.0066667 71.5429969,47.4436726 69.2695306,48.7975354 C68.5030325,49.2540275 67.5636341,49.2540275 66.7971361,48.7975354 C64.5239354,47.4436726 58.7852922,45.0066667 46.932459,45.0066667 C32.9100059,45.0066667 16.6916394,48.1409808 11.2823301,49.2751981 C10.1955282,49.5030472 9.42,50.4549324 9.42,51.5613633 L9.42,116.974689 C9.42,118.452665 10.768941,119.562536 12.2217285,119.265618 C18.3887713,118.005435 33.6464921,115.191327 46.932459,115.191327 C58.7852922,115.191327 64.5236698,117.628333 66.7971361,118.982196 C67.5532761,119.432601 68.5133906,119.432601 69.2695306,118.982196 C71.5427313,117.628068 77.2811089,115.191327 89.1342077,115.191327 C102.42044,115.191327 117.678161,118.005435 123.844938,119.265618 C125.297991,119.562536 126.646667,118.452665 126.646667,116.974689 L126.646667,51.5616279 C126.646667,50.455197 125.870873,49.5033118 124.784337,49.2754628 C119.375027,48.1412454 103.156661,45.0066667 89.1342077,45.0066667 Z" id="Shape" fill="#E4EAF8" fill-rule="nonzero"></path>
                        <g id="Group" transform="translate(18.840000, 55.473333)" fill="#707487" fill-rule="nonzero">
                            <path d="M39.8566503,13.6911607 C39.7082768,13.6911607 39.558052,13.6774138 39.4075627,13.6480693 C38.0190412,13.3768316 36.518909,13.1603173 34.9523923,13.0043424 C33.6688695,12.875597 32.7339316,11.7327503 32.8616756,10.4495262 C32.9915354,9.16735948 34.1203373,8.22754454 35.4176131,8.35972667 C37.1274782,8.53077034 38.7714876,8.76869818 40.3012416,9.06742979 C41.5667798,9.31487474 42.3919583,10.5396744 42.1457271,11.8046574 C41.9291178,12.918424 40.9510697,13.6911607 39.8566503,13.6911607 Z" id="Shape"></path>
                            <path d="M2.49642943,5.79116351 C1.37450405,5.79116351 0.382967455,4.97982959 0.195979892,3.83698289 C-0.0137529749,2.56539079 0.845807957,1.36411959 2.11795814,1.15474309 C4.29780466,0.79600079 6.68711957,0.433293024 9.19730197,0.102044605 C10.4808248,-0.0766656357 11.6482408,0.832483058 11.8172437,2.10989117 C11.9862466,3.38729928 11.0875426,4.55975478 9.80851591,4.72868354 C7.35308093,5.05332285 5.01348832,5.40889278 2.87966136,5.76102598 C2.74953706,5.78058893 2.62205756,5.79116351 2.49642943,5.79116351 Z" id="Shape"></path>
                            <path d="M2.49642943,24.4605676 C1.37238821,24.4605676 0.382967455,23.6492337 0.195979892,22.506387 C-0.0137529749,21.2347949 0.847923799,20.0335237 2.12033846,19.8241472 C5.35572581,19.291982 8.53186957,18.8372754 11.5596399,18.4727171 C12.8251781,18.3291673 14.0015864,19.2306495 14.1563073,20.5099081 C14.3089125,21.7896955 13.3969844,22.9518408 12.1158419,23.1054364 C9.15630753,23.4623282 6.04866416,23.9075176 2.87728104,24.429637 C2.74953706,24.4502574 2.62205756,24.4605676 2.49642943,24.4605676 Z" id="Shape"></path>
                            <path d="M2.49642943,43.1302361 C1.37450405,43.1302361 0.382967455,42.320224 0.195979892,41.177113 C-0.0137529749,39.9055209 0.845807957,38.7042497 2.11795814,38.4935513 C3.60460183,38.2484857 5.18460706,38.00342 6.83284821,37.7665496 C8.1370005,37.5796441 9.29304384,38.4694942 9.47791556,39.7434656 C9.66040695,41.0198162 8.77572039,42.2025819 7.49907405,42.3860507 C5.88257054,42.6184269 4.33430294,42.8589984 2.87992584,43.0993055 C2.74953706,43.1196615 2.62205756,43.1302361 2.49642943,43.1302361 Z" id="Shape"></path>
                            <path d="M39.8566503,32.3608292 C39.7082768,32.3608292 39.558052,32.3470823 39.4075627,32.3177378 C36.1494301,31.6814131 32.3737095,31.359153 28.180639,31.359153 C26.8902397,31.359153 25.8458071,30.3141211 25.8458071,29.0253453 C25.8458071,27.7365696 26.8899752,26.6915376 28.180639,26.6915376 C32.6723077,26.6915376 36.7511227,27.0436708 40.3009771,27.7365696 C41.5665153,27.9840145 42.3916938,29.2101359 42.1454627,30.4748546 C41.9291178,31.5880925 40.9510697,32.3608292 39.8566503,32.3608292 Z" id="Shape"></path>
                            <path d="M39.8566503,51.0304977 C39.7082768,51.0304977 39.558052,51.0167508 39.4075627,50.9874063 C37.3737093,50.5908599 35.1190149,50.3127487 32.7066902,50.1636473 C31.4184067,50.0840736 30.4403586,48.9763874 30.5202316,47.6899909 C30.6022205,46.4046519 31.7307579,45.4098491 32.9941803,45.505549 C35.6093613,45.6673399 38.069557,45.9705657 40.3015061,46.4070311 C41.5670443,46.6544761 42.3922228,47.8792757 42.1459916,49.1442587 C41.9291178,50.257761 40.9510697,51.0304977 39.8566503,51.0304977 Z" id="Shape"></path>
                            <path d="M58.5300164,13.6911607 C57.435597,13.6911607 56.4572844,12.9186884 56.2409395,11.8041286 C55.9947084,10.5391456 56.8198869,9.31434601 58.0854251,9.06690107 C59.615179,8.76843381 61.2591885,8.53024162 62.9690535,8.35919794 C64.2687097,8.22939509 65.3972471,9.16735948 65.524991,10.4489974 C65.652735,11.7319572 64.7177972,12.8748039 63.4342744,13.0038136 C61.8680221,13.1597886 60.3676254,13.3763029 58.9791039,13.6475406 C58.8286147,13.6774138 58.6781254,13.6911607 58.5300164,13.6911607 Z" id="Shape"></path>
                            <path d="M95.8902372,5.79116351 C95.7648736,5.79116351 95.6371296,5.7808533 95.5070053,5.76049725 C93.3729139,5.40836405 91.0335857,5.05279412 88.5781508,4.72815481 C87.2991241,4.55949041 86.4006846,3.38677055 86.569423,2.10936244 C86.7381614,0.833011787 87.9031971,-0.0750794502 89.1893647,0.101515876 C91.6998116,0.433293024 94.0891265,0.795472062 96.2687085,1.15421436 C97.5408587,1.36385522 98.4006841,2.56486206 98.1906868,3.83645416 C98.0036992,4.97956522 97.0118981,5.79116351 95.8902372,5.79116351 Z" id="Shape"></path>
                            <path d="M95.8902372,24.4605676 C95.7648736,24.4605676 95.6371296,24.4502574 95.5093856,24.4299014 C92.3380025,23.9080463 89.2300947,23.4625925 86.2708247,23.1057008 C84.9894177,22.9518408 84.0772252,21.7894311 84.2303593,20.5099081 C84.3853448,19.2301207 85.5710099,18.3254662 86.8270268,18.4727171 C89.8547971,18.8372754 93.0309409,19.2922463 96.2663282,19.8241472 C97.5384784,20.0337881 98.4006841,21.2347949 98.1906868,22.506387 C98.0036992,23.6492337 97.014014,24.4605676 95.8902372,24.4605676 Z" id="Shape"></path>
                            <path d="M95.8902372,43.1302361 C95.7648736,43.1302361 95.6371296,43.1199259 95.5070053,43.0995699 C94.0523637,42.8592627 92.5043606,42.6186913 90.8878571,42.3863151 C89.6109463,42.2028463 88.7265242,41.0198162 88.9087511,39.7437299 C89.0933584,38.4710804 90.2538978,37.5923336 91.5538185,37.766814 C93.2020596,38.0039487 94.7823293,38.24875 96.2687085,38.4938157 C97.5408587,38.7047784 98.4006841,39.9057852 98.1906868,41.1773773 C98.0036992,42.3199597 97.0118981,43.1302361 95.8902372,43.1302361 Z" id="Shape"></path>
                            <path d="M58.5300164,32.3608292 C57.435597,32.3608292 56.4572844,31.5883568 56.2409395,30.4748546 C55.9947084,29.2098716 56.8198869,27.9840145 58.0854251,27.7365696 C61.6355439,27.0436708 65.7143589,26.6915376 70.2060276,26.6915376 C71.496427,26.6915376 72.5408596,27.7365696 72.5408596,29.0253453 C72.5408596,30.3141211 71.4966914,31.359153 70.2060276,31.359153 C66.0132216,31.359153 62.2372366,31.6814131 58.9791039,32.3174735 C58.8286147,32.3470823 58.6781254,32.3608292 58.5300164,32.3608292 Z" id="Shape"></path>
                            <path d="M58.5300164,51.0304977 C57.435597,51.0304977 56.4572844,50.2580253 56.2409395,49.1434656 C55.9947084,47.8784826 56.8198869,46.653683 58.0854251,46.406238 C60.3173742,45.9697726 62.7775698,45.6668112 65.3927509,45.5047559 C66.6900267,45.4101135 67.7868265,46.4038588 67.8666995,47.6891978 C67.9463081,48.9755943 66.9685244,50.0832805 65.680241,50.1628542 C63.2679163,50.31222 61.0132218,50.5903312 58.9793684,50.9866132 C58.8286147,51.0167508 58.6781254,51.0304977 58.5300164,51.0304977 Z" id="Shape"></path>
                        </g>
                        <g id="Group" transform="translate(18.840000, 53.380000)" fill="#7F8499" fill-rule="nonzero">
                            <path d="M2.49642943,16.6616428 C1.37238821,16.6616428 0.382967455,15.8441962 0.195979892,14.692739 C-0.0137529749,13.4115665 0.845807957,12.2012447 2.11795814,11.9902907 C10.9666751,10.5218699 18.9307055,9.69510076 25.7910596,9.53342265 C25.8095733,9.53235723 25.8275579,9.53235723 25.8458071,9.53235723 C27.1113452,9.53235723 28.1507528,10.5495709 28.180639,11.8286126 C28.2105253,13.1270983 27.188838,14.2039757 25.9005545,14.2340739 C19.3501712,14.3890931 11.390637,15.2179931 2.87939688,16.6312782 C2.74953706,16.6509886 2.62205756,16.6616428 2.49642943,16.6616428 Z" id="Shape"></path>
                            <path d="M39.8566503,5.81109708 C39.7082768,5.81109708 39.558052,5.79724657 39.4075627,5.76768105 C33.9695835,4.69639708 27.1843418,4.54617228 19.0243315,5.1936838 C17.7587933,5.28557663 16.6143871,4.32935847 16.5138846,3.03406908 C16.4133821,1.73877969 17.3734456,0.607032903 18.6596132,0.505018542 C27.262099,-0.176852903 34.4393005,-0.00132427718 40.3012416,1.15253006 C41.5667798,1.40183931 42.3919583,2.63719859 42.1457271,3.91144585 C41.9291178,5.0325384 40.9510697,5.81109708 39.8566503,5.81109708 Z" id="Shape"></path>
                            <path d="M39.8566503,24.6214265 C39.7082768,24.6214265 39.558052,24.607576 39.4075627,24.5780105 C34.4850556,23.6079418 28.44988,23.3921934 21.3224007,23.8410033 C19.9886266,23.9211765 18.9262093,22.9351265 18.8463363,21.6414352 C18.7667277,20.3453468 19.7445113,19.2282496 21.0304145,19.14781 C28.5773595,18.6768926 34.9841299,18.9171457 40.3009771,19.9628595 C41.5665153,20.2121687 42.3916938,21.447528 42.1454627,22.7217753 C41.9291178,23.8428678 40.9510697,24.6214265 39.8566503,24.6214265 Z" id="Shape"></path>
                            <path d="M39.8566503,43.4314896 C39.7082768,43.4314896 39.558052,43.4176391 39.4075627,43.3880736 C33.4681289,42.2203687 25.9235643,42.1447236 16.7259978,43.0138433 C15.4125887,43.1366335 14.3023005,42.1849434 14.181433,40.8920512 C14.0629458,39.5994254 15.0044956,38.4535617 16.2882829,38.331837 C25.9579467,37.416904 33.9082241,37.5157221 40.3012416,38.7726562 C41.5667798,39.0219655 42.3919583,40.2573248 42.1457271,41.531572 C41.9291178,42.6529309 40.9510697,43.4314896 39.8566503,43.4314896 Z" id="Shape"></path>
                            <path d="M2.49642943,35.4719723 C1.37238821,35.4719723 0.382967455,34.6545256 0.195979892,33.5030685 C-0.0137529749,32.2218959 0.845807957,31.0115741 2.11795814,30.8006201 C8.00502484,29.8236262 13.5704835,29.1244416 18.661729,28.7203795 C19.943136,28.620496 21.0716734,29.5847049 21.1721759,30.8799942 C21.2726784,32.1752836 20.312615,33.3070304 19.0264473,33.4090448 C14.067442,33.8016536 8.63422344,34.4859222 2.87939688,35.441075 C2.74953706,35.461318 2.62205756,35.4719723 2.49642943,35.4719723 Z" id="Shape"></path>
                            <path d="M2.49642943,54.2820353 C1.37238821,54.2820353 0.382967455,53.4645887 0.195979892,52.3131315 C-0.0137529749,51.031959 0.845807957,49.8216372 2.12033846,49.6106832 C9.93837573,48.313263 17.1023533,47.5141949 23.4086212,47.2353201 C24.685532,47.2228014 25.7889438,48.184613 25.8436912,49.4809678 C25.9005545,50.7783881 24.9018769,51.8757749 23.6138579,51.9333078 C17.4919327,52.2041919 10.5152072,52.983816 2.87701656,54.2514044 C2.74953706,54.2716475 2.62205756,54.2820353 2.49642943,54.2820353 Z" id="Shape"></path>
                            <path d="M95.8902372,16.6616428 C95.7648736,16.6616428 95.6371296,16.6512549 95.5070053,16.6307455 C86.9957652,15.2174604 79.036231,14.3885604 72.4858477,14.2335412 C71.1975642,14.203443 70.1761414,13.1265655 70.2057632,11.8280799 C70.2356494,10.5306596 71.2684449,9.45751118 72.5953425,9.53288994 C79.4559612,9.69483441 87.4199916,10.5213372 96.2684441,11.989758 C97.5405942,12.2009783 98.4004196,13.4110338 98.1904223,14.6922063 C98.0036992,15.8439298 97.0118981,16.6616428 95.8902372,16.6616428 Z" id="Shape"></path>
                            <path d="M58.5300164,5.81109708 C57.435597,5.81109708 56.4572844,5.03280476 56.2409395,3.91091314 C55.9947084,2.63639952 56.8198869,1.40130659 58.0854251,1.15199735 C63.9473661,0.000540215054 71.1272125,-0.175254767 79.7270535,0.50448583 C81.0129566,0.606766547 81.9727556,1.73851333 81.872782,3.03353637 C81.7728085,4.3285594 80.6278733,5.28610934 79.3623352,5.19315109 C71.1975642,4.54563957 64.4144383,4.69613073 58.9791039,5.76714834 C58.8286147,5.79724657 58.6781254,5.81109708 58.5300164,5.81109708 Z" id="Shape"></path>
                            <path d="M58.5300164,24.6214265 C57.435597,24.6214265 56.4572844,23.8431342 56.2409395,22.7212426 C55.9947084,21.446729 56.8198869,20.211636 58.0854251,19.9623268 C63.4025367,18.9163466 69.8116875,18.6763599 77.3559877,19.1472773 C78.6418909,19.2274505 79.6202034,20.3445477 79.5403304,21.6409025 C79.4583415,22.936991 78.3274238,23.9174475 77.0640015,23.8404706 C69.9344064,23.3916607 63.8994952,23.6074091 58.9788395,24.5774778 C58.8286147,24.607576 58.6781254,24.6214265 58.5300164,24.6214265 Z" id="Shape"></path>
                            <path d="M58.5300164,43.4314896 C57.435597,43.4314896 56.4572844,42.6531973 56.2409395,41.5313057 C55.9947084,40.256792 56.8198869,39.0216991 58.0854251,38.7723899 C64.4784425,37.5173202 72.42872,37.4190349 82.0983837,38.3315706 C83.3819066,38.4532953 84.3237209,39.599159 84.2052337,40.8917848 C84.0843662,42.1844107 82.9716976,43.1339699 81.6606689,43.013577 C72.4654827,42.145789 64.9209181,42.2203687 58.9791039,43.3878072 C58.8286147,43.4176391 58.6781254,43.4314896 58.5300164,43.4314896 Z" id="Shape"></path>
                            <path d="M95.8902372,35.4719723 C95.7648736,35.4719723 95.6371296,35.4615844 95.5070053,35.441075 C89.7521787,34.4859222 84.3189602,33.8016536 79.3599548,33.4090448 C78.0740517,33.3067641 77.1142527,32.1750173 77.2142263,30.8799942 C77.3141998,29.5849712 78.4683918,28.6215614 79.7246732,28.7203795 C84.8159187,29.1244416 90.3816418,29.8236262 96.2684441,30.8006201 C97.5405942,31.0118405 98.4004196,32.2218959 98.1904223,33.5030685 C98.0036992,34.6542592 97.0118981,35.4719723 95.8902372,35.4719723 Z" id="Shape"></path>
                            <path d="M95.8902372,54.2820353 C95.7648736,54.2820353 95.6371296,54.2716475 95.5093856,54.251138 C87.8714594,52.9835497 80.8947339,52.2039256 74.7728087,51.9330415 C73.4845253,51.8757749 72.4858477,50.7778554 72.5429754,49.4807015 C72.5998387,48.184613 73.6762735,47.2257313 74.9780454,47.2350538 C81.2843134,47.5139285 88.4482909,48.3129966 96.2663282,49.6104169 C97.5408587,49.8216372 98.4006841,51.0316927 98.1906868,52.3128652 C98.0036992,53.4645887 97.014014,54.2820353 95.8902372,54.2820353 Z" id="Shape"></path>
                        </g>
                    </g>
                </g>
            </g>
        </g>
    </g>
</svg>