<?xml version="1.0" encoding="UTF-8"?>
<svg width="109px" height="152px" viewBox="0 0 109 152" version="1.1" xmlns="http://www.w3.org/2000/svg" xmlns:xlink="http://www.w3.org/1999/xlink">
    <!-- Generator: sketchtool 49.2 (51160) - http://www.bohemiancoding.com/sketch -->
    <title>72118970-A7A8-49D1-AEB8-B18842951916</title>
    <desc>Created with sketchtool.</desc>
    <defs>
        <linearGradient x1="-1.11022302e-14%" y1="65.8886719%" x2="100%" y2="22.6074219%" id="linearGradient-1">
            <stop stop-color="#8750F2" offset="0%"></stop>
            <stop stop-color="#4230EC" offset="100%"></stop>
        </linearGradient>
        <linearGradient x1="100%" y1="22.6074219%" x2="0%" y2="65.8886719%" id="linearGradient-2">
            <stop stop-color="#8750F2" offset="0%"></stop>
            <stop stop-color="#4230EC" offset="100%"></stop>
        </linearGradient>
        <path d="M7.86420579,22.5315012 L7.34147153,20.9545782 C7.20584321,20.5454306 6.82330609,20.2692308 6.39226463,20.2692308 L5.33571429,20.2692308 C4.35343641,20.2692308 3.55714286,19.4729372 3.55714286,18.4906593 L3.55714286,5.57692308 C3.55714286,4.47235358 4.45257336,3.57692308 5.55714286,3.57692308 L14.6,3.57692308 C15.7045695,3.57692308 16.6,4.47235358 16.6,5.57692308 L16.6,18.2692308 C16.6,19.3738003 15.7045695,20.2692308 14.6,20.2692308 L13.0428571,20.2692308 L12.0843287,17.3776551 C11.9487004,16.9685076 11.5661632,16.6923077 11.1351218,16.6923077 L9.68500111,16.6923077 C9.13271636,16.6923077 8.68500111,17.1400229 8.68500111,17.6923077 C8.68500111,17.7992329 8.70214991,17.9054661 8.73579421,18.0069603 L10.4442428,23.1608065 C10.5798711,23.569954 10.9624082,23.8461538 11.3934497,23.8461538 L15.4142857,23.8461538 C18.0336934,23.8461538 20.1571429,21.7108965 20.1571429,19.0769231 L20.1571429,4.76923077 C20.1571429,2.13525735 18.0336934,0 15.4142857,0 L4.74285714,0 C2.12344947,0 0,2.13525735 0,4.76923077 L0,19.0769231 C0,21.7108965 2.12344947,23.8461538 4.74285714,23.8461538 L6.91499889,23.8461538 C7.46728364,23.8461538 7.91499889,23.3984386 7.91499889,22.8461538 C7.91499889,22.7392286 7.89785009,22.6329954 7.86420579,22.5315012 Z" id="path-3"></path>
        <path d="M7.86420579,22.5315012 L7.34147153,20.9545782 C7.20584321,20.5454306 6.82330609,20.2692308 6.39226463,20.2692308 L5.33571429,20.2692308 C4.35343641,20.2692308 3.55714286,19.4729372 3.55714286,18.4906593 L3.55714286,5.57692308 C3.55714286,4.47235358 4.45257336,3.57692308 5.55714286,3.57692308 L14.6,3.57692308 C15.7045695,3.57692308 16.6,4.47235358 16.6,5.57692308 L16.6,18.2692308 C16.6,19.3738003 15.7045695,20.2692308 14.6,20.2692308 L13.0428571,20.2692308 L12.0843287,17.3776551 C11.9487004,16.9685076 11.5661632,16.6923077 11.1351218,16.6923077 L9.68500111,16.6923077 C9.13271636,16.6923077 8.68500111,17.1400229 8.68500111,17.6923077 C8.68500111,17.7992329 8.70214991,17.9054661 8.73579421,18.0069603 L10.4442428,23.1608065 C10.5798711,23.569954 10.9624082,23.8461538 11.3934497,23.8461538 L15.4142857,23.8461538 C18.0336934,23.8461538 20.1571429,21.7108965 20.1571429,19.0769231 L20.1571429,4.76923077 C20.1571429,2.13525735 18.0336934,0 15.4142857,0 L4.74285714,0 C2.12344947,0 0,2.13525735 0,4.76923077 L0,19.0769231 C0,21.7108965 2.12344947,23.8461538 4.74285714,23.8461538 L6.91499889,23.8461538 C7.46728364,23.8461538 7.91499889,23.3984386 7.91499889,22.8461538 C7.91499889,22.7392286 7.89785009,22.6329954 7.86420579,22.5315012 Z" id="path-5"></path>
        <filter x="-25.3%" y="-16.9%" width="150.6%" height="133.9%" filterUnits="objectBoundingBox" id="filter-7">
            <feOffset dx="0" dy="0" in="SourceAlpha" result="shadowOffsetOuter1"></feOffset>
            <feGaussianBlur stdDeviation="7" in="shadowOffsetOuter1" result="shadowBlurOuter1"></feGaussianBlur>
            <feColorMatrix values="0 0 0 0 0.539295211   0 0 0 0 0.415548815   0 0 0 0 0.894903274  0 0 0 0.667685688 0" type="matrix" in="shadowBlurOuter1" result="shadowMatrixOuter1"></feColorMatrix>
            <feMerge>
                <feMergeNode in="shadowMatrixOuter1"></feMergeNode>
                <feMergeNode in="SourceGraphic"></feMergeNode>
            </feMerge>
        </filter>
        <path d="M7.86420579,22.5315012 L7.34147153,20.9545782 C7.20584321,20.5454306 6.82330609,20.2692308 6.39226463,20.2692308 L5.33571429,20.2692308 C4.35343641,20.2692308 3.55714286,19.4729372 3.55714286,18.4906593 L3.55714286,5.57692308 C3.55714286,4.47235358 4.45257336,3.57692308 5.55714286,3.57692308 L14.6,3.57692308 C15.7045695,3.57692308 16.6,4.47235358 16.6,5.57692308 L16.6,18.2692308 C16.6,19.3738003 15.7045695,20.2692308 14.6,20.2692308 L13.0428571,20.2692308 L12.0843287,17.3776551 C11.9487004,16.9685076 11.5661632,16.6923077 11.1351218,16.6923077 L9.68500111,16.6923077 C9.13271636,16.6923077 8.68500111,17.1400229 8.68500111,17.6923077 C8.68500111,17.7992329 8.70214991,17.9054661 8.73579421,18.0069603 L10.4442428,23.1608065 C10.5798711,23.569954 10.9624082,23.8461538 11.3934497,23.8461538 L15.4142857,23.8461538 C18.0336934,23.8461538 20.1571429,21.7108965 20.1571429,19.0769231 L20.1571429,4.76923077 C20.1571429,2.13525735 18.0336934,0 15.4142857,0 L4.74285714,0 C2.12344947,0 0,2.13525735 0,4.76923077 L0,19.0769231 C0,21.7108965 2.12344947,23.8461538 4.74285714,23.8461538 L6.91499889,23.8461538 C7.46728364,23.8461538 7.91499889,23.3984386 7.91499889,22.8461538 C7.91499889,22.7392286 7.89785009,22.6329954 7.86420579,22.5315012 Z" id="path-8"></path>
    </defs>
    <g id="For-Quants" stroke="none" stroke-width="1" fill="none" fill-rule="evenodd">
        <g transform="translate(-376.000000, -865.000000)" id="Group-6">
            <g transform="translate(377.000000, 879.000000)">
                <g id="medal-(1)" opacity="0.100000001" transform="translate(0.000000, 12.000000)">
                    <path d="M33.2,48.8846154 L65.7809887,1.82335566 C66.571708,0.68089922 67.8689668,0 69.2534444,0 L81.9404154,0 C82.7946318,0 83.2966187,0.965008513 82.8087689,1.66950325 L50.1216321,48.8846154 L33.2,48.8846154 Z" id="Shape" fill="#8A6AE4" fill-rule="nonzero"></path>
                    <polygon id="Shape" fill="#C84146" fill-rule="nonzero" points="33.2 48.8846154 49.6644881 48.8846154 52.1714286 45.2661697 43.9393011 33.3846154"></polygon>
                    <polygon id="Shape" fill="#88AFFE" fill-rule="nonzero" points="44.3013814 48.8846154 78.2571429 0 73.0840925 0 39.1285714 48.8846154"></polygon>
                    <g id="Group" transform="translate(24.900000, 36.961538)" fill="#E1A546" fill-rule="nonzero">
                        <polygon id="Shape" points="22.769881 0.111123077 14.5885025 11.6927231 19.7986647 11.6927231 25.3749621 3.79893077"></polygon>
                        <path d="M27.8810026,20.1130385 L6.50471167,20.1130385 C2.96855262,20.1130385 0.0917759557,17.2801154 0.0917759557,13.7978615 C0.0917759557,10.3156077 2.96855262,7.48268462 6.50471167,7.48268462 L27.8810026,7.48268462 C31.4171617,7.48268462 34.2939383,10.3156077 34.2939383,13.7978615 C34.2939383,17.2801154 31.4174038,20.1130385 27.8810026,20.1130385 Z M6.50495382,11.6927231 C5.32542696,11.6927231 4.36722787,12.6363154 4.36722787,13.7978615 C4.36722787,14.9594077 5.32542696,15.903 6.50495382,15.903 L27.8812448,15.903 C29.0607716,15.903 30.0189707,14.9594077 30.0189707,13.7978615 C30.0189707,12.6363154 29.0607716,11.6927231 27.8812448,11.6927231 L6.50495382,11.6927231 Z" id="Shape"></path>
                    </g>
                    <ellipse id="Oval" fill="url(#linearGradient-1)" fill-rule="nonzero" cx="40.9071429" cy="90.0192308" rx="33.7928571" ry="33.9807692"></ellipse>
                    <ellipse id="Oval" fill="url(#linearGradient-2)" fill-rule="nonzero" cx="41.5" cy="89.4230769" rx="29.6428571" ry="29.8076923"></ellipse>
                    <g id="Group-2" transform="translate(30.828571, 78.692308)">
                        <mask id="mask-4" fill="white">
                            <use xlink:href="#path-3"></use>
                        </mask>
                        <g id="Logo"></g>
                        <g id="Colors/Solid/White/Primary" mask="url(#mask-4)" fill="#FFFFFF">
                            <g transform="translate(-22.528571, -20.269231)" id="White">
                                <rect x="0" y="0" width="64" height="64"></rect>
                            </g>
                        </g>
                    </g>
                    <path d="M49.8,48.8846154 L17.2191681,1.82335566 C16.4284526,0.68089922 15.1312,0 13.7467291,0 L1.05957955,0 C0.205367231,0 -0.296617288,0.965008513 0.191230197,1.66950325 L32.8784493,48.8846154 L49.8,48.8846154 Z" id="Shape" fill="#8A6AE4" fill-rule="nonzero"></path>
                    <polygon id="Shape" fill="#88AFFE" fill-rule="nonzero" points="4.74285714 0 38.6985371 48.8846154 43.8714286 48.8846154 9.91574862 0"></polygon>
                </g>
                <g id="medal-(1)-copy" opacity="0.300000012" transform="translate(6.000000, 6.000000)">
                    <path d="M33.2,48.8846154 L65.7809887,1.82335566 C66.571708,0.68089922 67.8689668,0 69.2534444,0 L81.9404154,0 C82.7946318,0 83.2966187,0.965008513 82.8087689,1.66950325 L50.1216321,48.8846154 L33.2,48.8846154 Z" id="Shape" fill="#8A6AE4" fill-rule="nonzero"></path>
                    <polygon id="Shape" fill="#C84146" fill-rule="nonzero" points="33.2 48.8846154 49.6644881 48.8846154 52.1714286 45.2661697 43.9393011 33.3846154"></polygon>
                    <polygon id="Shape" fill="#88AFFE" fill-rule="nonzero" points="44.3013814 48.8846154 78.2571429 0 73.0840925 0 39.1285714 48.8846154"></polygon>
                    <g id="Group" transform="translate(24.900000, 36.961538)" fill="#E1A546" fill-rule="nonzero">
                        <polygon id="Shape" points="22.769881 0.111123077 14.5885025 11.6927231 19.7986647 11.6927231 25.3749621 3.79893077"></polygon>
                        <path d="M27.8810026,20.1130385 L6.50471167,20.1130385 C2.96855262,20.1130385 0.0917759557,17.2801154 0.0917759557,13.7978615 C0.0917759557,10.3156077 2.96855262,7.48268462 6.50471167,7.48268462 L27.8810026,7.48268462 C31.4171617,7.48268462 34.2939383,10.3156077 34.2939383,13.7978615 C34.2939383,17.2801154 31.4174038,20.1130385 27.8810026,20.1130385 Z M6.50495382,11.6927231 C5.32542696,11.6927231 4.36722787,12.6363154 4.36722787,13.7978615 C4.36722787,14.9594077 5.32542696,15.903 6.50495382,15.903 L27.8812448,15.903 C29.0607716,15.903 30.0189707,14.9594077 30.0189707,13.7978615 C30.0189707,12.6363154 29.0607716,11.6927231 27.8812448,11.6927231 L6.50495382,11.6927231 Z" id="Shape"></path>
                    </g>
                    <ellipse id="Oval" fill="url(#linearGradient-1)" fill-rule="nonzero" cx="40.9071429" cy="90.0192308" rx="33.7928571" ry="33.9807692"></ellipse>
                    <ellipse id="Oval" fill="url(#linearGradient-2)" fill-rule="nonzero" cx="41.5" cy="89.4230769" rx="29.6428571" ry="29.8076923"></ellipse>
                    <g id="Group-2" transform="translate(30.828571, 78.692308)">
                        <mask id="mask-6" fill="white">
                            <use xlink:href="#path-5"></use>
                        </mask>
                        <g id="Logo"></g>
                        <g id="Colors/Solid/White/Primary" mask="url(#mask-6)" fill="#FFFFFF">
                            <g transform="translate(-22.528571, -20.269231)" id="White">
                                <rect x="0" y="0" width="64" height="64"></rect>
                            </g>
                        </g>
                    </g>
                    <path d="M49.8,48.8846154 L17.2191681,1.82335566 C16.4284526,0.68089922 15.1312,0 13.7467291,0 L1.05957955,0 C0.205367231,0 -0.296617288,0.965008513 0.191230197,1.66950325 L32.8784493,48.8846154 L49.8,48.8846154 Z" id="Shape" fill="#8A6AE4" fill-rule="nonzero"></path>
                    <polygon id="Shape" fill="#88AFFE" fill-rule="nonzero" points="4.74285714 0 38.6985371 48.8846154 43.8714286 48.8846154 9.91574862 0"></polygon>
                </g>
                <g id="medal-(1)-copy-2" filter="url(#filter-7)" transform="translate(12.000000, 0.000000)">
                    <path d="M33.2,48.8846154 L65.7809887,1.82335566 C66.571708,0.68089922 67.8689668,0 69.2534444,0 L81.9404154,0 C82.7946318,0 83.2966187,0.965008513 82.8087689,1.66950325 L50.1216321,48.8846154 L33.2,48.8846154 Z" id="Shape" fill="#8A6AE4" fill-rule="nonzero"></path>
                    <polygon id="Shape" fill="#C84146" fill-rule="nonzero" points="33.2 48.8846154 49.6644881 48.8846154 52.1714286 45.2661697 43.9393011 33.3846154"></polygon>
                    <polygon id="Shape" fill="#88AFFE" fill-rule="nonzero" points="44.3013814 48.8846154 78.2571429 0 73.0840925 0 39.1285714 48.8846154"></polygon>
                    <g id="Group" transform="translate(24.900000, 36.961538)" fill="#E1A546" fill-rule="nonzero">
                        <polygon id="Shape" points="22.769881 0.111123077 14.5885025 11.6927231 19.7986647 11.6927231 25.3749621 3.79893077"></polygon>
                        <path d="M27.8810026,20.1130385 L6.50471167,20.1130385 C2.96855262,20.1130385 0.0917759557,17.2801154 0.0917759557,13.7978615 C0.0917759557,10.3156077 2.96855262,7.48268462 6.50471167,7.48268462 L27.8810026,7.48268462 C31.4171617,7.48268462 34.2939383,10.3156077 34.2939383,13.7978615 C34.2939383,17.2801154 31.4174038,20.1130385 27.8810026,20.1130385 Z M6.50495382,11.6927231 C5.32542696,11.6927231 4.36722787,12.6363154 4.36722787,13.7978615 C4.36722787,14.9594077 5.32542696,15.903 6.50495382,15.903 L27.8812448,15.903 C29.0607716,15.903 30.0189707,14.9594077 30.0189707,13.7978615 C30.0189707,12.6363154 29.0607716,11.6927231 27.8812448,11.6927231 L6.50495382,11.6927231 Z" id="Shape"></path>
                    </g>
                    <ellipse id="Oval" fill="url(#linearGradient-1)" fill-rule="nonzero" cx="40.9071429" cy="90.0192308" rx="33.7928571" ry="33.9807692"></ellipse>
                    <ellipse id="Oval" fill="url(#linearGradient-2)" fill-rule="nonzero" cx="41.5" cy="89.4230769" rx="29.6428571" ry="29.8076923"></ellipse>
                    <g id="Group-2" transform="translate(30.828571, 78.692308)">
                        <mask id="mask-9" fill="white">
                            <use xlink:href="#path-8"></use>
                        </mask>
                        <g id="Logo"></g>
                        <g id="Colors/Solid/White/Primary" mask="url(#mask-9)" fill="#FFFFFF">
                            <g transform="translate(-22.528571, -20.269231)" id="White">
                                <rect x="0" y="0" width="64" height="64"></rect>
                            </g>
                        </g>
                    </g>
                    <path d="M49.8,48.8846154 L17.2191681,1.82335566 C16.4284526,0.68089922 15.1312,0 13.7467291,0 L1.05957955,0 C0.205367231,0 -0.296617288,0.965008513 0.191230197,1.66950325 L32.8784493,48.8846154 L49.8,48.8846154 Z" id="Shape" fill="#8A6AE4" fill-rule="nonzero"></path>
                    <polygon id="Shape" fill="#88AFFE" fill-rule="nonzero" points="4.74285714 0 38.6985371 48.8846154 43.8714286 48.8846154 9.91574862 0"></polygon>
                </g>
            </g>
        </g>
    </g>
</svg>