<?xml version="1.0" encoding="UTF-8"?>
<svg width="193px" height="177px" viewBox="0 0 193 177" version="1.1" xmlns="http://www.w3.org/2000/svg" xmlns:xlink="http://www.w3.org/1999/xlink">
    <!-- Generator: sketchtool 49.2 (51160) - http://www.bohemiancoding.com/sketch -->
    <title>F0A0464D-17E5-4A5F-9567-030BE247CC70</title>
    <desc>Created with sketchtool.</desc>
    <defs>
        <linearGradient x1="50%" y1="0%" x2="11.9487702%" y2="97.2565932%" id="linearGradient-1">
            <stop stop-color="#578DFA" offset="0%"></stop>
            <stop stop-color="#0633AD" offset="100%"></stop>
        </linearGradient>
        <linearGradient x1="100%" y1="22.6074219%" x2="-2.22044605e-14%" y2="65.8886719%" id="linearGradient-2">
            <stop stop-color="#3493BD" offset="0%"></stop>
            <stop stop-color="#D380F9" offset="100%"></stop>
        </linearGradient>
        <radialGradient cx="23.8544034%" cy="31.3268229%" fx="23.8544034%" fy="31.3268229%" r="144.054561%" gradientTransform="translate(0.238544,0.313268),scale(1.000000,0.653774),rotate(125.683661),translate(-0.238544,-0.313268)" id="radialGradient-3">
            <stop stop-color="#5626C4" offset="0%"></stop>
            <stop stop-color="#2B0558" offset="100%"></stop>
        </radialGradient>
        <filter x="-29.7%" y="-27.1%" width="154.5%" height="154.1%" filterUnits="objectBoundingBox" id="filter-4">
            <feOffset dx="0" dy="0" in="SourceAlpha" result="shadowOffsetOuter1"></feOffset>
            <feGaussianBlur stdDeviation="12" in="shadowOffsetOuter1" result="shadowBlurOuter1"></feGaussianBlur>
            <feColorMatrix values="0 0 0 0 0.550367257   0 0 0 0 0.415548815   0 0 0 0 0.894903274  0 0 0 0.449416893 0" type="matrix" in="shadowBlurOuter1" result="shadowMatrixOuter1"></feColorMatrix>
            <feMerge>
                <feMergeNode in="shadowMatrixOuter1"></feMergeNode>
                <feMergeNode in="SourceGraphic"></feMergeNode>
            </feMerge>
        </filter>
        <linearGradient x1="100%" y1="22.6074219%" x2="0%" y2="65.8886719%" id="linearGradient-5">
            <stop stop-color="#19B391" offset="0%"></stop>
            <stop stop-color="#8E89BE" offset="100%"></stop>
        </linearGradient>
        <polyline id="path-6" points="1.12043698 99.6100982 1.73424159 97.9747691 6.49122731 97.9747691 9.02317132 98.7924336 12.9361757 98.7924336 16.6190033 94.7041109 20.1483798 89.7981237 23.9079331 87.8902397 27.6674863 87.8902397 31.2735884 76.4429361 35.0331416 78.6233749 38.6392437 66.6309616 42.3220713 68.2662907 46.004899 59.2719808 49.7644522 66.6309616 53.4472799 62.5426389 56.9766564 49.7325611 60.5827584 49.7325611 64.3423117 47.0070126 67.9484137 56.0013226 71.707967 47.0070126"></polyline>
        <filter x="-16.3%" y="-21.9%" width="132.6%" height="143.7%" filterUnits="objectBoundingBox" id="filter-7">
            <feMorphology radius="1" operator="dilate" in="SourceAlpha" result="shadowSpreadOuter1"></feMorphology>
            <feOffset dx="0" dy="0" in="shadowSpreadOuter1" result="shadowOffsetOuter1"></feOffset>
            <feMorphology radius="1" operator="erode" in="SourceAlpha" result="shadowInner"></feMorphology>
            <feOffset dx="0" dy="0" in="shadowInner" result="shadowInner"></feOffset>
            <feComposite in="shadowOffsetOuter1" in2="shadowInner" operator="out" result="shadowOffsetOuter1"></feComposite>
            <feGaussianBlur stdDeviation="3.5" in="shadowOffsetOuter1" result="shadowBlurOuter1"></feGaussianBlur>
            <feColorMatrix values="0 0 0 0 0.00784313725   0 0 0 0 0.560784314   0 0 0 0 1  0 0 0 1 0" type="matrix" in="shadowBlurOuter1"></feColorMatrix>
        </filter>
        <polyline id="path-8" points="1.12043698 102.967742 1.73424159 101.332413 6.49122731 101.332413 9.02317132 102.150077 12.9361757 102.150077 16.6190033 98.0617547 20.1483798 93.1557674 23.9079331 91.2478835 27.6674863 91.2478835 31.2735884 79.8005799 35.0331416 81.9810187 38.6392437 69.9886054 42.3220713 71.6239345 46.004899 62.6296245 49.7644522 69.9886054 53.4472799 65.9002827 56.9766564 53.0902049 60.5827584 53.0902049 64.3423117 50.3646564 67.9484137 59.3589663 71.707967 50.3646564"></polyline>
        <filter x="-16.3%" y="-21.9%" width="132.6%" height="143.7%" filterUnits="objectBoundingBox" id="filter-9">
            <feMorphology radius="1" operator="dilate" in="SourceAlpha" result="shadowSpreadOuter1"></feMorphology>
            <feOffset dx="0" dy="0" in="shadowSpreadOuter1" result="shadowOffsetOuter1"></feOffset>
            <feMorphology radius="1" operator="erode" in="SourceAlpha" result="shadowInner"></feMorphology>
            <feOffset dx="0" dy="0" in="shadowInner" result="shadowInner"></feOffset>
            <feComposite in="shadowOffsetOuter1" in2="shadowInner" operator="out" result="shadowOffsetOuter1"></feComposite>
            <feGaussianBlur stdDeviation="3.5" in="shadowOffsetOuter1" result="shadowBlurOuter1"></feGaussianBlur>
            <feColorMatrix values="0 0 0 0 0.00784313725   0 0 0 0 0.560784314   0 0 0 0 1  0 0 0 1 0" type="matrix" in="shadowBlurOuter1"></feColorMatrix>
        </filter>
        <polyline id="path-10" points="1.12043698 106.325386 1.73424159 104.690057 6.49122731 104.690057 9.02317132 105.507721 12.9361757 105.507721 16.6190033 101.419398 20.1483798 96.5134112 23.9079331 94.6055273 27.6674863 94.6055273 31.2735884 83.1582237 35.0331416 85.3386624 38.6392437 73.3462492 42.3220713 74.9815782 46.004899 65.9872683 49.7644522 73.3462492 53.4472799 69.2579264 56.9766564 56.4478486 60.5827584 56.4478486 64.3423117 53.7223001 67.9484137 62.7166101 71.707967 53.7223001"></polyline>
        <filter x="-16.3%" y="-21.9%" width="132.6%" height="143.7%" filterUnits="objectBoundingBox" id="filter-11">
            <feMorphology radius="1" operator="dilate" in="SourceAlpha" result="shadowSpreadOuter1"></feMorphology>
            <feOffset dx="0" dy="0" in="shadowSpreadOuter1" result="shadowOffsetOuter1"></feOffset>
            <feMorphology radius="1" operator="erode" in="SourceAlpha" result="shadowInner"></feMorphology>
            <feOffset dx="0" dy="0" in="shadowInner" result="shadowInner"></feOffset>
            <feComposite in="shadowOffsetOuter1" in2="shadowInner" operator="out" result="shadowOffsetOuter1"></feComposite>
            <feGaussianBlur stdDeviation="3.5" in="shadowOffsetOuter1" result="shadowBlurOuter1"></feGaussianBlur>
            <feColorMatrix values="0 0 0 0 0.00784313725   0 0 0 0 0.560784314   0 0 0 0 1  0 0 0 1 0" type="matrix" in="shadowBlurOuter1"></feColorMatrix>
        </filter>
    </defs>
    <g id="For-Quants" stroke="none" stroke-width="1" fill="none" fill-rule="evenodd">
        <g transform="translate(-323.000000, -188.000000)" id="Group-5">
            <g transform="translate(346.000000, 210.000000)">
                <g id="Group-4" transform="translate(1.000000, 0.000000)">
                    <g id="code-copy-2" opacity="0.200000003" transform="translate(11.000000, 22.000000)">
                        <path d="M139.552407,126.471248 L4.98396412,126.471248 C2.23128023,126.471248 0,124.242051 0,121.491937 L0,9.4561694 C0,6.70605543 2.23128023,4.47685835 4.98396412,4.47685835 L139.552407,4.47685835 C142.305091,4.47685835 144.536371,6.70605543 144.536371,9.4561694 L144.536371,121.491655 C144.536371,124.242051 142.305091,126.471248 139.552407,126.471248 Z" id="Shape" fill="url(#linearGradient-1)" fill-rule="nonzero"></path>
                        <polyline id="Path-7" stroke="url(#linearGradient-2)" stroke-width="2" points="1.12043698 99.6100982 1.73424159 97.9747691 6.49122731 97.9747691 9.02317132 98.7924336 12.9361757 98.7924336 16.6190033 94.7041109 20.1483798 89.7981237 23.9079331 87.8902397 27.6674863 87.8902397 31.2735884 76.4429361 35.0331416 78.6233749 38.6392437 66.6309616 42.3220713 68.2662907 46.004899 59.2719808 49.7644522 66.6309616 53.4472799 62.5426389 56.9766564 49.7325611 60.5827584 49.7325611 64.3423117 47.0070126 67.9484137 56.0013226 71.707967 47.0070126"></polyline>
                        <path d="M139.591042,126.471248 L72.8284039,126.471248 L72.8284039,16.7882188 L144.536371,16.7882188 L144.536371,121.485707 C144.536371,124.239262 142.322387,126.471248 139.591042,126.471248 Z" id="Shape" fill="url(#radialGradient-3)" fill-rule="nonzero"></path>
                        <path d="M144.536371,16.7882188 L0,16.7882188 L0,9.40134674 C0,6.68151177 2.23128023,4.47685835 4.98396412,4.47685835 L139.552407,4.47685835 C142.305091,4.47685835 144.536371,6.68151177 144.536371,9.40134674 L144.536371,16.7882188 Z" id="Shape" fill="#88AFFE" fill-rule="nonzero"></path>
                        <path d="M7.46957989,14.5497896 L4.85522693,14.5497896 C3.41152839,14.5497896 2.24087397,13.3804124 2.24087397,11.9382889 L2.24087397,9.32678822 C2.24087397,7.88466476 3.41152839,6.71528752 4.85522693,6.71528752 L7.46957989,6.71528752 C8.91327843,6.71528752 10.0839329,7.88466476 10.0839329,9.32678822 L10.0839329,11.9382889 C10.0836367,13.3807082 8.91327843,14.5497896 7.46957989,14.5497896 Z" id="Shape" fill="#E4EAF8" fill-rule="nonzero"></path>
                        <path d="M119.513278,14.5497896 L116.898925,14.5497896 C115.455227,14.5497896 114.284572,13.3804124 114.284572,11.9382889 L114.284572,9.32678822 C114.284572,7.88466476 115.455227,6.71528752 116.898925,6.71528752 L119.513278,6.71528752 C120.956977,6.71528752 122.127631,7.88466476 122.127631,9.32678822 L122.127631,11.9382889 C122.127631,13.3807082 120.956977,14.5497896 119.513278,14.5497896 Z" id="Shape" fill="#FF5050" fill-rule="nonzero"></path>
                        <path d="M129.597211,14.5497896 L126.982858,14.5497896 C125.53916,14.5497896 124.368505,13.3804124 124.368505,11.9382889 L124.368505,9.32678822 C124.368505,7.88466476 125.53916,6.71528752 126.982858,6.71528752 L129.597211,6.71528752 C131.04091,6.71528752 132.211564,7.88466476 132.211564,9.32678822 L132.211564,11.9382889 C132.211564,13.3807082 131.041206,14.5497896 129.597211,14.5497896 Z" id="Shape" fill="#FFF082" fill-rule="nonzero"></path>
                        <path d="M139.681144,14.5497896 L137.066791,14.5497896 C135.623092,14.5497896 134.452438,13.3804124 134.452438,11.9382889 L134.452438,9.32678822 C134.452438,7.88466476 135.623092,6.71528752 137.066791,6.71528752 L139.681144,6.71528752 C141.124843,6.71528752 142.295497,7.88466476 142.295497,9.32678822 L142.295497,11.9382889 C142.295201,13.3807082 141.124843,14.5497896 139.681144,14.5497896 Z" id="Shape" fill="#A0FFB4" fill-rule="nonzero"></path>
                        <path d="M71.707967,132.067321 C70.4694957,132.067321 69.467093,130.951475 69.467093,129.575368 L69.467093,2.49195342 C69.467093,1.11584638 70.4692419,0 71.707967,0 C72.9464382,0 73.9488409,1.11584638 73.9488409,2.49195342 L73.9488409,129.57565 C73.9488409,130.951475 72.9464382,132.067321 71.707967,132.067321 Z" id="Shape" fill="#FFFFFF" fill-rule="nonzero"></path>
                        <g id="Group" transform="translate(81.791900, 34.695652)" fill="#FF5050" fill-rule="nonzero">
                            <path d="M7.50496703,5.06564067 L2.55963829,5.06564067 C1.19298528,5.06564067 0.0868338662,3.97200454 0.0868338662,2.62328808 C0.0868338662,1.27457163 1.19270517,0.1809355 2.55963829,0.1809355 L7.50496703,0.1809355 C8.87162004,0.1809355 9.97777145,1.27457163 9.97777145,2.62328808 C9.97777145,3.97200454 8.87190015,5.06564067 7.50496703,5.06564067 Z" id="Shape"></path>
                            <path d="M7.50496703,24.6036314 L2.55963829,24.6036314 C1.19298528,24.6036314 0.0868338662,23.5099952 0.0868338662,22.1612788 C0.0868338662,20.8125623 1.19270517,19.7189262 2.55963829,19.7189262 L7.50496703,19.7189262 C8.87162004,19.7189262 9.97777145,20.8125623 9.97777145,22.1612788 C9.97777145,23.5099952 8.87190015,24.6036314 7.50496703,24.6036314 Z" id="Shape"></path>
                        </g>
                        <path d="M97.1978369,49.2454418 L92.1560133,49.2454418 C90.7626937,49.2454418 89.6349587,48.2431184 89.6349587,47.0070126 C89.6349587,45.7709068 90.7624081,44.7685835 92.1560133,44.7685835 L97.1978369,44.7685835 C98.5911565,44.7685835 99.7188916,45.7709068 99.7188916,47.0070126 C99.7188916,48.2431184 98.5911565,49.2454418 97.1978369,49.2454418 Z" id="Shape" fill="#A0FFB4" fill-rule="nonzero"></path>
                        <path d="M131.987384,39.1725105 L99.943072,39.1725105 C98.5807022,39.1725105 97.4780176,38.1701872 97.4780176,36.9340813 C97.4780176,35.6979755 98.580423,34.6956522 99.943072,34.6956522 L131.987384,34.6956522 C133.349753,34.6956522 134.452438,35.6979755 134.452438,36.9340813 C134.452438,38.1701872 133.350033,39.1725105 131.987384,39.1725105 Z" id="Shape" fill="#FFFFFF" fill-rule="nonzero"></path>
                        <path d="M131.987384,59.3183731 L99.943072,59.3183731 C98.5807022,59.3183731 97.4780176,58.3160497 97.4780176,57.0799439 C97.4780176,55.8438381 98.580423,54.8415147 99.943072,54.8415147 L131.987384,54.8415147 C133.349753,54.8415147 134.452438,55.8438381 134.452438,57.0799439 C134.452438,58.3160497 133.350033,59.3183731 131.987384,59.3183731 Z" id="Shape" fill="#FFF082" fill-rule="nonzero"></path>
                        <path d="M131.93136,49.2454418 L106.721718,49.2454418 C105.328385,49.2454418 104.200639,48.2431184 104.200639,47.0070126 C104.200639,45.7709068 105.3281,44.7685835 106.721718,44.7685835 L131.93136,44.7685835 C133.324692,44.7685835 134.452438,45.7709068 134.452438,47.0070126 C134.452438,48.2431184 133.324978,49.2454418 131.93136,49.2454418 Z" id="Shape" fill="#D5DCED" fill-rule="nonzero"></path>
                        <path d="M97.1978369,69.3913043 L92.1560133,69.3913043 C90.7626937,69.3913043 89.6349587,68.388981 89.6349587,67.1528752 C89.6349587,65.9167694 90.7624081,64.914446 92.1560133,64.914446 L97.1978369,64.914446 C98.5911565,64.914446 99.7188916,65.9167694 99.7188916,67.1528752 C99.7188916,68.388981 98.5911565,69.3913043 97.1978369,69.3913043 Z" id="Shape" fill="#A0FFB4" fill-rule="nonzero"></path>
                        <path d="M131.93136,69.3913043 L106.721718,69.3913043 C105.328385,69.3913043 104.200639,68.388981 104.200639,67.1528752 C104.200639,65.9167694 105.3281,64.914446 106.721718,64.914446 L131.93136,64.914446 C133.324692,64.914446 134.452438,65.9167694 134.452438,67.1528752 C134.452438,68.388981 133.324978,69.3913043 131.93136,69.3913043 Z" id="Shape" fill="#D5DCED" fill-rule="nonzero"></path>
                        <g id="Group" transform="translate(81.791900, 74.987377)" fill="#FF5050" fill-rule="nonzero">
                            <path d="M7.50496703,5.30627097 L2.55963829,5.30627097 C1.19298528,5.30627097 0.0868338662,4.17562796 0.0868338662,2.78127312 C0.0868338662,1.38691828 1.19270517,0.256275269 2.55963829,0.256275269 L7.50496703,0.256275269 C8.87162004,0.256275269 9.97777145,1.38691828 9.97777145,2.78127312 C9.97777145,4.17562796 8.87190015,5.30627097 7.50496703,5.30627097 Z" id="Shape"></path>
                            <path d="M7.50496703,25.5051097 L2.55963829,25.5051097 C1.19298528,25.5051097 0.0868338662,24.3744667 0.0868338662,22.9801118 C0.0868338662,21.585757 1.19270517,20.455114 2.55963829,20.455114 L7.50496703,20.455114 C8.87162004,20.455114 9.97777145,21.585757 9.97777145,22.9801118 C9.97777145,24.3744667 8.87190015,25.5051097 7.50496703,25.5051097 Z" id="Shape"></path>
                        </g>
                        <path d="M97.1978369,89.5371669 L92.1560133,89.5371669 C90.7626937,89.5371669 89.6349587,88.5348436 89.6349587,87.2987377 C89.6349587,86.0626319 90.7624081,85.0603086 92.1560133,85.0603086 L97.1978369,85.0603086 C98.5911565,85.0603086 99.7188916,86.0626319 99.7188916,87.2987377 C99.7188916,88.5348436 98.5911565,89.5371669 97.1978369,89.5371669 Z" id="Shape" fill="#A0FFB4" fill-rule="nonzero"></path>
                        <path d="M131.987384,79.4642356 L99.943072,79.4642356 C98.5807022,79.4642356 97.4780176,78.4619123 97.4780176,77.2258065 C97.4780176,75.9897006 98.580423,74.9873773 99.943072,74.9873773 L131.987384,74.9873773 C133.349753,74.9873773 134.452438,75.9897006 134.452438,77.2258065 C134.452438,78.4619123 133.350033,79.4642356 131.987384,79.4642356 Z" id="Shape" fill="#FFFFFF" fill-rule="nonzero"></path>
                        <path d="M131.987384,99.6100982 L99.943072,99.6100982 C98.5807022,99.6100982 97.4780176,98.6077748 97.4780176,97.371669 C97.4780176,96.1355632 98.580423,95.1332398 99.943072,95.1332398 L131.987384,95.1332398 C133.349753,95.1332398 134.452438,96.1355632 134.452438,97.371669 C134.452438,98.6077748 133.350033,99.6100982 131.987384,99.6100982 Z" id="Shape" fill="#FFF082" fill-rule="nonzero"></path>
                        <path d="M131.93136,89.5371669 L106.721718,89.5371669 C105.328385,89.5371669 104.200639,88.5348436 104.200639,87.2987377 C104.200639,86.0626319 105.3281,85.0603086 106.721718,85.0603086 L131.93136,85.0603086 C133.324692,85.0603086 134.452438,86.0626319 134.452438,87.2987377 C134.452438,88.5348436 133.324978,89.5371669 131.93136,89.5371669 Z" id="Shape" fill="#D5DCED" fill-rule="nonzero"></path>
                        <path d="M97.1978369,108.563815 L92.1560133,108.563815 C90.7626937,108.563815 89.6349587,107.561492 89.6349587,106.325386 C89.6349587,105.08928 90.7624081,104.086957 92.1560133,104.086957 L97.1978369,104.086957 C98.5911565,104.086957 99.7188916,105.08928 99.7188916,106.325386 C99.7188916,107.561492 98.5911565,108.563815 97.1978369,108.563815 Z" id="Shape" fill="#A0FFB4" fill-rule="nonzero"></path>
                        <path d="M131.93136,108.563815 L106.721718,108.563815 C105.328385,108.563815 104.200639,107.561492 104.200639,106.325386 C104.200639,105.08928 105.3281,104.086957 106.721718,104.086957 L131.93136,104.086957 C133.324692,104.086957 134.452438,105.08928 134.452438,106.325386 C134.452438,107.561492 133.324978,108.563815 131.93136,108.563815 Z" id="Shape" fill="#D5DCED" fill-rule="nonzero"></path>
                    </g>
                    <g id="code-copy-3" opacity="0.300000012" transform="translate(6.000000, 11.000000)">
                        <path d="M139.552407,126.471248 L4.98396412,126.471248 C2.23128023,126.471248 0,124.242051 0,121.491937 L0,9.4561694 C0,6.70605543 2.23128023,4.47685835 4.98396412,4.47685835 L139.552407,4.47685835 C142.305091,4.47685835 144.536371,6.70605543 144.536371,9.4561694 L144.536371,121.491655 C144.536371,124.242051 142.305091,126.471248 139.552407,126.471248 Z" id="Shape" fill="url(#linearGradient-1)" fill-rule="nonzero"></path>
                        <polyline id="Path-7" stroke="url(#linearGradient-2)" stroke-width="2" points="1.12043698 99.6100982 1.73424159 97.9747691 6.49122731 97.9747691 9.02317132 98.7924336 12.9361757 98.7924336 16.6190033 94.7041109 20.1483798 89.7981237 23.9079331 87.8902397 27.6674863 87.8902397 31.2735884 76.4429361 35.0331416 78.6233749 38.6392437 66.6309616 42.3220713 68.2662907 46.004899 59.2719808 49.7644522 66.6309616 53.4472799 62.5426389 56.9766564 49.7325611 60.5827584 49.7325611 64.3423117 47.0070126 67.9484137 56.0013226 71.707967 47.0070126"></polyline>
                        <path d="M139.591042,126.471248 L72.8284039,126.471248 L72.8284039,16.7882188 L144.536371,16.7882188 L144.536371,121.485707 C144.536371,124.239262 142.322387,126.471248 139.591042,126.471248 Z" id="Shape" fill="url(#radialGradient-3)" fill-rule="nonzero"></path>
                        <path d="M144.536371,16.7882188 L0,16.7882188 L0,9.40134674 C0,6.68151177 2.23128023,4.47685835 4.98396412,4.47685835 L139.552407,4.47685835 C142.305091,4.47685835 144.536371,6.68151177 144.536371,9.40134674 L144.536371,16.7882188 Z" id="Shape" fill="#88AFFE" fill-rule="nonzero"></path>
                        <path d="M7.46957989,14.5497896 L4.85522693,14.5497896 C3.41152839,14.5497896 2.24087397,13.3804124 2.24087397,11.9382889 L2.24087397,9.32678822 C2.24087397,7.88466476 3.41152839,6.71528752 4.85522693,6.71528752 L7.46957989,6.71528752 C8.91327843,6.71528752 10.0839329,7.88466476 10.0839329,9.32678822 L10.0839329,11.9382889 C10.0836367,13.3807082 8.91327843,14.5497896 7.46957989,14.5497896 Z" id="Shape" fill="#E4EAF8" fill-rule="nonzero"></path>
                        <path d="M119.513278,14.5497896 L116.898925,14.5497896 C115.455227,14.5497896 114.284572,13.3804124 114.284572,11.9382889 L114.284572,9.32678822 C114.284572,7.88466476 115.455227,6.71528752 116.898925,6.71528752 L119.513278,6.71528752 C120.956977,6.71528752 122.127631,7.88466476 122.127631,9.32678822 L122.127631,11.9382889 C122.127631,13.3807082 120.956977,14.5497896 119.513278,14.5497896 Z" id="Shape" fill="#FF5050" fill-rule="nonzero"></path>
                        <path d="M129.597211,14.5497896 L126.982858,14.5497896 C125.53916,14.5497896 124.368505,13.3804124 124.368505,11.9382889 L124.368505,9.32678822 C124.368505,7.88466476 125.53916,6.71528752 126.982858,6.71528752 L129.597211,6.71528752 C131.04091,6.71528752 132.211564,7.88466476 132.211564,9.32678822 L132.211564,11.9382889 C132.211564,13.3807082 131.041206,14.5497896 129.597211,14.5497896 Z" id="Shape" fill="#FFF082" fill-rule="nonzero"></path>
                        <path d="M139.681144,14.5497896 L137.066791,14.5497896 C135.623092,14.5497896 134.452438,13.3804124 134.452438,11.9382889 L134.452438,9.32678822 C134.452438,7.88466476 135.623092,6.71528752 137.066791,6.71528752 L139.681144,6.71528752 C141.124843,6.71528752 142.295497,7.88466476 142.295497,9.32678822 L142.295497,11.9382889 C142.295201,13.3807082 141.124843,14.5497896 139.681144,14.5497896 Z" id="Shape" fill="#A0FFB4" fill-rule="nonzero"></path>
                        <path d="M71.707967,132.067321 C70.4694957,132.067321 69.467093,130.951475 69.467093,129.575368 L69.467093,2.49195342 C69.467093,1.11584638 70.4692419,0 71.707967,0 C72.9464382,0 73.9488409,1.11584638 73.9488409,2.49195342 L73.9488409,129.57565 C73.9488409,130.951475 72.9464382,132.067321 71.707967,132.067321 Z" id="Shape" fill="#FFFFFF" fill-rule="nonzero"></path>
                        <g id="Group" transform="translate(81.791900, 34.695652)" fill="#FF5050" fill-rule="nonzero">
                            <path d="M7.50496703,5.06564067 L2.55963829,5.06564067 C1.19298528,5.06564067 0.0868338662,3.97200454 0.0868338662,2.62328808 C0.0868338662,1.27457163 1.19270517,0.1809355 2.55963829,0.1809355 L7.50496703,0.1809355 C8.87162004,0.1809355 9.97777145,1.27457163 9.97777145,2.62328808 C9.97777145,3.97200454 8.87190015,5.06564067 7.50496703,5.06564067 Z" id="Shape"></path>
                            <path d="M7.50496703,24.6036314 L2.55963829,24.6036314 C1.19298528,24.6036314 0.0868338662,23.5099952 0.0868338662,22.1612788 C0.0868338662,20.8125623 1.19270517,19.7189262 2.55963829,19.7189262 L7.50496703,19.7189262 C8.87162004,19.7189262 9.97777145,20.8125623 9.97777145,22.1612788 C9.97777145,23.5099952 8.87190015,24.6036314 7.50496703,24.6036314 Z" id="Shape"></path>
                        </g>
                        <path d="M97.1978369,49.2454418 L92.1560133,49.2454418 C90.7626937,49.2454418 89.6349587,48.2431184 89.6349587,47.0070126 C89.6349587,45.7709068 90.7624081,44.7685835 92.1560133,44.7685835 L97.1978369,44.7685835 C98.5911565,44.7685835 99.7188916,45.7709068 99.7188916,47.0070126 C99.7188916,48.2431184 98.5911565,49.2454418 97.1978369,49.2454418 Z" id="Shape" fill="#A0FFB4" fill-rule="nonzero"></path>
                        <path d="M131.987384,39.1725105 L99.943072,39.1725105 C98.5807022,39.1725105 97.4780176,38.1701872 97.4780176,36.9340813 C97.4780176,35.6979755 98.580423,34.6956522 99.943072,34.6956522 L131.987384,34.6956522 C133.349753,34.6956522 134.452438,35.6979755 134.452438,36.9340813 C134.452438,38.1701872 133.350033,39.1725105 131.987384,39.1725105 Z" id="Shape" fill="#FFFFFF" fill-rule="nonzero"></path>
                        <path d="M131.987384,59.3183731 L99.943072,59.3183731 C98.5807022,59.3183731 97.4780176,58.3160497 97.4780176,57.0799439 C97.4780176,55.8438381 98.580423,54.8415147 99.943072,54.8415147 L131.987384,54.8415147 C133.349753,54.8415147 134.452438,55.8438381 134.452438,57.0799439 C134.452438,58.3160497 133.350033,59.3183731 131.987384,59.3183731 Z" id="Shape" fill="#FFF082" fill-rule="nonzero"></path>
                        <path d="M131.93136,49.2454418 L106.721718,49.2454418 C105.328385,49.2454418 104.200639,48.2431184 104.200639,47.0070126 C104.200639,45.7709068 105.3281,44.7685835 106.721718,44.7685835 L131.93136,44.7685835 C133.324692,44.7685835 134.452438,45.7709068 134.452438,47.0070126 C134.452438,48.2431184 133.324978,49.2454418 131.93136,49.2454418 Z" id="Shape" fill="#D5DCED" fill-rule="nonzero"></path>
                        <path d="M97.1978369,69.3913043 L92.1560133,69.3913043 C90.7626937,69.3913043 89.6349587,68.388981 89.6349587,67.1528752 C89.6349587,65.9167694 90.7624081,64.914446 92.1560133,64.914446 L97.1978369,64.914446 C98.5911565,64.914446 99.7188916,65.9167694 99.7188916,67.1528752 C99.7188916,68.388981 98.5911565,69.3913043 97.1978369,69.3913043 Z" id="Shape" fill="#A0FFB4" fill-rule="nonzero"></path>
                        <path d="M131.93136,69.3913043 L106.721718,69.3913043 C105.328385,69.3913043 104.200639,68.388981 104.200639,67.1528752 C104.200639,65.9167694 105.3281,64.914446 106.721718,64.914446 L131.93136,64.914446 C133.324692,64.914446 134.452438,65.9167694 134.452438,67.1528752 C134.452438,68.388981 133.324978,69.3913043 131.93136,69.3913043 Z" id="Shape" fill="#D5DCED" fill-rule="nonzero"></path>
                        <g id="Group" transform="translate(81.791900, 74.987377)" fill="#FF5050" fill-rule="nonzero">
                            <path d="M7.50496703,5.30627097 L2.55963829,5.30627097 C1.19298528,5.30627097 0.0868338662,4.17562796 0.0868338662,2.78127312 C0.0868338662,1.38691828 1.19270517,0.256275269 2.55963829,0.256275269 L7.50496703,0.256275269 C8.87162004,0.256275269 9.97777145,1.38691828 9.97777145,2.78127312 C9.97777145,4.17562796 8.87190015,5.30627097 7.50496703,5.30627097 Z" id="Shape"></path>
                            <path d="M7.50496703,25.5051097 L2.55963829,25.5051097 C1.19298528,25.5051097 0.0868338662,24.3744667 0.0868338662,22.9801118 C0.0868338662,21.585757 1.19270517,20.455114 2.55963829,20.455114 L7.50496703,20.455114 C8.87162004,20.455114 9.97777145,21.585757 9.97777145,22.9801118 C9.97777145,24.3744667 8.87190015,25.5051097 7.50496703,25.5051097 Z" id="Shape"></path>
                        </g>
                        <path d="M97.1978369,89.5371669 L92.1560133,89.5371669 C90.7626937,89.5371669 89.6349587,88.5348436 89.6349587,87.2987377 C89.6349587,86.0626319 90.7624081,85.0603086 92.1560133,85.0603086 L97.1978369,85.0603086 C98.5911565,85.0603086 99.7188916,86.0626319 99.7188916,87.2987377 C99.7188916,88.5348436 98.5911565,89.5371669 97.1978369,89.5371669 Z" id="Shape" fill="#A0FFB4" fill-rule="nonzero"></path>
                        <path d="M131.987384,79.4642356 L99.943072,79.4642356 C98.5807022,79.4642356 97.4780176,78.4619123 97.4780176,77.2258065 C97.4780176,75.9897006 98.580423,74.9873773 99.943072,74.9873773 L131.987384,74.9873773 C133.349753,74.9873773 134.452438,75.9897006 134.452438,77.2258065 C134.452438,78.4619123 133.350033,79.4642356 131.987384,79.4642356 Z" id="Shape" fill="#FFFFFF" fill-rule="nonzero"></path>
                        <path d="M131.987384,99.6100982 L99.943072,99.6100982 C98.5807022,99.6100982 97.4780176,98.6077748 97.4780176,97.371669 C97.4780176,96.1355632 98.580423,95.1332398 99.943072,95.1332398 L131.987384,95.1332398 C133.349753,95.1332398 134.452438,96.1355632 134.452438,97.371669 C134.452438,98.6077748 133.350033,99.6100982 131.987384,99.6100982 Z" id="Shape" fill="#FFF082" fill-rule="nonzero"></path>
                        <path d="M131.93136,89.5371669 L106.721718,89.5371669 C105.328385,89.5371669 104.200639,88.5348436 104.200639,87.2987377 C104.200639,86.0626319 105.3281,85.0603086 106.721718,85.0603086 L131.93136,85.0603086 C133.324692,85.0603086 134.452438,86.0626319 134.452438,87.2987377 C134.452438,88.5348436 133.324978,89.5371669 131.93136,89.5371669 Z" id="Shape" fill="#D5DCED" fill-rule="nonzero"></path>
                        <path d="M97.1978369,108.563815 L92.1560133,108.563815 C90.7626937,108.563815 89.6349587,107.561492 89.6349587,106.325386 C89.6349587,105.08928 90.7624081,104.086957 92.1560133,104.086957 L97.1978369,104.086957 C98.5911565,104.086957 99.7188916,105.08928 99.7188916,106.325386 C99.7188916,107.561492 98.5911565,108.563815 97.1978369,108.563815 Z" id="Shape" fill="#A0FFB4" fill-rule="nonzero"></path>
                        <path d="M131.93136,108.563815 L106.721718,108.563815 C105.328385,108.563815 104.200639,107.561492 104.200639,106.325386 C104.200639,105.08928 105.3281,104.086957 106.721718,104.086957 L131.93136,104.086957 C133.324692,104.086957 134.452438,105.08928 134.452438,106.325386 C134.452438,107.561492 133.324978,108.563815 131.93136,108.563815 Z" id="Shape" fill="#D5DCED" fill-rule="nonzero"></path>
                    </g>
                    <g id="code-copy-4" filter="url(#filter-4)">
                        <path d="M139.552407,126.471248 L4.98396412,126.471248 C2.23128023,126.471248 0,124.242051 0,121.491937 L0,9.4561694 C0,6.70605543 2.23128023,4.47685835 4.98396412,4.47685835 L139.552407,4.47685835 C142.305091,4.47685835 144.536371,6.70605543 144.536371,9.4561694 L144.536371,121.491655 C144.536371,124.242051 142.305091,126.471248 139.552407,126.471248 Z" id="Shape" fill="url(#linearGradient-1)" fill-rule="nonzero"></path>
                        <g id="Path-7">
                            <use fill="black" fill-opacity="1" filter="url(#filter-7)" xlink:href="#path-6"></use>
                            <use stroke="url(#linearGradient-5)" stroke-width="2" xlink:href="#path-6"></use>
                        </g>
                        <g id="Path-7" opacity="0.300000012">
                            <use fill="black" fill-opacity="1" filter="url(#filter-9)" xlink:href="#path-8"></use>
                            <use stroke="url(#linearGradient-5)" stroke-width="2" xlink:href="#path-8"></use>
                        </g>
                        <g id="Path-7" opacity="0.100000001">
                            <use fill="black" fill-opacity="1" filter="url(#filter-11)" xlink:href="#path-10"></use>
                            <use stroke="url(#linearGradient-5)" stroke-width="2" xlink:href="#path-10"></use>
                        </g>
                        <path d="M139.591042,126.471248 L72.8284039,126.471248 L72.8284039,16.7882188 L144.536371,16.7882188 L144.536371,121.485707 C144.536371,124.239262 142.322387,126.471248 139.591042,126.471248 Z" id="Shape" fill="url(#radialGradient-3)" fill-rule="nonzero"></path>
                        <path d="M144.536371,16.7882188 L0,16.7882188 L0,9.40134674 C0,6.68151177 2.23128023,4.47685835 4.98396412,4.47685835 L139.552407,4.47685835 C142.305091,4.47685835 144.536371,6.68151177 144.536371,9.40134674 L144.536371,16.7882188 Z" id="Shape" fill="#88AFFE" fill-rule="nonzero"></path>
                        <path d="M7.46957989,14.5497896 L4.85522693,14.5497896 C3.41152839,14.5497896 2.24087397,13.3804124 2.24087397,11.9382889 L2.24087397,9.32678822 C2.24087397,7.88466476 3.41152839,6.71528752 4.85522693,6.71528752 L7.46957989,6.71528752 C8.91327843,6.71528752 10.0839329,7.88466476 10.0839329,9.32678822 L10.0839329,11.9382889 C10.0836367,13.3807082 8.91327843,14.5497896 7.46957989,14.5497896 Z" id="Shape" fill="#E4EAF8" fill-rule="nonzero"></path>
                        <path d="M119.513278,14.5497896 L116.898925,14.5497896 C115.455227,14.5497896 114.284572,13.3804124 114.284572,11.9382889 L114.284572,9.32678822 C114.284572,7.88466476 115.455227,6.71528752 116.898925,6.71528752 L119.513278,6.71528752 C120.956977,6.71528752 122.127631,7.88466476 122.127631,9.32678822 L122.127631,11.9382889 C122.127631,13.3807082 120.956977,14.5497896 119.513278,14.5497896 Z" id="Shape" fill="#FF5050" fill-rule="nonzero"></path>
                        <path d="M129.597211,14.5497896 L126.982858,14.5497896 C125.53916,14.5497896 124.368505,13.3804124 124.368505,11.9382889 L124.368505,9.32678822 C124.368505,7.88466476 125.53916,6.71528752 126.982858,6.71528752 L129.597211,6.71528752 C131.04091,6.71528752 132.211564,7.88466476 132.211564,9.32678822 L132.211564,11.9382889 C132.211564,13.3807082 131.041206,14.5497896 129.597211,14.5497896 Z" id="Shape" fill="#FFF082" fill-rule="nonzero"></path>
                        <path d="M139.681144,14.5497896 L137.066791,14.5497896 C135.623092,14.5497896 134.452438,13.3804124 134.452438,11.9382889 L134.452438,9.32678822 C134.452438,7.88466476 135.623092,6.71528752 137.066791,6.71528752 L139.681144,6.71528752 C141.124843,6.71528752 142.295497,7.88466476 142.295497,9.32678822 L142.295497,11.9382889 C142.295201,13.3807082 141.124843,14.5497896 139.681144,14.5497896 Z" id="Shape" fill="#A0FFB4" fill-rule="nonzero"></path>
                        <path d="M71.707967,132.067321 C70.4694957,132.067321 69.467093,130.951475 69.467093,129.575368 L69.467093,2.49195342 C69.467093,1.11584638 70.4692419,0 71.707967,0 C72.9464382,0 73.9488409,1.11584638 73.9488409,2.49195342 L73.9488409,129.57565 C73.9488409,130.951475 72.9464382,132.067321 71.707967,132.067321 Z" id="Shape" fill="#FFFFFF" fill-rule="nonzero"></path>
                        <g id="Group" transform="translate(81.791900, 34.695652)" fill="#FF5050" fill-rule="nonzero">
                            <path d="M7.50496703,5.06564067 L2.55963829,5.06564067 C1.19298528,5.06564067 0.0868338662,3.97200454 0.0868338662,2.62328808 C0.0868338662,1.27457163 1.19270517,0.1809355 2.55963829,0.1809355 L7.50496703,0.1809355 C8.87162004,0.1809355 9.97777145,1.27457163 9.97777145,2.62328808 C9.97777145,3.97200454 8.87190015,5.06564067 7.50496703,5.06564067 Z" id="Shape"></path>
                            <path d="M7.50496703,24.6036314 L2.55963829,24.6036314 C1.19298528,24.6036314 0.0868338662,23.5099952 0.0868338662,22.1612788 C0.0868338662,20.8125623 1.19270517,19.7189262 2.55963829,19.7189262 L7.50496703,19.7189262 C8.87162004,19.7189262 9.97777145,20.8125623 9.97777145,22.1612788 C9.97777145,23.5099952 8.87190015,24.6036314 7.50496703,24.6036314 Z" id="Shape"></path>
                        </g>
                        <path d="M97.1978369,49.2454418 L92.1560133,49.2454418 C90.7626937,49.2454418 89.6349587,48.2431184 89.6349587,47.0070126 C89.6349587,45.7709068 90.7624081,44.7685835 92.1560133,44.7685835 L97.1978369,44.7685835 C98.5911565,44.7685835 99.7188916,45.7709068 99.7188916,47.0070126 C99.7188916,48.2431184 98.5911565,49.2454418 97.1978369,49.2454418 Z" id="Shape" fill="#A0FFB4" fill-rule="nonzero"></path>
                        <path d="M131.987384,39.1725105 L99.943072,39.1725105 C98.5807022,39.1725105 97.4780176,38.1701872 97.4780176,36.9340813 C97.4780176,35.6979755 98.580423,34.6956522 99.943072,34.6956522 L131.987384,34.6956522 C133.349753,34.6956522 134.452438,35.6979755 134.452438,36.9340813 C134.452438,38.1701872 133.350033,39.1725105 131.987384,39.1725105 Z" id="Shape" fill="#FFFFFF" fill-rule="nonzero"></path>
                        <path d="M131.987384,59.3183731 L99.943072,59.3183731 C98.5807022,59.3183731 97.4780176,58.3160497 97.4780176,57.0799439 C97.4780176,55.8438381 98.580423,54.8415147 99.943072,54.8415147 L131.987384,54.8415147 C133.349753,54.8415147 134.452438,55.8438381 134.452438,57.0799439 C134.452438,58.3160497 133.350033,59.3183731 131.987384,59.3183731 Z" id="Shape" fill="#FFF082" fill-rule="nonzero"></path>
                        <path d="M131.93136,49.2454418 L106.721718,49.2454418 C105.328385,49.2454418 104.200639,48.2431184 104.200639,47.0070126 C104.200639,45.7709068 105.3281,44.7685835 106.721718,44.7685835 L131.93136,44.7685835 C133.324692,44.7685835 134.452438,45.7709068 134.452438,47.0070126 C134.452438,48.2431184 133.324978,49.2454418 131.93136,49.2454418 Z" id="Shape" fill="#D5DCED" fill-rule="nonzero"></path>
                        <path d="M97.1978369,69.3913043 L92.1560133,69.3913043 C90.7626937,69.3913043 89.6349587,68.388981 89.6349587,67.1528752 C89.6349587,65.9167694 90.7624081,64.914446 92.1560133,64.914446 L97.1978369,64.914446 C98.5911565,64.914446 99.7188916,65.9167694 99.7188916,67.1528752 C99.7188916,68.388981 98.5911565,69.3913043 97.1978369,69.3913043 Z" id="Shape" fill="#A0FFB4" fill-rule="nonzero"></path>
                        <path d="M131.93136,69.3913043 L106.721718,69.3913043 C105.328385,69.3913043 104.200639,68.388981 104.200639,67.1528752 C104.200639,65.9167694 105.3281,64.914446 106.721718,64.914446 L131.93136,64.914446 C133.324692,64.914446 134.452438,65.9167694 134.452438,67.1528752 C134.452438,68.388981 133.324978,69.3913043 131.93136,69.3913043 Z" id="Shape" fill="#D5DCED" fill-rule="nonzero"></path>
                        <g id="Group" transform="translate(81.791900, 74.987377)" fill="#FF5050" fill-rule="nonzero">
                            <path d="M7.50496703,5.30627097 L2.55963829,5.30627097 C1.19298528,5.30627097 0.0868338662,4.17562796 0.0868338662,2.78127312 C0.0868338662,1.38691828 1.19270517,0.256275269 2.55963829,0.256275269 L7.50496703,0.256275269 C8.87162004,0.256275269 9.97777145,1.38691828 9.97777145,2.78127312 C9.97777145,4.17562796 8.87190015,5.30627097 7.50496703,5.30627097 Z" id="Shape"></path>
                            <path d="M7.50496703,25.5051097 L2.55963829,25.5051097 C1.19298528,25.5051097 0.0868338662,24.3744667 0.0868338662,22.9801118 C0.0868338662,21.585757 1.19270517,20.455114 2.55963829,20.455114 L7.50496703,20.455114 C8.87162004,20.455114 9.97777145,21.585757 9.97777145,22.9801118 C9.97777145,24.3744667 8.87190015,25.5051097 7.50496703,25.5051097 Z" id="Shape"></path>
                        </g>
                        <path d="M97.1978369,89.5371669 L92.1560133,89.5371669 C90.7626937,89.5371669 89.6349587,88.5348436 89.6349587,87.2987377 C89.6349587,86.0626319 90.7624081,85.0603086 92.1560133,85.0603086 L97.1978369,85.0603086 C98.5911565,85.0603086 99.7188916,86.0626319 99.7188916,87.2987377 C99.7188916,88.5348436 98.5911565,89.5371669 97.1978369,89.5371669 Z" id="Shape" fill="#A0FFB4" fill-rule="nonzero"></path>
                        <path d="M131.987384,79.4642356 L99.943072,79.4642356 C98.5807022,79.4642356 97.4780176,78.4619123 97.4780176,77.2258065 C97.4780176,75.9897006 98.580423,74.9873773 99.943072,74.9873773 L131.987384,74.9873773 C133.349753,74.9873773 134.452438,75.9897006 134.452438,77.2258065 C134.452438,78.4619123 133.350033,79.4642356 131.987384,79.4642356 Z" id="Shape" fill="#FFFFFF" fill-rule="nonzero"></path>
                        <path d="M131.987384,99.6100982 L99.943072,99.6100982 C98.5807022,99.6100982 97.4780176,98.6077748 97.4780176,97.371669 C97.4780176,96.1355632 98.580423,95.1332398 99.943072,95.1332398 L131.987384,95.1332398 C133.349753,95.1332398 134.452438,96.1355632 134.452438,97.371669 C134.452438,98.6077748 133.350033,99.6100982 131.987384,99.6100982 Z" id="Shape" fill="#FFF082" fill-rule="nonzero"></path>
                        <path d="M131.93136,89.5371669 L106.721718,89.5371669 C105.328385,89.5371669 104.200639,88.5348436 104.200639,87.2987377 C104.200639,86.0626319 105.3281,85.0603086 106.721718,85.0603086 L131.93136,85.0603086 C133.324692,85.0603086 134.452438,86.0626319 134.452438,87.2987377 C134.452438,88.5348436 133.324978,89.5371669 131.93136,89.5371669 Z" id="Shape" fill="#D5DCED" fill-rule="nonzero"></path>
                        <path d="M97.1978369,108.563815 L92.1560133,108.563815 C90.7626937,108.563815 89.6349587,107.561492 89.6349587,106.325386 C89.6349587,105.08928 90.7624081,104.086957 92.1560133,104.086957 L97.1978369,104.086957 C98.5911565,104.086957 99.7188916,105.08928 99.7188916,106.325386 C99.7188916,107.561492 98.5911565,108.563815 97.1978369,108.563815 Z" id="Shape" fill="#A0FFB4" fill-rule="nonzero"></path>
                        <path d="M131.93136,108.563815 L106.721718,108.563815 C105.328385,108.563815 104.200639,107.561492 104.200639,106.325386 C104.200639,105.08928 105.3281,104.086957 106.721718,104.086957 L131.93136,104.086957 C133.324692,104.086957 134.452438,105.08928 134.452438,106.325386 C134.452438,107.561492 133.324978,108.563815 131.93136,108.563815 Z" id="Shape" fill="#D5DCED" fill-rule="nonzero"></path>
                    </g>
                </g>
            </g>
        </g>
    </g>
</svg>