<?xml version="1.0" encoding="UTF-8"?>
<svg width="24px" height="24px" viewBox="0 0 24 24" version="1.1" xmlns="http://www.w3.org/2000/svg" xmlns:xlink="http://www.w3.org/1999/xlink">
    <!-- Generator: Sketch 49.1 (51147) - http://www.bohemiancoding.com/sketch -->
    <title>google</title>
    <desc>Created with Sketch.</desc>
    <defs></defs>
    <g id="Page-9" stroke="none" stroke-width="1" fill="none" fill-rule="evenodd">
        <g id="Artboard" transform="translate(-571.000000, -259.000000)" fill="#FFFFFF">
            <g id="Bars/Social-Media/Icons/google-+-base-+-Bars/Social-Media/Icons/twitter-+-Bars/Social-Media/Icons/reddit-+-Rectangle-3-+-Bars/Social-Media/Icons/telegram-+-Bars/Social-Media/Icons/Linked-In-Mask" transform="translate(491.000000, 259.000000)">
                <path d="M92,0 C98.627417,-1.21743675e-15 104,5.372583 104,12 C104,18.627417 98.627417,24 92,24 C85.372583,24 80,18.627417 80,12 C80,5.372583 85.372583,1.21743675e-15 92,0 Z M98.8210526,10.8631579 L98.8210526,8.84210526 L97.8105263,8.84210526 L97.8105263,10.8631579 L95.7894737,10.8631579 L95.7894737,11.8736842 L97.8105263,11.8736842 L97.8105263,13.8947368 L98.8210526,13.8947368 L98.8210526,11.8736842 L100.842105,11.8736842 L100.842105,10.8631579 L98.8210526,10.8631579 Z M89.1578947,11.2421053 L89.1578947,13.3894737 L92.1953474,13.3894737 C91.7519158,14.6392421 90.5579789,15.5368421 89.1578947,15.5368421 C87.3820211,15.5368421 85.9368421,14.0916632 85.9368421,12.3157895 C85.9368421,10.5399158 87.3820211,9.09473684 89.1578947,9.09473684 C89.9277263,9.09473684 90.6685684,9.37067368 91.2440632,9.87208421 L92.6548842,8.25296842 C91.6885684,7.4112 90.4473895,6.94736842 89.1578947,6.94736842 C86.1977474,6.94736842 83.7894737,9.35564211 83.7894737,12.3157895 C83.7894737,15.2759368 86.1977474,17.6842105 89.1578947,17.6842105 C92.1180421,17.6842105 94.5263158,15.2759368 94.5263158,12.3157895 L94.5263158,11.2421053 L89.1578947,11.2421053 Z" id="google"></path>
            </g>
        </g>
    </g>
</svg>