<?xml version="1.0" encoding="UTF-8"?>
<svg width="24px" height="24px" viewBox="0 0 24 24" version="1.1" xmlns="http://www.w3.org/2000/svg" xmlns:xlink="http://www.w3.org/1999/xlink">
    <!-- Generator: Sketch 49.1 (51147) - http://www.bohemiancoding.com/sketch -->
    <title>linkedin</title>
    <desc>Created with Sketch.</desc>
    <defs></defs>
    <g id="Page-9" stroke="none" stroke-width="1" fill="none" fill-rule="evenodd">
        <g id="Artboard" transform="translate(-771.000000, -259.000000)" fill="#FFFFFF" fill-rule="nonzero">
            <g id="Bars/Social-Media/Icons/google-+-base-+-Bars/Social-Media/Icons/twitter-+-Bars/Social-Media/Icons/reddit-+-Rectangle-3-+-Bars/Social-Media/Icons/telegram-+-Bars/Social-Media/Icons/Linked-In-Mask" transform="translate(491.000000, 259.000000)">
                <path d="M291.985018,0 C285.366292,0 280,5.36629158 280,11.9850185 C280,18.6037454 285.366292,23.970037 291.985018,23.970037 C298.603745,23.970037 303.970037,18.6037454 303.970037,11.9850185 C303.970037,5.36481314 298.603745,0 291.985018,0 Z M288.988764,17.7902587 L285.992509,17.7902587 L285.992509,7.30334292 L288.988764,7.30334292 L288.988764,17.7902587 Z M287.583507,6.6606653 C286.807474,6.6606653 286.179778,6.03144148 286.179778,5.25540862 C286.179778,4.47937577 286.809002,3.85015195 287.583507,3.85015195 C288.35954,3.85163039 288.988764,4.48085421 288.988764,5.25540862 C288.988764,6.03144148 288.35954,6.6606653 287.583507,6.6606653 Z M299.47563,17.7902587 L296.479376,17.7902587 L296.479376,11.3063655 C296.479376,10.5467926 296.262144,10.0149979 295.328805,10.0149979 C293.781224,10.0149979 293.483121,11.3063655 293.483121,11.3063655 L293.483121,17.7902587 L290.486867,17.7902587 L290.486867,7.30334292 L293.483121,7.30334292 L293.483121,8.305577 C293.911573,7.97751129 294.981224,7.30482136 296.479376,7.30482136 C297.450168,7.30482136 299.47563,7.88609446 299.47563,11.3976838 L299.47563,17.7902587 Z" id="linkedin"></path>
            </g>
        </g>
    </g>
</svg>