<?xml version="1.0" encoding="UTF-8"?>
<svg width="54px" height="54px" viewBox="0 0 54 54" version="1.1" xmlns="http://www.w3.org/2000/svg" xmlns:xlink="http://www.w3.org/1999/xlink">
    <!-- Generator: sketchtool 49.1 (51147) - http://www.bohemiancoding.com/sketch -->
    <title>AE097579-E1D6-45B8-8B3C-A5EDC2DC26ED</title>
    <desc>Created with sketchtool.</desc>
    <defs></defs>
    <g id="Symbols" stroke="none" stroke-width="1" fill="none" fill-rule="evenodd">
        <g id="Bars/Navigation/On-Dark">
            <g id="Logos/On-Dark">
                <rect id="Base" fill="#FFFFFF" x="0" y="0" width="54" height="54" rx="27"></rect>
                <path d="M25.5612574,35.6837722 L25.2279241,34.6837722 C25.09181,34.2754301 24.7096712,34 24.2792408,34 L23.5,34 C22.6715729,34 22,33.3284271 22,32.5 L22,22 C22,20.8954305 22.8954305,20 24,20 L31,20 C32.1045695,20 33,20.8954305 33,22 L33,32 C33,33.1045695 32.1045695,34 31,34 L30,34 L29.2279241,31.6837722 C29.09181,31.2754301 28.7096712,31 28.2792408,31 L27.3874259,31 C26.8351411,31 26.3874259,31.4477153 26.3874259,32 C26.3874259,32.1074821 26.4047538,32.2142613 26.4387426,32.3162278 L27.7720759,36.3162278 C27.90819,36.7245699 28.2903288,37 28.7207592,37 L32,37 C34.209139,37 36,35.209139 36,33 L36,21 C36,18.790861 34.209139,17 32,17 L23,17 C20.790861,17 19,18.790861 19,21 L19,33 C19,35.209139 20.790861,37 23,37 L24.6125741,37 C25.1648589,37 25.6125741,36.5522847 25.6125741,36 C25.6125741,35.8925179 25.5952462,35.7857387 25.5612574,35.6837722 Z" id="Shape" fill="#3143BF"></path>
            </g>
        </g>
    </g>
</svg>