<?xml version="1.0" encoding="UTF-8"?>
<svg width="24px" height="24px" viewBox="0 0 24 24" version="1.1" xmlns="http://www.w3.org/2000/svg" xmlns:xlink="http://www.w3.org/1999/xlink">
    <!-- Generator: Sketch 49.1 (51147) - http://www.bohemiancoding.com/sketch -->
    <title>medium</title>
    <desc>Created with Sketch.</desc>
    <defs></defs>
    <g id="Page-9" stroke="none" stroke-width="1" fill="none" fill-rule="evenodd">
        <g id="Artboard" transform="translate(-651.000000, -259.000000)" fill="#FFFFFF">
            <g id="Bars/Social-Media/Icons/google-+-base-+-Bars/Social-Media/Icons/twitter-+-Bars/Social-Media/Icons/reddit-+-Rectangle-3-+-Bars/Social-Media/Icons/telegram-+-Bars/Social-Media/Icons/Linked-In-Mask" transform="translate(491.000000, 259.000000)">
                <path d="M170,13 L174,14.5 L174.001743,14.4973849 L174,15 L178,16.5 L178,8.5 L174.027749,7 L174.027689,7.01741673 L173.981024,7 L171.496434,10.7446503 L170,8.5 L166,7 L166,15 L170,16.5 L170,13 Z M172,0 C178.627417,-1.21743675e-15 184,5.372583 184,12 C184,18.627417 178.627417,24 172,24 C165.372583,24 160,18.627417 160,12 C160,5.372583 165.372583,1.21743675e-15 172,0 Z" id="medium"></path>
            </g>
        </g>
    </g>
</svg>