<?xml version="1.0" encoding="UTF-8"?>
<svg width="180px" height="43px" viewBox="0 0 180 43" version="1.1" xmlns="http://www.w3.org/2000/svg" xmlns:xlink="http://www.w3.org/1999/xlink">
    <!-- Generator: sketchtool 49.1 (51147) - http://www.bohemiancoding.com/sketch -->
    <title>EE56766E-BB1C-4072-BD35-B77209A6D7FA</title>
    <desc>Created with sketchtool.</desc>
    <defs></defs>
    <g id="Marketplace" stroke="none" stroke-width="1" fill="none" fill-rule="evenodd">
        <g transform="translate(-874.000000, -563.000000)" id="Group-4-Copy" stroke="#C77AFF">
            <g transform="translate(346.000000, 493.000000)">
                <g id="Group">
                    <g id="Group-3" transform="translate(528.000000, 71.000000)">
                        <polyline id="Path-6" points="0 41 5.26470588 39.0711841 10.5294118 34.8277891 15.7941176 36.3708418 21.0588235 35.2135523 26.3235294 30.5843941 31.5882353 32.51321 36.8529412 26.3385361 42.1176471 27.7037753 47.3823529 30.6247308 52.6470588 20.5545514 57.9117647 21.2369097 63.1764706 22.0601533 68.4411765 18.8186171 73.7058824 19.4341443 78.9705882 16.9859256 84.2352941 12.6287747 89.5 12.0795672 94.7647059 8.35976156 100.029412 8.59589273 105.294118 10.9104718 110.558824 10.9104718 115.823529 10.9104718 121.088235 7.82956614 126.352941 6.60007677 131.617647 5.50978728 136.882353 8.10881579 142.147059 11.9641848 147.411765 6.28889017 152.676471 8.21012955 157.941176 6.42659036 163.205882 5.08287992 168.470588 2.59304009 173.735294 0 179 5.50978728"></polyline>
                    </g>
                </g>
            </g>
        </g>
    </g>
</svg>