<?xml version="1.0" encoding="UTF-8"?>
<svg width="81px" height="69px" viewBox="0 0 81 69" version="1.1" xmlns="http://www.w3.org/2000/svg" xmlns:xlink="http://www.w3.org/1999/xlink">
    <!-- Generator: sketchtool 49.1 (51147) - http://www.bohemiancoding.com/sketch -->
    <title>44525328-0FE2-479F-ADF8-C87FB7048CC8</title>
    <desc>Created with sketchtool.</desc>
    <defs>
        <linearGradient x1="100%" y1="22.6074219%" x2="0%" y2="65.8886719%" id="linearGradient-1">
            <stop stop-color="#507CF2" offset="0%"></stop>
            <stop stop-color="#4230EC" offset="100%"></stop>
        </linearGradient>
        <linearGradient x1="100%" y1="22.6074219%" x2="0%" y2="65.8886719%" id="linearGradient-2">
            <stop stop-color="#AB50F2" offset="0%"></stop>
            <stop stop-color="#831AB5" offset="100%"></stop>
        </linearGradient>
        <linearGradient x1="100%" y1="22.6074219%" x2="0%" y2="65.8886719%" id="linearGradient-3">
            <stop stop-color="#8750F2" offset="0%"></stop>
            <stop stop-color="#4230EC" offset="100%"></stop>
        </linearGradient>
    </defs>
    <g id="Home" stroke="none" stroke-width="1" fill="none" fill-rule="evenodd">
        <g transform="translate(-1164.000000, -456.000000)" fill-rule="nonzero" id="Investor">
            <g transform="translate(740.000000, 401.000000)">
                <g id="Investor-Plash">
                    <g id="profits" transform="translate(424.000000, 55.000000)">
                        <path d="M23,64.5740139 L23,44.4259861 C23,43.6384493 22.3611445,43 21.5731065,43 L12.4268935,43 C11.6388555,43 11,43.6384493 11,44.4259861 L11,64.5740139 C11,65.3615507 11.6388555,66 12.4268935,66 L21.5729481,66 C22.3609861,66 23,65.3615507 23,64.5740139 Z" id="Shape" fill="url(#linearGradient-1)"></path>
                        <path d="M46,64.55232 L46,34.4480013 C46,33.6482341 45.361136,33 44.5729293,33 L35.4269123,33 C34.638864,33 34,33.6482341 34,34.4478406 L34,64.5521593 C34,65.3517659 34.638864,66 35.4269123,66 L44.5730877,66 C45.361136,66.0001607 46,65.3519266 46,64.55232 Z" id="Shape" fill="url(#linearGradient-1)"></path>
                        <path d="M68,65.5402567 L68,24.4597433 C68,23.6535632 67.361136,23 66.5730877,23 L57.4269123,23 C56.638864,23 56,23.6535632 56,24.4597433 L56,65.5402567 C56,66.3464368 56.638864,67 57.4269123,67 L66.5730877,67 C67.361136,67.000162 68,66.3465988 68,65.5402567 Z" id="Shape" fill="url(#linearGradient-1)"></path>
                        <path d="M79.9954061,61.8640678 L7.89383278,61.8640678 C7.33901818,61.8640678 6.88923893,61.4174906 6.88923893,60.8666258 L6.88923893,2.99744198 C6.88923893,2.4465772 6.43945967,2 5.88464508,2 L1.00459385,2 C0.449779254,2 0,2.4465772 0,2.99744198 L0,68.002558 C0,68.5534228 0.449779254,69 1.00459385,69 L79.9954061,69 C80.5502207,69 81,68.5534228 81,68.002558 L81,62.8615098 C81,62.310645 80.5502207,61.8640678 79.9954061,61.8640678 Z" id="Shape" fill="url(#linearGradient-2)"></path>
                        <circle id="Oval" fill="#FFFFFF" cx="62" cy="52" r="13"></circle>
                        <path d="M64.8567266,47.0331193 C64.5697341,47.0110398 64.2841586,47 64,47 L64,46 C64,45.4477153 63.5522847,45 63,45 L63,45 C62.4477153,45 62,45.4477153 62,46 L62,47 L58,47 C57.50296,47 57,47.4477333 57,48 C57,48.5522667 57.50296,49 58,49 L59,49 L59,55 L58,55 C57.50296,55 57,55.4477333 57,56 C57,56.5522667 57.50296,57 58,57 L62,57 L62,58 C62,58.5522847 62.4477153,59 63,59 L63,59 C63.5522847,59 64,58.5522847 64,58 L64,57 C65.48878,57 66.2293701,56.6445312 66.7004395,56 C67.3764805,55.1847951 67.5371094,54.1872559 67.1763916,53.3294678 C66.9359131,52.757609 66.3628743,52.3144531 65.4572754,52 L65.4926641,51.9869182 C66.5794197,51.5851879 67.2678412,50.511314 67.1791992,49.3560791 L67.1791992,49.3560791 C67.0839639,48.1149153 66.0978698,47.1286217 64.8567253,47.0331352 Z M64,55 L61,55 L61,53 L64,53 C64.5522847,53 65,53.4477153 65,54 L65,54 C65,54.5522847 64.5522847,55 64,55 Z M64,51 L61,51 L61,49 L64,49 C64.5522847,49 65,49.4477153 65,50 L65,50 C65,50.5522847 64.5522847,51 64,51 Z" id="Shape" fill="url(#linearGradient-3)"></path>
                        <path d="M51.4452541,41.3417932 C48.7003307,44.0602367 47,47.8315516 47,52 C47,56.1684484 48.7003307,59.9397633 51.4452541,62.6582068 C49.3364129,64.1340715 46.7693307,65 44,65 C36.8202983,65 31,59.1797017 31,52 C31,44.8202983 36.8202983,39 44,39 C46.7693307,39 49.3364129,39.8659285 51.4452541,41.3417932 Z" id="Combined-Shape" fill="#FFFFFF"></path>
                        <path d="M37,56.3631838 C37,55.9533405 37.3741413,55.3900394 37.8196602,55.3900394 C38.4076561,55.3900394 38.5973784,56.6178327 40.4147949,56.7543582 L40.4147949,52.7421875 C38.811233,52.1958187 37.3207124,51.5485255 37.3207124,49.3631838 C37.3207124,47.2119733 38.7220457,46.3909504 40.4147949,46.2201602 L40.4147949,45.9064416 C40.4147949,45.4058277 40.8206227,45 41.3212366,45 L41.3212366,45 C41.8218505,45 42.2276782,45.4058277 42.2276782,45.9064416 L42.2276782,46.1277944 C43.4392892,46.1619258 44.9296709,46.7340007 44.9296709,47.5706195 C44.9296709,47.895001 44.680197,48.5437639 44.14563,48.5437639 C43.7180599,48.5437639 43.4747694,47.7838331 42.2275391,47.6985047 L42.2275391,51.1643066 C43.7776721,51.7106754 45.2502441,52.6753945 45.2502441,54.9973951 C45.2502441,57.0974085 44.1518134,58.0448468 42.2275391,58.3009655 L42.2275391,58.5216589 C42.2275391,59.0222728 41.8217113,59.4281006 41.3210974,59.4281006 L41.3210974,59.4281006 C40.8204835,59.4281006 40.4146558,59.0222728 40.4146558,58.5216589 L40.4146558,58.4105303 C38.2054275,58.3763989 37,57.1998026 37,56.3631838 Z M40.5217918,50.8982929 L40.5217918,47.7910038 C39.5240354,47.9104636 39.1026488,48.3045776 39.1026488,49.1925268 C39.1025097,50.1656712 39.5774643,50.5568457 40.5217918,50.8982929 Z M42.1206813,53.059665 L42.1206813,56.6621258 C43.0828185,56.4914689 43.468586,56.1586621 43.468586,55.1853844 C43.468586,54.1097125 42.9937703,53.4181778 42.1206813,53.059665 Z" id="Shape" fill="url(#linearGradient-3)"></path>
                        <path d="M12.1223255,33.9913859 C12.1607935,33.9931406 12.321777,34 12.5978412,34 C14.297543,34 20.3444471,33.7425346 28.7745866,30.4872091 C34.4911189,28.2797707 40.1324932,25.1386615 45.5422516,21.1509795 C51.7588673,16.5684472 57.6842257,10.8463037 63.1806178,4.12684085 L63.6519311,7.44996241 C63.734524,8.03205105 64.2397796,8.45286493 64.8187385,8.45286493 C64.8730462,8.45286493 64.9283237,8.44919597 64.9837628,8.44153901 C65.6289901,8.3523673 66.0788066,7.76389786 65.9884553,7.12709384 L65.1196937,1.00280031 C65.075892,0.694448064 64.9089281,0.416245107 64.6558154,0.230244735 C64.4028644,0.044403884 64.0850997,-0.0337609376 63.772992,0.0134569954 L56.9366866,1.04682784 C56.2925908,1.14413507 55.8505325,1.73834723 55.9491269,2.37387509 C56.0477212,3.00956246 56.6501165,3.44616883 57.2937274,3.34854256 L61.2774237,2.74635439 C55.9500966,9.24663667 50.2204723,14.7835774 44.2193095,19.2199894 C38.9973652,23.0803744 33.5596448,26.1230597 28.0572724,28.2638187 C18.6925878,31.907097 12.2978558,31.667817 12.2349817,31.6655837 C11.582966,31.6330416 11.0329388,32.1304251 11.001421,32.7720147 C10.9697415,33.4142424 11.4716029,33.96012 12.1223255,33.9913859 Z" id="Shape" fill="#5065F2"></path>
                    </g>
                </g>
            </g>
        </g>
    </g>
</svg>