<?xml version="1.0" encoding="UTF-8"?>
<svg width="64px" height="70px" viewBox="0 0 64 70" version="1.1" xmlns="http://www.w3.org/2000/svg" xmlns:xlink="http://www.w3.org/1999/xlink">
    <!-- Generator: sketchtool 49.2 (51160) - http://www.bohemiancoding.com/sketch -->
    <title>DD153471-03D5-47B7-8034-A7D3FFADD41F</title>
    <desc>Created with sketchtool.</desc>
    <defs>
        <linearGradient x1="100%" y1="22.6074219%" x2="0%" y2="65.8886719%" id="linearGradient-1">
            <stop stop-color="#A373FF" offset="0%"></stop>
            <stop stop-color="#5E51DB" offset="100%"></stop>
        </linearGradient>
        <path d="M24.380297,40.6813836 L22.9349189,36.3813836 C22.798072,35.9742643 22.4165386,35.7 21.9870351,35.7 L18.3529412,35.7 C17.2483717,35.7 16.3529412,34.8045695 16.3529412,33.7 L16.3529412,8.3 C16.3529412,7.1954305 17.2483717,6.3 18.3529412,6.3 L37.6470588,6.3 C38.7516283,6.3 39.6470588,7.1954305 39.6470588,8.3 L39.6470588,33.7 C39.6470588,34.8045695 38.7516283,35.7 37.6470588,35.7 L33.2941176,35.7 L31.4055071,30.0813836 C31.2686603,29.6742643 30.8871268,29.4 30.4576233,29.4 L26.2146456,29.4 C25.6623608,29.4 25.2146456,29.8477153 25.2146456,30.4 C25.2146456,30.5083272 25.232247,30.6159348 25.2667618,30.7186164 L28.829787,41.3186164 C28.9666339,41.7257357 29.3481673,42 29.7776708,42 L37.5294118,42 C42.2075885,42 46,38.2391919 46,33.6 L46,8.4 C46,3.7608081 42.2075885,0 37.5294118,0 L18.4705882,0 C13.7924115,0 10,3.7608081 10,8.4 L10,33.6 C10,38.2391919 13.7924115,42 18.4705882,42 L23.4324133,42 C23.984698,42 24.4324133,41.5522847 24.4324133,41 C24.4324133,40.8916728 24.4148118,40.7840652 24.380297,40.6813836 Z" id="path-2"></path>
        <filter x="-58.3%" y="-50.0%" width="216.7%" height="200.0%" filterUnits="objectBoundingBox" id="filter-3">
            <feOffset dx="0" dy="0" in="SourceAlpha" result="shadowOffsetOuter1"></feOffset>
            <feGaussianBlur stdDeviation="7" in="shadowOffsetOuter1" result="shadowBlurOuter1"></feGaussianBlur>
            <feColorMatrix values="0 0 0 0 0.757140113   0 0 0 0 0.670789931   0 0 0 0 1  0 0 0 0.169893569 0" type="matrix" in="shadowBlurOuter1"></feColorMatrix>
        </filter>
    </defs>
    <g id="Algorithm" stroke="none" stroke-width="1" fill="none" fill-rule="evenodd">
        <g id="02-Algorithm---Alert---Investment" transform="translate(-803.000000, -714.000000)">
            <g id="Group-3" transform="translate(543.000000, 489.000000)">
                <g id="Group-5">
                    <g id="Group-4">
                        <g id="Group">
                            <g id="Group-7" transform="translate(264.000000, 239.000000)">
                                <path d="M14.380297,50.6813836 L12.9349189,46.3813836 C12.798072,45.9742643 12.4165386,45.7 11.9870351,45.7 L8.35294118,45.7 C7.24837168,45.7 6.35294118,44.8045695 6.35294118,43.7 L6.35294118,18.3 C6.35294118,17.1954305 7.24837168,16.3 8.35294118,16.3 L27.6470588,16.3 C28.7516283,16.3 29.6470588,17.1954305 29.6470588,18.3 L29.6470588,43.7 C29.6470588,44.8045695 28.7516283,45.7 27.6470588,45.7 L23.2941176,45.7 L21.4055071,40.0813836 C21.2686603,39.6742643 20.8871268,39.4 20.4576233,39.4 L16.2146456,39.4 C15.6623608,39.4 15.2146456,39.8477153 15.2146456,40.4 C15.2146456,40.5083272 15.232247,40.6159348 15.2667618,40.7186164 L18.829787,51.3186164 C18.9666339,51.7257357 19.3481673,52 19.7776708,52 L27.5294118,52 C32.2075885,52 36,48.2391919 36,43.6 L36,18.4 C36,13.7608081 32.2075885,10 27.5294118,10 L8.47058824,10 C3.79241153,10 0,13.7608081 0,18.4 L0,43.6 C0,48.2391919 3.79241153,52 8.47058824,52 L13.4324133,52 C13.984698,52 14.4324133,51.5522847 14.4324133,51 C14.4324133,50.8916728 14.4148118,50.7840652 14.380297,50.6813836 Z" id="Logo" fill="url(#linearGradient-1)" opacity="0.100000001"></path>
                                <path d="M19.380297,45.6813836 L17.9349189,41.3813836 C17.798072,40.9742643 17.4165386,40.7 16.9870351,40.7 L13.3529412,40.7 C12.2483717,40.7 11.3529412,39.8045695 11.3529412,38.7 L11.3529412,13.3 C11.3529412,12.1954305 12.2483717,11.3 13.3529412,11.3 L32.6470588,11.3 C33.7516283,11.3 34.6470588,12.1954305 34.6470588,13.3 L34.6470588,38.7 C34.6470588,39.8045695 33.7516283,40.7 32.6470588,40.7 L28.2941176,40.7 L26.4055071,35.0813836 C26.2686603,34.6742643 25.8871268,34.4 25.4576233,34.4 L21.2146456,34.4 C20.6623608,34.4 20.2146456,34.8477153 20.2146456,35.4 C20.2146456,35.5083272 20.232247,35.6159348 20.2667618,35.7186164 L23.829787,46.3186164 C23.9666339,46.7257357 24.3481673,47 24.7776708,47 L32.5294118,47 C37.2075885,47 41,43.2391919 41,38.6 L41,13.4 C41,8.7608081 37.2075885,5 32.5294118,5 L13.4705882,5 C8.79241153,5 5,8.7608081 5,13.4 L5,38.6 C5,43.2391919 8.79241153,47 13.4705882,47 L18.4324133,47 C18.984698,47 19.4324133,46.5522847 19.4324133,46 C19.4324133,45.8916728 19.4148118,45.7840652 19.380297,45.6813836 Z" id="Logo-Copy" fill="url(#linearGradient-1)" opacity="0.200000003"></path>
                                <g id="Logo-Copy-2">
                                    <use fill="black" fill-opacity="1" filter="url(#filter-3)" xlink:href="#path-2"></use>
                                    <use fill="url(#linearGradient-1)" fill-rule="evenodd" xlink:href="#path-2"></use>
                                </g>
                            </g>
                        </g>
                    </g>
                </g>
            </g>
        </g>
    </g>
</svg>