<?xml version="1.0" encoding="UTF-8"?>
<svg width="24px" height="24px" viewBox="0 0 24 24" version="1.1" xmlns="http://www.w3.org/2000/svg" xmlns:xlink="http://www.w3.org/1999/xlink">
    <!-- Generator: Sketch 49.1 (51147) - http://www.bohemiancoding.com/sketch -->
    <title>reddit</title>
    <desc>Created with Sketch.</desc>
    <defs></defs>
    <g id="Page-9" stroke="none" stroke-width="1" fill="none" fill-rule="evenodd">
        <g id="Artboard" transform="translate(-611.000000, -259.000000)" fill="#FFFFFF" fill-rule="nonzero">
            <g id="Bars/Social-Media/Icons/google-+-base-+-Bars/Social-Media/Icons/twitter-+-Bars/Social-Media/Icons/reddit-+-Rectangle-3-+-Bars/Social-Media/Icons/telegram-+-Bars/Social-Media/Icons/Linked-In-Mask" transform="translate(491.000000, 259.000000)">
                <path d="M131.969388,0 C125.359102,0 120,5.35910204 120,11.9693878 C120,18.5796735 125.359102,23.9387755 131.969388,23.9387755 C138.579673,23.9387755 143.938776,18.5796735 143.938776,11.9693878 C143.938776,5.35910204 138.579673,0 131.969388,0 Z M139.525469,13.4774694 C139.557551,13.6660408 139.578122,13.8568163 139.578122,14.0515102 C139.578122,16.852898 136.149061,19.1316735 131.933878,19.1316735 C127.718939,19.1316735 124.290367,16.852898 124.290367,14.0515102 C124.290367,13.8448163 124.314367,13.6425306 124.350612,13.4426939 C123.775592,13.1054694 123.412163,12.4878367 123.412163,11.8111837 C123.412163,10.7659592 124.261714,9.91640816 125.306204,9.91640816 C125.78351,9.91640816 126.238041,10.1062041 126.586776,10.4277551 C127.935184,9.54857143 129.769959,9.0004898 131.795265,8.976 L132.974449,5.24644898 C133.016571,5.11346939 133.154204,5.03559184 133.288653,5.06791837 L136.375347,5.79453061 C136.601143,5.21804082 137.16,4.80734694 137.816082,4.80734694 C138.670041,4.80734694 139.365306,5.50236735 139.365306,6.35657143 C139.365306,7.21077551 138.670041,7.90628571 137.816082,7.90628571 C136.961388,7.90628571 136.266367,7.21077551 136.266367,6.35657143 C136.266367,6.34212245 136.270041,6.32938776 136.270531,6.31493878 L133.406939,5.6404898 L132.34898,8.98530612 C134.285633,9.05461224 136.034939,9.5995102 137.326776,10.4546939 C137.677959,10.1155102 138.137143,9.91616327 138.632571,9.91616327 C139.677306,9.91616327 140.527592,10.7662041 140.527592,11.8111837 C140.526857,12.5199184 140.138939,13.1502857 139.525469,13.4774694 Z M128.244245,13.1115918 C128.244245,12.4897959 128.750204,11.9838367 129.372,11.9838367 C129.993796,11.9838367 130.49951,12.4897959 130.49951,13.1115918 C130.49951,13.7333878 129.994041,14.239102 129.372,14.239102 C128.749959,14.239102 128.244245,13.7333878 128.244245,13.1115918 Z M134.705388,16.4549388 C134.137224,17.0235918 133.245061,17.2995918 131.978449,17.2995918 C131.97551,17.2995918 131.972816,17.2973878 131.969388,17.2973878 C131.965959,17.2973878 131.963265,17.2995918 131.959837,17.2995918 C130.693224,17.2995918 129.801306,17.0235918 129.232898,16.4549388 C129.129551,16.3515918 129.129551,16.1838367 129.232898,16.08 C129.336735,15.9766531 129.50449,15.9766531 129.608327,16.08 C130.071918,16.5440816 130.840898,16.7691429 131.959837,16.7691429 C131.963265,16.7691429 131.965959,16.771102 131.969388,16.771102 C131.972816,16.771102 131.97551,16.7691429 131.978449,16.7691429 C133.097633,16.7691429 133.866857,16.5438367 134.330449,16.08 C134.434286,15.9766531 134.602041,15.9766531 134.705878,16.08 C134.809224,16.1838367 134.809224,16.3518367 134.705388,16.4549388 Z M134.570939,14.239102 C133.949633,14.239102 133.443429,13.7338776 133.443429,13.1115918 C133.443429,12.4893061 133.949143,11.9838367 134.570939,11.9838367 C135.192735,11.9838367 135.698449,12.4897959 135.698449,13.1115918 C135.698449,13.7333878 135.192735,14.239102 134.570939,14.239102 Z M138.631837,10.4463673 C139.384653,10.4463673 139.995918,11.0586122 139.995918,11.8109388 C139.995918,12.2755102 139.76351,12.6925714 139.388571,12.9421224 C139.114041,12.1261224 138.545388,11.3840816 137.757551,10.7679184 C138.001469,10.5636735 138.306612,10.4463673 138.631837,10.4463673 Z M126.146449,10.7419592 C125.353714,11.3532245 124.778449,12.0903673 124.494857,12.9019592 C124.153224,12.6489796 123.942857,12.2468571 123.942857,11.8109388 C123.942857,11.0586122 124.554122,10.4463673 125.305959,10.4463673 C125.612571,10.4463673 125.907184,10.5543673 126.146449,10.7419592 Z M137.815837,7.37559184 C137.253796,7.37559184 136.796082,6.91836735 136.796082,6.35632653 C136.796082,5.79428571 137.253796,5.33755102 137.815837,5.33755102 C138.377388,5.33755102 138.834122,5.79428571 138.834122,6.35632653 C138.834122,6.91836735 138.377388,7.37559184 137.815837,7.37559184 Z" id="reddit"></path>
            </g>
        </g>
    </g>
</svg>