<?xml version="1.0" encoding="UTF-8"?>
<svg width="24px" height="24px" viewBox="0 0 24 24" version="1.1" xmlns="http://www.w3.org/2000/svg" xmlns:xlink="http://www.w3.org/1999/xlink">
    <!-- Generator: Sketch 49.1 (51147) - http://www.bohemiancoding.com/sketch -->
    <title>telegram</title>
    <desc>Created with Sketch.</desc>
    <defs></defs>
    <g id="Page-9" stroke="none" stroke-width="1" fill="none" fill-rule="evenodd">
        <g id="Artboard" transform="translate(-731.000000, -259.000000)" fill="#FFFFFF">
            <g id="Bars/Social-Media/Icons/google-+-base-+-Bars/Social-Media/Icons/twitter-+-Bars/Social-Media/Icons/reddit-+-Rectangle-3-+-Bars/Social-Media/Icons/telegram-+-Bars/Social-Media/Icons/Linked-In-Mask" transform="translate(491.000000, 259.000000)">
                <path d="M252,0 L252,0 C258.627417,-1.21743675e-15 264,5.372583 264,12 L264,12 C264,18.627417 258.627417,24 252,24 L252,24 C245.372583,24 240,18.627417 240,12 L240,12 C240,5.372583 245.372583,1.21743675e-15 252,0 Z M243.588017,12.0664678 L247.042782,13.084661 L248.379987,16.4804931 C248.465549,16.6979839 248.80235,16.7783738 249.0259,16.6340509 L250.951644,15.3943809 C251.153505,15.2645021 251.441027,15.2580299 251.651983,15.3789502 L255.125339,17.3702282 C255.364483,17.507487 255.703282,17.4040101 255.763256,17.1758244 L258.307675,7.51123729 C258.373146,7.26197728 258.062984,7.05403697 257.762417,7.14583222 L243.583969,11.4649051 C243.234075,11.5714602 243.237123,11.9626358 243.588017,12.0664678 Z" id="telegram"></path>
            </g>
        </g>
    </g>
</svg>