<?xml version="1.0" encoding="UTF-8"?>
<svg width="24px" height="24px" viewBox="0 0 24 24" version="1.1" xmlns="http://www.w3.org/2000/svg" xmlns:xlink="http://www.w3.org/1999/xlink">
    <!-- Generator: Sketch 49.1 (51147) - http://www.bohemiancoding.com/sketch -->
    <title>twitter</title>
    <desc>Created with Sketch.</desc>
    <defs></defs>
    <g id="Page-9" stroke="none" stroke-width="1" fill="none" fill-rule="evenodd">
        <g id="Artboard" transform="translate(-531.000000, -259.000000)" fill="#FFFFFF" fill-rule="nonzero">
            <g id="Bars/Social-Media/Icons/google-+-base-+-Bars/Social-Media/Icons/twitter-+-Bars/Social-Media/Icons/reddit-+-Rectangle-3-+-Bars/Social-Media/Icons/telegram-+-Bars/Social-Media/Icons/Linked-In-Mask" transform="translate(491.000000, 259.000000)">
                <path d="M51.9850185,0 C45.3662916,0 40,5.36629158 40,11.9850185 C40,18.6037454 45.3662916,23.970037 51.9850185,23.970037 C58.6037454,23.970037 63.970037,18.6037454 63.970037,11.9850185 C63.970037,5.36481314 58.6037454,0 51.9850185,0 Z M57.9475647,9.29435729 L57.9565339,9.67638604 C57.9565339,13.5774949 54.9887639,18.0719014 49.5610185,18.0719014 C47.8951129,18.0719014 46.3445257,17.5835236 45.0381766,16.746037 C45.2689117,16.7729938 45.5040821,16.7879754 45.742308,16.7879754 C47.1250924,16.7879754 48.3969938,16.3160575 49.4067187,15.5250431 C48.1153511,15.5010924 47.0261848,14.6471458 46.6501684,13.4756304 C46.8314251,13.510078 47.0142094,13.5265873 47.205963,13.5265873 C47.4756304,13.5265873 47.7362793,13.4921396 47.9834743,13.4247228 C46.6336591,13.1520493 45.6164435,11.9610678 45.6164435,10.5318604 L45.6164435,10.4944066 C46.0149322,10.7161232 46.4688624,10.8479507 46.9527556,10.86446 C46.1617413,10.3356222 45.6403943,9.43224641 45.6403943,8.40901848 C45.6403943,7.86820534 45.7857248,7.36183984 46.038883,6.92589733 C47.4935688,8.71165503 49.668846,9.88617659 52.1212813,10.0090349 C52.0703244,9.79328131 52.0448953,9.56708008 52.0448953,9.33639425 C52.0448953,7.70794251 53.3662259,6.38656263 54.9962053,6.38656263 C55.8441396,6.38656263 56.6112033,6.74459138 57.1504887,7.31837372 C57.8216509,7.18501848 58.4538809,6.93935113 59.0246571,6.60226694 C58.8044189,7.29141684 58.3370349,7.86968378 57.7272772,8.23520329 C58.3220534,8.16478029 58.8928296,8.00446817 59.4216674,7.77077618 C59.0261848,8.36101848 58.5243039,8.88088706 57.9475647,9.29435729 Z" id="twitter"></path>
            </g>
        </g>
    </g>
</svg>