<?xml version="1.0" encoding="UTF-8"?>
<svg width="24px" height="24px" viewBox="0 0 24 24" version="1.1" xmlns="http://www.w3.org/2000/svg" xmlns:xlink="http://www.w3.org/1999/xlink">
    <!-- Generator: Sketch 49.1 (51147) - http://www.bohemiancoding.com/sketch -->
    <title>youtube</title>
    <desc>Created with Sketch.</desc>
    <defs></defs>
    <g id="Page-9" stroke="none" stroke-width="1" fill="none" fill-rule="evenodd">
        <g id="Artboard" transform="translate(-691.000000, -259.000000)" fill="#FFFFFF">
            <g id="Bars/Social-Media/Icons/google-+-base-+-Bars/Social-Media/Icons/twitter-+-Bars/Social-Media/Icons/reddit-+-Rectangle-3-+-Bars/Social-Media/Icons/telegram-+-Bars/Social-Media/Icons/Linked-In-Mask" transform="translate(491.000000, 259.000000)">
                <path d="M212,0 C218.627417,-1.21743675e-15 224,5.372583 224,12 C224,18.627417 218.627417,24 212,24 C205.372583,24 200,18.627417 200,12 C200,5.372583 205.372583,1.21743675e-15 212,0 Z M218.674464,14.5821205 C218.821184,12.7504115 218.821184,11.5934733 218.674464,9.76176434 C218.603722,8.88915488 218.080948,7.78984918 217.014416,7.75056176 C214.031045,7.55008461 210.494724,7.49504924 207.456277,7.75056176 C206.512926,7.8553557 205.866971,9.00446119 205.796229,9.87575144 C205.646871,11.7074604 205.646871,12.7504115 205.796229,14.5821205 C205.866971,15.4534107 206.497178,16.6090298 207.456277,16.7295717 C210.530054,16.931368 214.046752,16.9601843 217.014416,16.7295717 C217.940741,16.5684232 218.603722,15.4547299 218.674464,14.5821205 Z M210.924412,14.8559781 L210.924412,9.61504458 L214.855133,12.2355113 L210.924412,14.8559781 Z" id="youtube"></path>
            </g>
        </g>
    </g>
</svg>